Anvers-Italic.glyphspackage
{
glyphname = exclam;
layers = (
{
layerId = m01;
shapes = (
{
ref = period;
},
{
closed = 1;
nodes = (
(224,484,o),
(289,752,o),
(293,772,cs),
(298,799,o),
(170,822,o),
(165,794,cs),
(161,775,o),
(131,501,o),
(111,271,c),
(111,258,o),
(160,250,o),
(164,261,c)
);
}
);
width = 303;
},
{
layerId = m002;
shapes = (
{
ref = period;
},
{
closed = 1;
nodes = (
(224,484,o),
(289,752,o),
(293,772,cs),
(298,799,o),
(170,822,o),
(165,794,cs),
(161,775,o),
(131,501,o),
(111,271,c),
(111,258,o),
(160,250,o),
(164,261,c)
);
}
);
width = 303;
},
{
layerId = "6BC31736-8C9F-4B37-B5D4-AA29B85DBE0C";
shapes = (
{
alignment = -1;
ref = period;
},
{
closed = 1;
nodes = (
(224,484,o),
(289,752,o),
(293,772,cs),
(298,799,o),
(170,822,o),
(165,794,cs),
(161,775,o),
(131,501,o),
(111,271,c),
(111,258,o),
(160,250,o),
(164,261,c)
);
}
);
width = 303;
}
);
unicode = 33;
}
{
glyphname = numbersign;
layers = (
{
layerId = m01;
shapes = (
{
closed = 1;
nodes = (
(342,-180,l),
(482,735,l),
(484.942,749.709,o),
(434.942,759.709,o),
(432,745,c),
(292,-170,l),
(289.058,-184.709,o),
(339.058,-194.709,o),
(342,-180,c)
);
},
{
closed = 1;
nodes = (
(222,745,l),
(82,-170,l),
(79.058,-184.709,o),
(129.058,-194.709,o),
(132,-180,c),
(272,735,l),
(274.942,749.709,o),
(224.942,759.709,o),
(222,745,c)
);
},
{
closed = 1;
nodes = (
(82,500,l),
(67.116,501.861,o),
(57.116,421.861,o),
(72,420,c),
(542,420,l),
(556.884,418.139,o),
(566.884,498.139,o),
(552,500,c)
);
},
{
closed = 1;
nodes = (
(22,145,l),
(7.116,146.861,o),
(-2.884,66.861,o),
(12,65,c),
(482,65,l),
(496.884,63.139,o),
(506.884,143.139,o),
(492,145,c)
);
}
);
width = 564;
},
{
layerId = m002;
shapes = (
{
closed = 1;
nodes = (
(342,-180,l),
(482,735,l),
(484.942,749.709,o),
(434.942,759.709,o),
(432,745,c),
(292,-170,l),
(289.058,-184.709,o),
(339.058,-194.709,o),
(342,-180,c)
);
},
{
closed = 1;
nodes = (
(222,745,l),
(82,-170,l),
(79.058,-184.709,o),
(129.058,-194.709,o),
(132,-180,c),
(272,735,l),
(274.942,749.709,o),
(224.942,759.709,o),
(222,745,c)
);
},
{
closed = 1;
nodes = (
(82,500,l),
(67.116,501.861,o),
(57.116,421.861,o),
(72,420,c),
(542,420,l),
(556.884,418.139,o),
(566.884,498.139,o),
(552,500,c)
);
},
{
closed = 1;
nodes = (
(22,145,l),
(7.116,146.861,o),
(-2.884,66.861,o),
(12,65,c),
(482,65,l),
(496.884,63.139,o),
(506.884,143.139,o),
(492,145,c)
);
}
);
width = 564;
}
);
unicode = 35;
}
{
glyphname = dollar;
layers = (
{
layerId = m01;
shapes = (
{
closed = 1;
nodes = (
(64,57,l),
(126,12,o),
(201,-9,o),
(274,-9,cs),
(399,-9,o),
(533,75,o),
(533,215,cs),
(533,483,o),
(156,398,o),
(156,588,cs),
(156,656,o),
(220,707,o),
(288,707,cs),
(348,707,o),
(414,669,o),
(455,565,c),
(465,557,o),
(499,564,o),
(497,579,cs),
(480,724,l),
(430,754,o),
(373,770,o),
(317,770,cs),
(186,770,o),
(63,680,o),
(63,571,cs),
(63,306,o),
(440,423,o),
(440,196,cs),
(440,110,o),
(377,53,o),
(294,53,cs),
(222,53,o),
(141,101,o),
(97,235,cs),
(93,248,o),
(53,236,o),
(50,227,c)
);
},
{
closed = 1;
nodes = (
(280,885,l),
(240,-130,l),
(240,-145,o),
(300,-145,o),
(300,-130,c),
(340,885,l),
(340,900,o),
(280,900,o),
(280,885,c)
);
}
);
width = 583;
},
{
layerId = "6BC31736-8C9F-4B37-B5D4-AA29B85DBE0C";
shapes = (
{
closed = 1;
nodes = (
(64,57,l),
(126,12,o),
(201,-9,o),
(274,-9,cs),
(399,-9,o),
(533,75,o),
(533,215,cs),
(533,483,o),
(156,398,o),
(156,588,cs),
(156,656,o),
(220,707,o),
(288,707,cs),
(348,707,o),
(414,669,o),
(455,565,c),
(465,557,o),
(499,564,o),
(497,579,cs),
(480,724,l),
(430,754,o),
(373,770,o),
(317,770,cs),
(186,770,o),
(63,680,o),
(63,571,cs),
(63,306,o),
(440,423,o),
(440,196,cs),
(440,110,o),
(377,53,o),
(294,53,cs),
(222,53,o),
(141,101,o),
(97,235,cs),
(93,248,o),
(53,236,o),
(50,227,c)
);
},
{
closed = 1;
nodes = (
(280,885,l),
(240,-130,l),
(240,-145,o),
(300,-145,o),
(300,-130,c),
(340,885,l),
(340,900,o),
(280,900,o),
(280,885,c)
);
}
);
width = 583;
}
);
unicode = 36;
}
{
glyphname = percent;
layers = (
{
layerId = m01;
shapes = (
{
closed = 1;
nodes = (
(150,-20,l),
(850,730,l),
(860.09,741.099,o),
(805.09,791.099,o),
(795,780,c),
(95,30,l),
(84.91,18.901,o),
(139.91,-31.099,o),
(150,-20,c)
);
},
{
closed = 1;
nodes = (
(317,380,o),
(413,460,o),
(421,580,cs),
(429,700,o),
(345,780,o),
(234,780,cs),
(125,780,o),
(29,700,o),
(21,580,cs),
(13,460,o),
(97,380,o),
(208,380,cs)
);
},
{
closed = 1;
nodes = (
(161,455,o),
(106,501,o),
(101,580,cs),
(96,659,o),
(144,705,o),
(212,705,cs),
(281,705,o),
(336,659,o),
(341,580,cs),
(346,501,o),
(298,455,o),
(230,455,cs)
);
},
{
closed = 1;
nodes = (
(822,-20,o),
(918,60,o),
(926,180,cs),
(934,300,o),
(850,380,o),
(739,380,cs),
(630,380,o),
(534,300,o),
(526,180,cs),
(518,60,o),
(602,-20,o),
(713,-20,cs)
);
},
{
closed = 1;
nodes = (
(666,55,o),
(611,101,o),
(606,180,cs),
(601,259,o),
(649,305,o),
(717,305,cs),
(786,305,o),
(841,259,o),
(846,180,cs),
(851,101,o),
(803,55,o),
(735,55,cs)
);
}
);
width = 947;
},
{
layerId = m002;
shapes = (
{
closed = 1;
nodes = (
(150,-20,l),
(850,730,l),
(860.09,741.099,o),
(805.09,791.099,o),
(795,780,c),
(95,30,l),
(84.91,18.901,o),
(139.91,-31.099,o),
(150,-20,c)
);
},
{
closed = 1;
nodes = (
(317,380,o),
(413,460,o),
(421,580,cs),
(429,700,o),
(345,780,o),
(234,780,cs),
(125,780,o),
(29,700,o),
(21,580,cs),
(13,460,o),
(97,380,o),
(208,380,cs)
);
},
{
closed = 1;
nodes = (
(161,455,o),
(106,501,o),
(101,580,cs),
(96,659,o),
(144,705,o),
(212,705,cs),
(281,705,o),
(336,659,o),
(341,580,cs),
(346,501,o),
(298,455,o),
(230,455,cs)
);
},
{
closed = 1;
nodes = (
(822,-20,o),
(918,60,o),
(926,180,cs),
(934,300,o),
(850,380,o),
(739,380,cs),
(630,380,o),
(534,300,o),
(526,180,cs),
(518,60,o),
(602,-20,o),
(713,-20,cs)
);
},
{
closed = 1;
nodes = (
(666,55,o),
(611,101,o),
(606,180,cs),
(601,259,o),
(649,305,o),
(717,305,cs),
(786,305,o),
(841,259,o),
(846,180,cs),
(851,101,o),
(803,55,o),
(735,55,cs)
);
}
);
width = 947;
},
{
layerId = "6BC31736-8C9F-4B37-B5D4-AA29B85DBE0C";
shapes = (
{
closed = 1;
nodes = (
(150,-20,l),
(850,730,l),
(860,741,o),
(805,791,o),
(795,780,c),
(95,30,l),
(85,19,o),
(140,-31,o),
(150,-20,c)
);
},
{
closed = 1;
nodes = (
(317,380,o),
(413,460,o),
(421,580,cs),
(429,700,o),
(345,780,o),
(234,780,cs),
(125,780,o),
(29,700,o),
(21,580,cs),
(13,460,o),
(97,380,o),
(208,380,cs)
);
},
{
closed = 1;
nodes = (
(161,455,o),
(106,501,o),
(101,580,cs),
(96,659,o),
(144,705,o),
(212,705,cs),
(281,705,o),
(336,659,o),
(341,580,cs),
(346,501,o),
(298,455,o),
(230,455,cs)
);
},
{
closed = 1;
nodes = (
(822,-20,o),
(918,60,o),
(926,180,cs),
(934,300,o),
(850,380,o),
(739,380,cs),
(630,380,o),
(534,300,o),
(526,180,cs),
(518,60,o),
(602,-20,o),
(713,-20,cs)
);
},
{
closed = 1;
nodes = (
(666,55,o),
(611,101,o),
(606,180,cs),
(601,259,o),
(649,305,o),
(717,305,cs),
(786,305,o),
(841,259,o),
(846,180,cs),
(851,101,o),
(803,55,o),
(735,55,cs)
);
}
);
width = 947;
}
);
unicode = 37;
}
{
glyphname = ampersand;
layers = (
{
background = {
shapes = (
{
closed = 1;
nodes = (
(245,445,l),
(364,528,o),
(405,565,o),
(408,630,cs),
(410,706,o),
(360,770,o),
(265,770,cs),
(197,770,o),
(111,703,o),
(108,620,cs),
(105,533,o),
(168,471,o),
(239,379,cs),
(468,82,ls),
(562,-39,o),
(655,-31,o),
(760,74,c),
(771,85,o),
(740,116,o),
(729,105,c),
(705,85,o),
(678,68,o),
(649,68,cs),
(621,68,o),
(586,81,o),
(538,143,cs),
(241,523,ls),
(201,574,o),
(178,602,o),
(179,640,cs),
(181,685,o),
(212,709,o),
(255,709,cs),
(292,709,o),
(330,671,o),
(328,622,cs),
(327,571,o),
(299,539,o),
(220,484,c)
);
},
{
closed = 1;
nodes = (
(484,203,l),
(519,159,l),
(597,247,l),
(640,295,o),
(660,287,o),
(722,322,c),
(730,326,o),
(725,351,o),
(716,351,c),
(660,351,o),
(646,350,o),
(629,350,c),
(599,350,l),
(582,350,o),
(568,351,o),
(512,351,c),
(503,351,o),
(499,326,o),
(506,322,c),
(569,287,o),
(562,295,o),
(520,245,c)
);
},
{
closed = 1;
nodes = (
(442,153,l),
(313,5,o),
(104,74,o),
(110,249,cs),
(113,334,o),
(187,393,o),
(230,429,c),
(194,468,l),
(128,411,o),
(18,330,o),
(15,230,cs),
(11,109,o),
(99,-10,o),
(244,-10,cs),
(331,-10,o),
(390,28,o),
(483,114,c)
);
}
);
};
layerId = m01;
shapes = (
{
closed = 1;
nodes = (
(502,153,l),
(373,5,o),
(164,74,o),
(170,249,cs),
(172,308,o),
(208,355,o),
(255,400,cs),
(320,459,l),
(201,538,o),
(182,594,o),
(182,623,cs),
(182,665,o),
(220,699,o),
(251,701,cs),
(304,704,o),
(328,646,o),
(345,646,cs),
(369,646,o),
(400,684,o),
(400,714,cs),
(400,751,o),
(341,773,o),
(300,770,cs),
(191,763,o),
(113,649,o),
(113,565,cs),
(113,531,o),
(138,467,o),
(207,420,c),
(142,360,o),
(77,307,o),
(75,230,cs),
(71,109,o),
(159,-10,o),
(304,-10,cs),
(391,-10,o),
(450,28,o),
(543,114,c)
);
}
);
width = 793;
}
);
unicode = 38;
}
{
glyphname = quotesingle;
layers = (
{
layerId = m01;
shapes = (
{
closed = 1;
nodes = (
(133,628,o),
(166,739,o),
(170,759,c),
(159,782,o),
(80,796,o),
(61,778,c),
(58,758,o),
(51,642,o),
(50,521,c),
(49,509,o),
(89,502,o),
(93,513,c)
);
}
);
width = 155;
},
{
layerId = "6BC31736-8C9F-4B37-B5D4-AA29B85DBE0C";
shapes = (
{
closed = 1;
nodes = (
(133,628,o),
(166,739,o),
(170,759,c),
(159,782,o),
(80,796,o),
(61,778,c),
(58,758,o),
(51,642,o),
(50,521,c),
(49,509,o),
(89,502,o),
(93,513,c)
);
}
);
width = 155;
},
{
layerId = "ABF9DA73-21AD-4AF2-B0FF-D1BE084ED1D5";
shapes = (
{
closed = 1;
nodes = (
(133,628,o),
(166,739,o),
(170,759,c),
(159,782,o),
(80,796,o),
(61,778,c),
(58,758,o),
(51,642,o),
(50,521,c),
(49,509,o),
(89,502,o),
(93,513,c)
);
}
);
width = 155;
}
);
unicode = 39;
}
{
glyphname = parenleft;
layers = (
{
layerId = m01;
shapes = (
{
closed = 1;
nodes = (
(387,800,l),
(52,487,o),
(-11,133,o),
(214,-180,c),
(220.845,-193.347,o),
(259.845,-173.347,o),
(253,-160,c),
(120,163,o),
(171,457,o),
(418,780,c),
(426.132,792.604,o),
(395.132,812.604,o),
(387,800,c)
);
}
);
width = 350;
},
{
layerId = m002;
shapes = (
{
closed = 1;
nodes = (
(387,800,l),
(52,487,o),
(-11,133,o),
(214,-180,c),
(220.845,-193.347,o),
(259.845,-173.347,o),
(253,-160,c),
(120,163,o),
(171,457,o),
(418,780,c),
(426.132,792.604,o),
(395.132,812.604,o),
(387,800,c)
);
}
);
width = 350;
},
{
layerId = "6BC31736-8C9F-4B37-B5D4-AA29B85DBE0C";
shapes = (
{
closed = 1;
nodes = (
(387,800,l),
(52,487,o),
(-11,133,o),
(214,-180,c),
(221,-193,o),
(260,-173,o),
(253,-160,c),
(120,163,o),
(171,457,o),
(418,780,c),
(426,793,o),
(395,813,o),
(387,800,c)
);
}
);
width = 350;
}
);
unicode = 40;
}
{
glyphname = asterisk;
layers = (
{
layerId = m01;
shapes = (
{
closed = 1;
nodes = (
(159,617,ls),
(169,615,o),
(181,651,o),
(172,655,cs),
(62,707,ls),
(39,717,o),
(16,645,o),
(41,640,cs)
);
},
{
closed = 1;
nodes = (
(201,565,ls),
(206,574,o),
(175,596,o),
(169,589,cs),
(86,501,ls),
(69,482,o),
(130,437,o),
(143,459,cs)
);
},
{
closed = 1;
nodes = (
(263,589,ls),
(257,596,o),
(226,574,o),
(231,565,cs),
(289,459,ls),
(302,437,o),
(363,482,o),
(346,501,cs)
);
},
{
closed = 1;
nodes = (
(260,655,ls),
(251,651,o),
(263,615,o),
(273,617,cs),
(391,640,ls),
(416,645,o),
(393,717,o),
(370,707,cs)
);
},
{
closed = 1;
nodes = (
(196,673,ls),
(197,663,o),
(235,663,o),
(236,673,cs),
(251,793,ls),
(254,818,o),
(178,818,o),
(181,793,cs)
);
}
);
width = 432;
}
);
unicode = 42;
}
{
glyphname = plus;
layers = (
{
layerId = m01;
shapes = (
{
closed = 1;
nodes = (
(346,505,o),
(281,505,o),
(281,490,c),
(286,285,l),
(91,290,l),
(76,290,o),
(76,225,o),
(91,225,c),
(286,230,l),
(281,25,l),
(281,10,o),
(346,10,o),
(346,25,c),
(341,230,l),
(536,225,l),
(551,225,o),
(551,290,o),
(536,290,c),
(341,285,l),
(346,490,l)
);
}
);
width = 627;
},
{
layerId = m002;
shapes = (
{
closed = 1;
nodes = (
(346,505,o),
(281,505,o),
(281,490,c),
(286,285,l),
(91,290,l),
(76,290,o),
(76,225,o),
(91,225,c),
(286,230,l),
(281,25,l),
(281,10,o),
(346,10,o),
(346,25,c),
(341,230,l),
(536,225,l),
(551,225,o),
(551,290,o),
(536,290,c),
(341,285,l),
(346,490,l)
);
}
);
width = 627;
},
{
layerId = "6BC31736-8C9F-4B37-B5D4-AA29B85DBE0C";
shapes = (
{
closed = 1;
nodes = (
(346,505,o),
(281,505,o),
(281,490,c),
(286,285,l),
(91,290,l),
(76,290,o),
(76,225,o),
(91,225,c),
(286,230,l),
(281,25,l),
(281,10,o),
(346,10,o),
(346,25,c),
(341,230,l),
(536,225,l),
(551,225,o),
(551,290,o),
(536,290,c),
(341,285,l),
(346,490,l)
);
}
);
width = 627;
}
);
unicode = 43;
}
{
glyphname = comma;
layers = (
{
background = {
shapes = (
{
closed = 1;
nodes = (
(157,6,o),
(182,46,o),
(182,72,c),
(165,109,o),
(124,133,o),
(99,133,c),
(63,116,o),
(39,76,o),
(39,50,c),
(55,13,o),
(96,-10,o),
(121,-10,c)
);
}
);
};
layerId = m01;
shapes = (
{
closed = 1;
nodes = (
(83,-17,o),
(71,-43,o),
(-1,-135,c),
(-12,-146,o),
(18,-176,o),
(29,-165,c),
(136,-46,o),
(190,83,o),
(104,124,cs),
(41,154,o),
(-23,63,o),
(45,11,cs)
);
}
);
width = 279;
},
{
background = {
shapes = (
{
closed = 1;
nodes = (
(157,6,o),
(182,46,o),
(182,72,c),
(165,109,o),
(124,133,o),
(99,133,c),
(63,116,o),
(39,76,o),
(39,50,c),
(55,13,o),
(96,-10,o),
(121,-10,c)
);
}
);
};
layerId = m002;
shapes = (
{
closed = 1;
nodes = (
(83,-17,o),
(71,-43,o),
(-1,-135,c),
(-12,-146,o),
(18,-176,o),
(29,-165,c),
(136,-46,o),
(190,83,o),
(104,124,cs),
(41,154,o),
(-23,63,o),
(45,11,cs)
);
}
);
width = 279;
}
);
unicode = 44;
}
{
glyphname = hyphen;
layers = (
{
layerId = m01;
shapes = (
{
closed = 1;
nodes = (
(77,260,l),
(62.204,257.534,o),
(72.204,197.534,o),
(87,200,c),
(372,230,l),
(386.822,232.306,o),
(372.822,322.306,o),
(358,320,c)
);
}
);
width = 448;
},
{
layerId = m002;
shapes = (
{
closed = 1;
nodes = (
(77,260,l),
(62.204,257.534,o),
(72.204,197.534,o),
(87,200,c),
(372,230,l),
(386.822,232.306,o),
(372.822,322.306,o),
(358,320,c)
);
}
);
width = 448;
}
);
unicode = 45;
}
{
glyphname = period;
layers = (
{
layerId = m01;
shapes = (
{
closed = 1;
nodes = (
(140,-5,o),
(169,24,o),
(169,60,cs),
(169,96,o),
(140,125,o),
(104,125,cs),
(68,125,o),
(39,96,o),
(39,60,cs),
(39,24,o),
(68,-5,o),
(104,-5,cs)
);
}
);
width = 303;
},
{
layerId = m002;
shapes = (
{
closed = 1;
nodes = (
(140,-5,o),
(169,24,o),
(169,60,cs),
(169,96,o),
(140,125,o),
(104,125,cs),
(68,125,o),
(39,96,o),
(39,60,cs),
(39,24,o),
(68,-5,o),
(104,-5,cs)
);
}
);
width = 303;
},
{
layerId = "6BC31736-8C9F-4B37-B5D4-AA29B85DBE0C";
shapes = (
{
closed = 1;
nodes = (
(140,-5,o),
(169,24,o),
(169,60,cs),
(169,96,o),
(140,125,o),
(104,125,cs),
(68,125,o),
(39,96,o),
(39,60,cs),
(39,24,o),
(68,-5,o),
(104,-5,cs)
);
}
);
width = 303;
}
);
unicode = 46;
}
{
glyphname = slash;
layers = (
{
layerId = m01;
shapes = (
{
closed = 1;
nodes = (
(439,785,l),
(-65,-130,l),
(-74,-144,o),
(-28,-164,o),
(-19,-150,c),
(485,765,l),
(494,779,o),
(448,799,o),
(439,785,c)
);
}
);
width = 420;
},
{
layerId = "6BC31736-8C9F-4B37-B5D4-AA29B85DBE0C";
shapes = (
{
closed = 1;
nodes = (
(439,785,l),
(-65,-130,l),
(-74,-144,o),
(-28,-164,o),
(-19,-150,c),
(485,765,l),
(494,779,o),
(448,799,o),
(439,785,c)
);
}
);
width = 420;
},
{
layerId = "ABF9DA73-21AD-4AF2-B0FF-D1BE084ED1D5";
shapes = (
{
closed = 1;
nodes = (
(439,785,l),
(-65,-130,l),
(-74,-144,o),
(-28,-164,o),
(-19,-150,c),
(485,765,l),
(494,779,o),
(448,799,o),
(439,785,c)
);
}
);
width = 420;
}
);
unicode = 47;
}
{
glyphname = equal;
layers = (
{
layerId = m01;
shapes = (
{
closed = 1;
nodes = (
(46,380,o),
(46,310,o),
(61,310,c),
(561,310,l),
(576,310,o),
(576,380,o),
(561,380,c),
(311,370,l),
(61,380,l)
);
},
{
closed = 1;
nodes = (
(576,140,o),
(576,210,o),
(561,210,c),
(61,210,l),
(46,210,o),
(46,140,o),
(61,140,c),
(311,150,l),
(561,140,l)
);
}
);
width = 622;
},
{
layerId = m002;
shapes = (
{
closed = 1;
nodes = (
(46,380,o),
(46,310,o),
(61,310,c),
(561,310,l),
(576,310,o),
(576,380,o),
(561,380,c),
(311,370,l),
(61,380,l)
);
},
{
closed = 1;
nodes = (
(576,140,o),
(576,210,o),
(561,210,c),
(61,210,l),
(46,210,o),
(46,140,o),
(61,140,c),
(311,150,l),
(561,140,l)
);
}
);
width = 622;
}
);
unicode = 61;
}
{
glyphname = greater;
layers = (
{
layerId = m01;
shapes = (
{
closed = 1;
nodes = (
(53,70,l),
(41,61,o),
(65,22,o),
(78,30,cs),
(402,218,ls),
(433,236,o),
(439,245,o),
(439,250,cs),
(439,255,o),
(433,264,o),
(402,282,cs),
(78,470,ls),
(65,478,o),
(41,439,o),
(53,430,cs),
(271,269,ls),
(285,258,o),
(287,254,o),
(287,250,cs),
(287,246,o),
(285,242,o),
(271,231,cs)
);
}
);
width = 489;
},
{
layerId = m002;
shapes = (
{
closed = 1;
nodes = (
(53,70,l),
(41,61,o),
(65,22,o),
(78,30,cs),
(402,218,ls),
(433,236,o),
(439,245,o),
(439,250,cs),
(439,255,o),
(433,264,o),
(402,282,cs),
(78,470,ls),
(65,478,o),
(41,439,o),
(53,430,cs),
(271,269,ls),
(285,258,o),
(287,254,o),
(287,250,cs),
(287,246,o),
(285,242,o),
(271,231,cs)
);
}
);
width = 489;
}
);
unicode = 62;
}
{
glyphname = question;
layers = (
{
background = {
shapes = (
{
closed = 1;
nodes = (
(396,746,o),
(158,807,o),
(60,753,cs),
(33,738,o),
(69,636,o),
(100,652,cs),
(257,735,o),
(311,665,o),
(311,569,c),
(116,405,l),
(201,230,l),
(251,230,l),
(186,355,l),
(256,409,o),
(326,463,o),
(396,517,c)
);
}
);
};
layerId = m01;
shapes = (
{
closed = 1;
nodes = (
(376,708,o),
(162,821,o),
(47,738,cs),
(1,705,o),
(47,611,o),
(112,659,cs),
(228,744,o),
(271,662,o),
(275,588,cs),
(285,401,o),
(24,494,o),
(91,240,c),
(94.638,225.448,o),
(134.638,235.448,o),
(131,250,c),
(107,402,o),
(351,365,o),
(365,555,cs)
);
},
{
pos = (16,0);
ref = period;
}
);
width = 466;
}
);
unicode = 63;
}
{
glyphname = at;
layers = (
{
layerId = m01;
shapes = (
{
closed = 1;
nodes = (
(563,36,o),
(615,-7,o),
(686,-7,cs),
(835,-7,o),
(942,194,o),
(942,385,cs),
(942,558,o),
(854,724,o),
(627,724,cs),
(277,724,o),
(50,401,o),
(50,134,cs),
(50,-57,o),
(154,-219,o),
(380,-219,cs),
(479,-219,o),
(570,-178,o),
(632,-135,cs),
(644,-127,o),
(626,-95,o),
(612,-101,cs),
(307,-241,o),
(144,-58,o),
(144,164,cs),
(144,393,o),
(325,662,o),
(606,662,cs),
(792,662,o),
(863,510,o),
(863,358,cs),
(863,205,o),
(791,51,o),
(711,51,cs),
(681,51,o),
(650,69,o),
(664,134,cs),
(742,489,l),
(734,498,l),
(660,481,l),
(581,119,l)
);
},
{
closed = 1;
nodes = (
(288,78,o),
(304,-12,o),
(388,-12,cs),
(449,-12,o),
(533,45,o),
(645,200,c),
(609,230,l),
(556,138,o),
(492,78,o),
(453,78,cs),
(398,78,o),
(380,128,o),
(415,261,cs),
(463,441,o),
(582,453,o),
(651,390,c),
(701,475,l),
(597,572,o),
(377,436,o),
(326,232,cs)
);
}
);
width = 992;
},
{
layerId = "6BC31736-8C9F-4B37-B5D4-AA29B85DBE0C";
shapes = (
{
closed = 1;
nodes = (
(563,36,o),
(615,-7,o),
(686,-7,cs),
(835,-7,o),
(942,194,o),
(942,385,cs),
(942,558,o),
(854,724,o),
(627,724,cs),
(277,724,o),
(50,401,o),
(50,134,cs),
(50,-57,o),
(154,-219,o),
(380,-219,cs),
(479,-219,o),
(570,-178,o),
(632,-135,cs),
(644,-127,o),
(626,-95,o),
(612,-101,cs),
(307,-241,o),
(144,-58,o),
(144,164,cs),
(144,393,o),
(325,662,o),
(606,662,cs),
(792,662,o),
(863,510,o),
(863,358,cs),
(863,205,o),
(791,51,o),
(711,51,cs),
(681,51,o),
(650,69,o),
(664,134,cs),
(742,489,l),
(734,498,l),
(660,481,l),
(581,119,l)
);
},
{
closed = 1;
nodes = (
(288,78,o),
(304,-12,o),
(388,-12,cs),
(449,-12,o),
(533,45,o),
(645,200,c),
(609,230,l),
(556,138,o),
(492,78,o),
(453,78,cs),
(398,78,o),
(380,128,o),
(415,261,cs),
(463,441,o),
(582,453,o),
(651,390,c),
(701,475,l),
(597,572,o),
(377,436,o),
(326,232,cs)
);
}
);
width = 992;
},
{
layerId = "ABF9DA73-21AD-4AF2-B0FF-D1BE084ED1D5";
shapes = (
{
closed = 1;
nodes = (
(563,36,o),
(615,-7,o),
(686,-7,cs),
(835,-7,o),
(942,194,o),
(942,385,cs),
(942,558,o),
(854,724,o),
(627,724,cs),
(277,724,o),
(50,401,o),
(50,134,cs),
(50,-57,o),
(154,-219,o),
(380,-219,cs),
(479,-219,o),
(570,-178,o),
(632,-135,cs),
(644,-127,o),
(626,-95,o),
(612,-101,cs),
(307,-241,o),
(144,-58,o),
(144,164,cs),
(144,393,o),
(325,662,o),
(606,662,cs),
(792,662,o),
(863,510,o),
(863,358,cs),
(863,205,o),
(791,51,o),
(711,51,cs),
(681,51,o),
(650,69,o),
(664,134,cs),
(742,489,l),
(734,498,l),
(660,481,l),
(581,119,l)
);
},
{
closed = 1;
nodes = (
(288,78,o),
(304,-12,o),
(388,-12,cs),
(449,-12,o),
(533,45,o),
(645,200,c),
(609,230,l),
(556,138,o),
(492,78,o),
(453,78,cs),
(398,78,o),
(380,128,o),
(415,261,cs),
(463,441,o),
(582,453,o),
(651,390,c),
(701,475,l),
(597,572,o),
(377,436,o),
(326,232,cs)
);
}
);
width = 992;
}
);
unicode = 64;
}
{
glyphname = A;
layers = (
{
anchors = (
{
name = bottom;
pos = (262,0);
},
{
name = ogonek;
pos = (544,10);
},
{
name = top;
pos = (451,760);
}
);
background = {
shapes = (
{
closed = 0;
nodes = (
(782,0,l),
(464,800,l)
);
},
{
closed = 1;
nodes = (
(377,765,l),
(407,690,l),
(672,0,l),
(672,0,l),
(782,0,l),
(782,0,l),
(464,800,l),
(464,800,l)
);
},
{
closed = 0;
nodes = (
(92,0,l),
(177,0,l)
);
},
{
closed = 1;
nodes = (
(467,770,l),
(407,760,l),
(92,0,l),
(92,0,l),
(177,0,l),
(177,0,l)
);
},
{
closed = 1;
nodes = (
(242,265,l),
(632,265,l),
(632,320,l),
(242,320,l)
);
}
);
};
layerId = m01;
shapes = (
{
closed = 1;
nodes = (
(552,760,l),
(501,735,l),
(496,720,l),
(518,680,l),
(506,137,l),
(504,66,o),
(498,69,o),
(435,31,c),
(428,26,o),
(432,-1,o),
(441,-1,c),
(497,-1,o),
(511,0,o),
(528,0,c),
(582,0,l),
(597,0,o),
(609,-1,o),
(657,-1,c),
(665,-1,o),
(668,26,o),
(662,31,c),
(608,69,o),
(603,66,o),
(603,138,c),
(603,778,l),
(594,785,l)
);
},
{
closed = 1;
nodes = (
(167,119,c),
(602,700,l),
(558,750,l),
(82,119,l),
(39,62,o),
(21,69,o),
(-33,31,c),
(-39,26,o),
(-36,-1,o),
(-28,-1,c),
(20,-1,o),
(32,0,o),
(47,0,c),
(79,0,l),
(102,0,o),
(120,-1,o),
(192,-1,c),
(204,-1,o),
(209,26,o),
(199,31,c),
(119,69,o),
(124,62,o)
);
},
{
closed = 1;
nodes = (
(236,260,l),
(576,260,l),
(600,320,l),
(260,320,l)
);
}
);
width = 744;
},
{
anchors = (
{
name = bottom;
pos = (288,0);
},
{
name = ogonek;
pos = (570,10);
},
{
name = top;
pos = (477,760);
}
);
layerId = "6BC31736-8C9F-4B37-B5D4-AA29B85DBE0C";
shapes = (
{
closed = 1;
nodes = (
(572,760,l),
(491,735,l),
(486,720,l),
(502,680,l),
(490,149,l),
(488,78,o),
(482,81,o),
(419,43,c),
(412,38,o),
(416,-1,o),
(425,-1,c),
(481,-1,o),
(489,0,o),
(506,0,c),
(608,0,l),
(623,0,o),
(635,-1,o),
(683,-1,c),
(691,-1,o),
(694,38,o),
(688,43,c),
(634,81,o),
(629,78,o),
(629,150,c),
(629,772,l),
(611,785,l)
);
},
{
closed = 1;
nodes = (
(181,131,c),
(616,700,l),
(560,750,l),
(84,131,l),
(41,74,o),
(23,81,o),
(-31,43,c),
(-37,38,o),
(-34,-1,o),
(-26,-1,c),
(22,-1,o),
(34,0,o),
(49,0,c),
(93,0,l),
(116,0,o),
(134,-1,o),
(206,-1,c),
(218,-1,o),
(223,38,o),
(213,43,c),
(133,81,o),
(138,74,o)
);
},
{
closed = 1;
nodes = (
(244,254,l),
(584,254,l),
(608,320,l),
(268,320,l)
);
}
);
width = 769.8;
}
);
unicode = 65;
}
{
glyphname = B;
layers = (
{
anchors = (
{
name = bottom;
pos = (291,0);
},
{
name = center;
pos = (385,380);
},
{
name = top;
pos = (480,760);
}
);
layerId = m01;
shapes = (
{
closed = 1;
nodes = (
(203,625,c),
(81,135,l),
(63,65,o),
(51,69,o),
(-20,31,c),
(-29,26,o),
(-24,-1,o),
(-14,-1,c),
(50,-1,o),
(66,0,o),
(86,0,c),
(264,0,ls),
(425,0,o),
(577,77,o),
(577,228,cs),
(577,299,o),
(541,356,o),
(462,401,c),
(555,431,o),
(620,504,o),
(620,592,cs),
(620,679,o),
(553,760,o),
(424,760,cs),
(254,760,l),
(234,760,o),
(218,761,o),
(154,761,c),
(144,761,o),
(139,734,o),
(148,729,c),
(219,691,o),
(221,695,o)
);
},
{
closed = 1;
nodes = (
(237,369,l),
(315,369,ls),
(397,369,o),
(471,312,o),
(471,223,cs),
(471,93,o),
(374,54,o),
(268,54,cs),
(233,54,o),
(197,58,o),
(163,65,c)
);
},
{
closed = 1;
nodes = (
(321,702,l),
(417,712,o),
(518,687,o),
(518,571,cs),
(518,445,o),
(387,413,o),
(252,423,c)
);
}
);
width = 629;
},
{
anchors = (
{
name = bottom;
pos = (361,0);
},
{
name = center;
pos = (455,380);
},
{
name = top;
pos = (550,760);
}
);
layerId = m002;
shapes = (
{
closed = 1;
nodes = (
(198,605,c),
(81,155,l),
(63,85,o),
(51,89,o),
(-20,51,c),
(-29,46,o),
(-24,-1,o),
(-14,-1,c),
(50,-1,o),
(66,0,o),
(86,0,c),
(334,0,ls),
(495,0,o),
(647,77,o),
(647,228,cs),
(647,299,o),
(611,356,o),
(532,401,c),
(625,431,o),
(690,504,o),
(690,592,cs),
(690,679,o),
(623,760,o),
(494,760,cs),
(254,760,l),
(234,760,o),
(218,761,o),
(154,761,c),
(144,761,o),
(134,714,o),
(143,709,c),
(214,671,o),
(216,675,o)
);
},
{
closed = 1;
nodes = (
(307,359,l),
(345,359,ls),
(427,359,o),
(481,312,o),
(481,223,cs),
(481,93,o),
(374,74,o),
(318,74,cs),
(283,74,o),
(277,78,o),
(243,85,c)
);
},
{
closed = 1;
nodes = (
(381,682,l),
(437,692,o),
(526,687,o),
(516,571,cs),
(508,475,o),
(457,423,o),
(322,433,c)
);
}
);
width = 699;
},
{
anchors = (
{
name = bottom;
pos = (333,0);
},
{
name = center;
pos = (427,380);
},
{
name = top;
pos = (522,760);
}
);
layerId = "6BC31736-8C9F-4B37-B5D4-AA29B85DBE0C";
shapes = (
{
closed = 1;
nodes = (
(200,613,c),
(81,147,l),
(63,77,o),
(51,81,o),
(-20,43,c),
(-29,38,o),
(-24,-1,o),
(-14,-1,c),
(50,-1,o),
(66,0,o),
(86,0,c),
(306,0,ls),
(467,0,o),
(619,77,o),
(619,228,cs),
(619,299,o),
(583,356,o),
(504,401,c),
(597,431,o),
(662,504,o),
(662,592,cs),
(662,679,o),
(595,760,o),
(466,760,cs),
(254,760,l),
(234,760,o),
(218,761,o),
(154,761,c),
(144,761,o),
(136,722,o),
(145,717,c),
(216,679,o),
(218,683,o)
);
},
{
closed = 1;
nodes = (
(279,363,l),
(333,363,ls),
(415,363,o),
(477,312,o),
(477,223,cs),
(477,93,o),
(374,66,o),
(298,66,cs),
(263,66,o),
(245,70,o),
(211,77,c)
);
},
{
closed = 1;
nodes = (
(357,690,l),
(429,700,o),
(523,687,o),
(517,571,cs),
(512,463,o),
(429,419,o),
(294,429,c)
);
}
);
width = 671;
}
);
unicode = 66;
}
{
glyphname = C;
layers = (
{
anchors = (
{
name = bottom;
pos = (330,0);
},
{
name = top;
pos = (519,760);
}
);
background = {
shapes = (
{
closed = 1;
nodes = (
(739,565,l),
(704,760,l),
(704,760,l),
(634,723,o),
(602,767,o),
(477,770,cs),
(261,776,o),
(74,597,o),
(74,375,cs),
(74,131,o),
(259,-9,o),
(434,-9,cs),
(563,-9,o),
(667,45,o),
(754,145,c),
(719,179,l),
(499,-51,o),
(181,92,o),
(181,404,cs),
(181,597,o),
(311,712,o),
(449,712,cs),
(538,712,o),
(641,663,o),
(704,555,c)
);
}
);
};
layerId = m01;
shapes = (
{
closed = 1;
nodes = (
(663.474,545.408,o),
(705.474,555.408,o),
(702,570,c),
(695,730,l),
(438,845,o),
(130,697,o),
(73,375,cs),
(8,7,o),
(373,-151,o),
(642,145,c),
(651.857,156.307,o),
(612.857,190.307,o),
(603,179,c),
(382,-50,o),
(129,89,o),
(187,414,cs),
(231,664,o),
(572,873,o),
(660,560,c)
);
}
);
width = 729;
},
{
anchors = (
{
name = bottom;
pos = (330,0);
},
{
name = top;
pos = (519,760);
}
);
layerId = "6BC31736-8C9F-4B37-B5D4-AA29B85DBE0C";
shapes = (
{
closed = 1;
nodes = (
(651,539,o),
(705,555,o),
(702,570,c),
(695,730,l),
(438,845,o),
(130,697,o),
(73,375,cs),
(8,7,o),
(373,-151,o),
(642,145,c),
(652,156,o),
(607,202,o),
(597,191,c),
(376,-8,o),
(175,153,o),
(223,414,cs),
(269,662,o),
(488,831,o),
(648,554,c)
);
}
);
width = 729;
}
);
unicode = 67;
}
{
glyphname = D;
layers = (
{
anchors = (
{
name = bottom;
pos = (310,0);
},
{
name = center;
pos = (404,380);
},
{
name = top;
pos = (499,760);
}
);
layerId = m01;
shapes = (
{
closed = 1;
nodes = (
(181,0,l),
(505,0,o),
(717,190,o),
(717,436,cs),
(717,620,o),
(614,760,o),
(349,760,cs),
(221,760,l),
(201,760,o),
(185,761,o),
(121,761,c),
(111,761,o),
(106,734,o),
(115,729,c),
(186,691,o),
(187,695,o),
(170,625,cs),
(48,135,ls),
(31,65,o),
(18,69,o),
(-53,31,c),
(-62,26,o),
(-57,-1,o),
(-47,-1,c),
(17,-1,o),
(33,0,o),
(53,0,c)
);
},
{
closed = 1;
nodes = (
(298,697,l),
(401,715,o),
(607,699,o),
(607,421,cs),
(607,138,o),
(337,34,o),
(140,63,c),
(132,75,l),
(285,684,l)
);
}
);
width = 743;
},
{
anchors = (
{
name = bottom;
pos = (310,0);
},
{
name = center;
pos = (404,380);
},
{
name = top;
pos = (499,760);
}
);
layerId = "6BC31736-8C9F-4B37-B5D4-AA29B85DBE0C";
shapes = (
{
closed = 1;
nodes = (
(237,0,l),
(545,0,o),
(757,190,o),
(757,449,cs),
(757,620,o),
(654,760,o),
(405,760,cs),
(221,760,l),
(201,760,o),
(185,761,o),
(121,761,c),
(111,761,o),
(102,705,o),
(111,700,c),
(182,700,o),
(184,679,o),
(166,609,c),
(52,151,l),
(34,81,o),
(22,60,o),
(-49,60,c),
(-58,55,o),
(-57,-1,o),
(-47,-1,c),
(17,-1,o),
(33,0,o),
(53,0,c)
);
},
{
closed = 1;
nodes = (
(354,689,l),
(577,695,o),
(622,535,o),
(595,380,cs),
(558,123,o),
(365,67,o),
(196,79,c),
(197,78,l),
(353,688,l)
);
}
);
width = 773;
},
{
anchors = (
{
name = bottom;
pos = (310,0);
},
{
name = center;
pos = (404,380);
},
{
name = top;
pos = (499,760);
}
);
layerId = "ABF9DA73-21AD-4AF2-B0FF-D1BE084ED1D5";
shapes = (
{
closed = 1;
nodes = (
(237,0,l),
(545,0,o),
(757,190,o),
(757,449,cs),
(757,620,o),
(654,760,o),
(405,760,cs),
(221,760,l),
(201,760,o),
(185,761,o),
(121,761,c),
(111,761,o),
(102,705,o),
(111,700,c),
(182,700,o),
(184,679,o),
(166,609,c),
(52,151,l),
(34,81,o),
(22,60,o),
(-49,60,c),
(-58,55,o),
(-57,-1,o),
(-47,-1,c),
(17,-1,o),
(33,0,o),
(53,0,c)
);
},
{
closed = 1;
nodes = (
(354,689,l),
(577,695,o),
(622,535,o),
(595,380,cs),
(558,123,o),
(365,67,o),
(196,79,c),
(197,78,l),
(353,688,l)
);
}
);
width = 783;
}
);
unicode = 68;
}
{
glyphname = E;
layers = (
{
anchors = (
{
name = bottom;
pos = (269,0);
},
{
name = ogonek;
pos = (536,10);
},
{
name = top;
pos = (458,760);
},
{
name = topleft;
pos = (147,760);
}
);
background = {
shapes = (
{
closed = 0;
nodes = (
(130,760,l),
(130,-1,l)
);
},
{
closed = 1;
nodes = (
(595,-1,l),
(595,-1,l),
(631,179,l),
(598,193,l),
(531,83,o),
(517,55,o),
(375,55,cs),
(248,55,o),
(230,60,o),
(230,119,cs),
(230,365,l),
(364,365,l),
(429,365,o),
(426,359,o),
(461,296,c),
(465,289,o),
(490,293,o),
(490,302,c),
(490,358,o),
(489,372,o),
(489,393,cs),
(489,413,o),
(490,427,o),
(490,483,c),
(490,492,o),
(465,496,o),
(461,489,c),
(426,426,o),
(429,420,o),
(364,420,c),
(230,420,l),
(230,640,ls),
(230,699,o),
(248,704,o),
(375,704,cs),
(497,704,o),
(501,686,o),
(568,576,c),
(601,590,l),
(575,770,l),
(575,770,l),
(425,760,l),
(130,760,l),
(130,760,l),
(130,-1,l),
(130,-1,l)
);
}
);
};
layerId = m01;
shapes = (
{
closed = 1;
nodes = (
(227,430,l),
(213,375,l),
(364,375,ls),
(422,375,o),
(421,379,o),
(447,302,c),
(451,295,o),
(474,298,o),
(476,304,c),
(481,331,o),
(486,369,o),
(490,386,cs),
(495,409,ls),
(501,436,o),
(509,458,o),
(517,485,c),
(518,491,o),
(495,500,o),
(487,493,c),
(433,428,o),
(436,430,o),
(378,430,cs)
);
},
{
closed = 1;
nodes = (
(294,640,l),
(308,700,o),
(328,704,o),
(455,704,cs),
(537,704,o),
(566,686,o),
(606,576,c),
(611,562,o),
(647,576,o),
(642,590,c),
(641,750,l),
(631,760,l),
(241,760,l),
(221,760,o),
(205,761,o),
(141,761,c),
(131,761,o),
(126,734,o),
(135,729,c),
(206,691,o),
(208,695,o),
(190,625,c),
(68,134,l),
(50,64,o),
(38,68,o),
(-33,30,c),
(-42,25,o),
(-37,-2,o),
(-27,-2,c),
(37,-2,o),
(53,-1,o),
(73,-1,c),
(489,-1,l),
(503,9,l),
(580,179,l),
(585,193,o),
(546,207,o),
(541,193,c),
(446,83,o),
(435,60,o),
(293,60,cs),
(166,60,o),
(149,60,o),
(164,119,c)
);
}
);
width = 662;
}
);
unicode = 69;
}
{
glyphname = F;
layers = (
{
anchors = (
{
name = bottom;
pos = (254,0);
},
{
name = top;
pos = (443,760);
}
);
layerId = m01;
shapes = (
{
closed = 1;
nodes = (
(37,-1,o),
(53,0,o),
(73,0,c),
(117,0,l),
(137,0,o),
(153,-1,o),
(217,-1,c),
(227,-1,o),
(232,26,o),
(223,31,c),
(152,69,o),
(150,65,o),
(168,135,c),
(294,640,l),
(309,699,o),
(328,704,o),
(455,704,cs),
(577,704,o),
(576,686,o),
(616,576,c),
(618,561,o),
(654,565,o),
(652,580,c),
(661,750,l),
(651,760,l),
(241,760,l),
(221,760,o),
(205,761,o),
(141,761,c),
(131,761,o),
(126,734,o),
(135,729,c),
(206,691,o),
(208,695,o),
(190,625,c),
(68,135,l),
(50,65,o),
(38,69,o),
(-33,31,c),
(-42,26,o),
(-37,-1,o),
(-27,-1,c)
);
},
{
closed = 1;
nodes = (
(229,410,l),
(215,355,l),
(342,355,ls),
(400,355,o),
(429,359,o),
(455,282,c),
(459,275,o),
(482,278,o),
(484,284,c),
(489,311,o),
(494,349,o),
(498,366,cs),
(503,389,ls),
(509,416,o),
(517,438,o),
(525,465,c),
(526,471,o),
(503,480,o),
(495,473,c),
(441,408,o),
(414,410,o),
(356,410,cs)
);
}
);
width = 632;
},
{
anchors = (
{
name = bottom;
pos = (254,0);
},
{
name = top;
pos = (443,760);
}
);
background = {
shapes = (
{
closed = 1;
nodes = (
(73,0,l),
(117,0,l),
(137,0,o),
(153,-1,o),
(217,-1,c),
(227,-1,o),
(232,26,o),
(223,31,c),
(152,69,o),
(150,65,o),
(168,135,c),
(294,640,l),
(309,699,o),
(328,704,o),
(455,704,cs),
(577,704,o),
(576,686,o),
(616,576,c),
(618,561,o),
(654,565,o),
(652,580,c),
(661,750,l),
(651,760,l),
(241,760,l),
(221,760,o),
(205,761,o),
(141,761,c),
(131,761,o),
(126,734,o),
(135,729,c),
(206,691,o),
(208,695,o),
(190,625,c),
(68,135,l),
(50,65,o),
(38,69,o),
(-33,31,c),
(-42,26,o),
(-37,-1,o),
(-27,-1,c),
(37,-1,o),
(53,0,o),
(73,0,c)
);
},
{
closed = 1;
nodes = (
(372,355,ls),
(430,355,o),
(429,359,o),
(455,282,c),
(459,275,o),
(482,278,o),
(484,284,c),
(489,311,o),
(494,349,o),
(498,366,cs),
(503,389,ls),
(509,416,o),
(517,438,o),
(525,465,c),
(526,471,o),
(503,480,o),
(495,473,c),
(441,408,o),
(444,410,o),
(386,410,cs),
(229,410,l),
(215,355,l)
);
}
);
};
layerId = m002;
shapes = (
{
closed = 1;
nodes = (
(37,-1,o),
(53,0,o),
(73,0,c),
(187,0,l),
(207,0,o),
(223,-1,o),
(287,-1,c),
(297,-1,o),
(307,46,o),
(298,51,c),
(227,89,o),
(226,85,o),
(243,155,cs),
(357,612,ls),
(374,682,o),
(378,675,o),
(485,675,cs),
(527,675,o),
(596,686,o),
(636,576,c),
(641,562,o),
(697,576,o),
(692,590,c),
(691,750,l),
(681,760,l),
(241,760,l),
(221,760,o),
(205,761,o),
(141,761,c),
(131,761,o),
(121,714,o),
(130,709,c),
(201,671,o),
(202,675,o),
(185,605,cs),
(73,155,ls),
(56,85,o),
(43,89,o),
(-28,51,c),
(-37,46,o),
(-37,-1,o),
(-27,-1,c)
);
},
{
closed = 1;
nodes = (
(277,410,l),
(258,335,l),
(359,335,ls),
(417,335,o),
(446,339,o),
(472,262,c),
(476,255,o),
(519,258,o),
(521,264,c),
(526,291,o),
(531,329,o),
(535,346,cs),
(545,389,ls),
(551,416,o),
(559,438,o),
(567,465,c),
(568,471,o),
(525,480,o),
(517,473,c),
(463,408,o),
(436,410,o),
(378,410,cs)
);
}
);
width = 670;
},
{
anchors = (
{
name = bottom;
pos = (254,0);
},
{
name = top;
pos = (443,760);
}
);
layerId = "6BC31736-8C9F-4B37-B5D4-AA29B85DBE0C";
shapes = (
{
closed = 1;
nodes = (
(37,-1,o),
(53,0,o),
(73,0,c),
(159,0,l),
(179,0,o),
(195,-1,o),
(259,-1,c),
(269,-1,o),
(277,38,o),
(268,43,c),
(197,81,o),
(196,77,o),
(213,147,c),
(332,623,l),
(348,689,o),
(358,687,o),
(473,687,cs),
(547,687,o),
(588,686,o),
(628,576,c),
(632,562,o),
(680,572,o),
(676,586,c),
(679,750,l),
(669,760,l),
(241,760,l),
(221,760,o),
(205,761,o),
(141,761,c),
(131,761,o),
(123,722,o),
(132,717,c),
(203,679,o),
(204,683,o),
(187,613,c),
(71,147,l),
(54,77,o),
(41,81,o),
(-30,43,c),
(-39,38,o),
(-37,-1,o),
(-27,-1,c)
);
},
{
closed = 1;
nodes = (
(258,410,l),
(241,343,l),
(352,343,ls),
(410,343,o),
(439,347,o),
(465,270,c),
(469,263,o),
(504,266,o),
(506,272,c),
(511,299,o),
(516,337,o),
(520,354,cs),
(528,389,ls),
(534,416,o),
(542,438,o),
(550,465,c),
(551,471,o),
(516,480,o),
(508,473,c),
(454,408,o),
(427,410,o),
(369,410,cs)
);
}
);
width = 654.8;
}
);
unicode = 70;
}
{
glyphname = G;
layers = (
{
anchors = (
{
name = bottom;
pos = (299,0);
},
{
name = top;
pos = (488,760);
}
);
background = {
shapes = (
{
closed = 0;
nodes = (
(649,370,l),
(554,370,l)
);
},
{
closed = 1;
nodes = (
(476,60,l),
(585,115,l),
(649,370,l),
(649,370,l),
(554,370,l),
(554,370,l)
);
},
{
closed = 1;
nodes = (
(678,570,l),
(671,730,l),
(414,845,o),
(106,697,o),
(49,375,cs),
(-16,7,o),
(349,-151,o),
(628,145,c),
(589,179,l),
(358,-50,o),
(105,89,o),
(163,414,cs),
(207,664,o),
(548,873,o),
(636,560,c)
);
}
);
};
layerId = m01;
shapes = (
{
closed = 1;
nodes = (
(570,95,l),
(603,235,l),
(619,305,o),
(628,301,o),
(673,339,c),
(678,344,o),
(675,371,o),
(669,371,c),
(629,371,o),
(619,370,o),
(606,370,c),
(556,370,l),
(536,370,o),
(520,371,o),
(456,371,c),
(445,371,o),
(440,344,o),
(449,339,c),
(520,301,o),
(522,305,o),
(504,236,c),
(458,60,l)
);
},
{
closed = 1;
nodes = (
(642.474,545.408,o),
(684.474,555.408,o),
(681,570,c),
(677,730,l),
(422,845,o),
(112,697,o),
(49,375,cs),
(-22,7,o),
(320,-121,o),
(570,95,c),
(575,159,l),
(341,-40,o),
(100,89,o),
(164,414,cs),
(212,664,o),
(547,873,o),
(639,560,c)
);
}
);
width = 722;
},
{
anchors = (
{
name = bottom;
pos = (299,0);
},
{
name = top;
pos = (488,760);
}
);
background = {
shapes = (
{
closed = 1;
nodes = (
(590,95,l),
(618,215,ls),
(634,285,o),
(643,281,o),
(688,319,c),
(698,329,o),
(695,371,o),
(689,371,c),
(649,371,o),
(639,370,o),
(626,370,c),
(526,370,l),
(506,370,o),
(510,371,o),
(476,371,c),
(465,371,o),
(455,324,o),
(464,319,c),
(505,281,o),
(507,285,o),
(489,216,cs),
(448,60,l)
);
},
{
closed = 1;
nodes = (
(623,545,o),
(685,555,o),
(682,570,c),
(675,730,l),
(418,845,o),
(110,697,o),
(53,375,cs),
(-12,7,o),
(343,-121,o),
(590,95,c),
(593,149,l),
(372,-30,o),
(179,199,o),
(237,414,cs),
(304,661,o),
(442,803,o),
(620,560,c)
);
}
);
};
layerId = m002;
shapes = (
{
closed = 1;
nodes = (
(590,95,l),
(618,215,ls),
(634,285,o),
(643,281,o),
(688,319,c),
(698,329,o),
(695,371,o),
(689,371,c),
(649,371,o),
(639,370,o),
(626,370,c),
(526,370,l),
(506,370,o),
(510,371,o),
(476,371,c),
(465,371,o),
(455,324,o),
(464,319,c),
(505,281,o),
(507,285,o),
(489,216,cs),
(448,60,l)
);
},
{
closed = 1;
nodes = (
(623,535,o),
(685,555,o),
(682,570,c),
(675,730,l),
(418,845,o),
(110,697,o),
(53,375,cs),
(-12,7,o),
(353,-121,o),
(590,95,c),
(531,119,l),
(352,20,o),
(185,195,o),
(227,414,cs),
(274,661,o),
(452,803,o),
(620,550,c)
);
}
);
width = 722;
}
);
unicode = 71;
}
{
glyphname = H;
layers = (
{
anchors = (
{
name = bottom;
pos = (347,0);
},
{
name = center;
pos = (441,380);
},
{
name = top;
pos = (536,760);
},
{
name = topleft;
pos = (147,760);
}
);
layerId = m01;
shapes = (
{
closed = 1;
nodes = (
(170,625,l),
(48,135,l),
(30,65,o),
(18,69,o),
(-53,31,c),
(-62,26,o),
(-57,-1,o),
(-47,-1,c),
(17,-1,o),
(33,0,o),
(53,0,c),
(97,0,l),
(117,0,o),
(133,-1,o),
(197,-1,c),
(207,-1,o),
(212,26,o),
(203,31,c),
(132,69,o),
(130,65,o),
(148,135,c),
(270,625,l),
(288,695,o),
(300,691,o),
(371,729,c),
(380,734,o),
(375,761,o),
(365,761,c),
(301,761,o),
(285,760,o),
(265,760,c),
(221,760,l),
(201,760,o),
(185,761,o),
(121,761,c),
(111,761,o),
(106,734,o),
(115,729,c),
(186,691,o),
(188,695,o),
(170,625,c)
);
},
{
closed = 1;
nodes = (
(630,625,l),
(508,135,l),
(490,65,o),
(478,69,o),
(407,31,c),
(398,26,o),
(403,-1,o),
(413,-1,c),
(477,-1,o),
(493,0,o),
(513,0,c),
(557,0,l),
(577,0,o),
(593,-1,o),
(657,-1,c),
(667,-1,o),
(672,26,o),
(663,31,c),
(592,69,o),
(590,65,o),
(608,135,c),
(730,625,l),
(748,695,o),
(760,691,o),
(831,729,c),
(840,734,o),
(835,761,o),
(825,761,c),
(761,761,o),
(745,760,o),
(725,760,c),
(681,760,l),
(661,760,o),
(645,761,o),
(581,761,c),
(571,761,o),
(566,734,o),
(575,729,c),
(646,691,o),
(648,695,o),
(630,625,c)
);
},
{
closed = 1;
nodes = (
(151,365,l),
(601,365,l),
(615,420,l),
(165,420,l)
);
}
);
width = 818;
},
{
anchors = (
{
name = bottom;
pos = (347,0);
},
{
name = center;
pos = (441,380);
},
{
name = top;
pos = (536,760);
},
{
name = topleft;
pos = (147,760);
}
);
layerId = "6BC31736-8C9F-4B37-B5D4-AA29B85DBE0C";
shapes = (
{
closed = 1;
nodes = (
(167,613,l),
(51,147,l),
(33,77,o),
(21,81,o),
(-50,43,c),
(-59,38,o),
(-57,-1,o),
(-47,-1,c),
(17,-1,o),
(33,0,o),
(53,0,c),
(133,0,l),
(153,0,o),
(169,-1,o),
(233,-1,c),
(243,-1,o),
(251,38,o),
(242,43,c),
(171,81,o),
(169,77,o),
(187,147,c),
(303,613,l),
(321,683,o),
(333,679,o),
(404,717,c),
(413,722,o),
(411,761,o),
(401,761,c),
(337,761,o),
(321,760,o),
(301,760,c),
(221,760,l),
(201,760,o),
(185,761,o),
(121,761,c),
(111,761,o),
(103,722,o),
(112,717,c),
(183,679,o),
(185,683,o),
(167,613,c)
);
},
{
closed = 1;
nodes = (
(627,613,l),
(511,147,l),
(493,77,o),
(481,81,o),
(410,43,c),
(401,38,o),
(403,-1,o),
(413,-1,c),
(477,-1,o),
(493,0,o),
(513,0,c),
(593,0,l),
(613,0,o),
(629,-1,o),
(693,-1,c),
(703,-1,o),
(711,38,o),
(702,43,c),
(631,81,o),
(629,77,o),
(647,147,c),
(763,613,l),
(781,683,o),
(793,679,o),
(864,717,c),
(873,722,o),
(871,761,o),
(861,761,c),
(797,761,o),
(781,760,o),
(761,760,c),
(681,760,l),
(661,760,o),
(645,761,o),
(581,761,c),
(571,761,o),
(563,722,o),
(572,717,c),
(643,679,o),
(645,683,o),
(627,613,c)
);
},
{
closed = 1;
nodes = (
(151,353,l),
(601,353,l),
(615,420,l),
(165,420,l)
);
}
);
width = 854;
}
);
unicode = 72;
}
{
glyphname = I;
layers = (
{
anchors = (
{
name = bottom;
pos = (97,0);
},
{
name = ogonek;
pos = (226,10);
},
{
name = top;
pos = (286,760);
},
{
name = topleft;
pos = (147,760);
}
);
layerId = m01;
shapes = (
{
closed = 1;
nodes = (
(170,625,l),
(48,135,l),
(30,65,o),
(18,69,o),
(-53,31,c),
(-62,26,o),
(-57,-1,o),
(-47,-1,c),
(17,-1,o),
(33,0,o),
(53,0,c),
(97,0,l),
(117,0,o),
(133,-1,o),
(197,-1,c),
(207,-1,o),
(212,26,o),
(203,31,c),
(132,69,o),
(130,65,o),
(148,135,c),
(270,625,l),
(288,695,o),
(300,691,o),
(371,729,c),
(380,734,o),
(375,761,o),
(365,761,c),
(301,761,o),
(285,760,o),
(265,760,c),
(221,760,l),
(201,760,o),
(185,761,o),
(121,761,c),
(111,761,o),
(106,734,o),
(115,729,c),
(186,691,o),
(188,695,o),
(170,625,c)
);
}
);
width = 318;
},
{
anchors = (
{
name = bottom;
pos = (-179,0);
},
{
name = ogonek;
pos = (-50,10);
},
{
name = top;
pos = (10,760);
},
{
name = topleft;
pos = (-129,760);
}
);
layerId = "6BC31736-8C9F-4B37-B5D4-AA29B85DBE0C";
shapes = (
{
closed = 1;
nodes = (
(167,613,l),
(51,147,l),
(33,77,o),
(21,81,o),
(-50,43,c),
(-59,38,o),
(-57,-1,o),
(-47,-1,c),
(17,-1,o),
(33,0,o),
(53,0,c),
(133,0,l),
(153,0,o),
(169,-1,o),
(233,-1,c),
(243,-1,o),
(251,38,o),
(242,43,c),
(171,81,o),
(169,77,o),
(187,147,c),
(303,613,l),
(321,683,o),
(333,679,o),
(404,717,c),
(413,722,o),
(411,761,o),
(401,761,c),
(337,761,o),
(321,760,o),
(301,760,c),
(221,760,l),
(201,760,o),
(185,761,o),
(121,761,c),
(111,761,o),
(103,722,o),
(112,717,c),
(183,679,o),
(185,683,o),
(167,613,c)
);
}
);
width = 354;
}
);
unicode = 73;
}
{
glyphname = J;
layers = (
{
anchors = (
{
name = bottom;
pos = (97,0);
},
{
name = top;
pos = (286,760);
}
);
background = {
shapes = (
{
closed = 0;
nodes = (
(209,760,l),
(109,760,l)
);
},
{
closed = 1;
nodes = (
(109,125,ls),
(109,3,o),
(82,-44,o),
(-10,-142,c),
(-19,-152,o),
(6,-181,o),
(20,-173,c),
(166,-67,o),
(209,-32,o),
(209,160,cs),
(209,760,l),
(209,760,l),
(109,760,l),
(109,760,l)
);
}
);
};
layerId = m01;
shapes = (
{
closed = 1;
nodes = (
(193,648,o),
(1,869,o),
(-129,683,cs),
(-141,666,o),
(-110,643,o),
(-95,656,cs),
(-18,724,o),
(73,615,o),
(199,661,c),
(129,586,o),
(78,529,o),
(49,412,cs),
(14,274,o),
(9,149,o),
(-30,-6,cs),
(-49,-86,o),
(-73,-177,o),
(-159,-181,cs),
(-242,-185,o),
(-301,-125,o),
(-324,-185,cs),
(-346,-243,o),
(-280,-264,o),
(-218,-264,cs),
(-123,-264,o),
(35,-158,o),
(84,29,cs),
(126,190,o),
(128,324,o),
(164,469,cs),
(194,591,o),
(236,643,o),
(324,721,c),
(346,742,ls),
(355,751,o),
(321,776,o),
(312,767,cs)
);
},
{
closed = 1;
nodes = (
(241,360,l),
(256,360,o),
(256,410,o),
(241,410,c),
(-69,410,l),
(-84,410,o),
(-84,360,o),
(-69,360,c)
);
}
);
width = 318;
}
);
unicode = 74;
}
{
glyphname = K;
layers = (
{
anchors = (
{
name = bottom;
pos = (297,0);
},
{
name = top;
pos = (486,760);
}
);
layerId = m01;
shapes = (
{
closed = 1;
nodes = (
(170,625,l),
(48,135,l),
(30,65,o),
(18,69,o),
(-53,31,c),
(-62,26,o),
(-57,-1,o),
(-47,-1,c),
(17,-1,o),
(33,0,o),
(53,0,c),
(97,0,l),
(117,0,o),
(133,-1,o),
(197,-1,c),
(207,-1,o),
(212,26,o),
(203,31,c),
(132,69,o),
(130,65,o),
(148,135,c),
(270,625,l),
(288,695,o),
(300,691,o),
(371,729,c),
(380,734,o),
(375,761,o),
(365,761,c),
(301,761,o),
(285,760,o),
(265,760,c),
(221,760,l),
(201,760,o),
(185,761,o),
(121,761,c),
(111,761,o),
(106,734,o),
(115,729,c),
(186,691,o),
(188,695,o),
(170,625,c)
);
},
{
closed = 1;
nodes = (
(304,465,l),
(233,399,l),
(435,0,l),
(503,0,l),
(523,0,o),
(539,-1,o),
(603,-1,c),
(614,-1,o),
(618,26,o),
(610,31,c),
(538,69,o),
(521,63,o),
(487,126,c)
);
},
{
closed = 1;
nodes = (
(529,620,ls),
(631,700,o),
(652,701,o),
(731,729,c),
(740,734,o),
(743,761,o),
(732,761,c),
(668,761,o),
(652,760,o),
(632,760,c),
(602,760,l),
(582,760,o),
(566,761,o),
(502,761,c),
(492,761,o),
(480,734,o),
(488,729,c),
(543,695,o),
(516,679,o),
(403,587,cs),
(149,380,l),
(131,307,l)
);
}
);
width = 717;
},
{
anchors = (
{
name = bottom;
pos = (297,0);
},
{
name = top;
pos = (486,760);
}
);
layerId = "6BC31736-8C9F-4B37-B5D4-AA29B85DBE0C";
shapes = (
{
closed = 1;
nodes = (
(167,613,l),
(51,147,l),
(33,77,o),
(21,81,o),
(-50,43,c),
(-59,38,o),
(-57,-1,o),
(-47,-1,c),
(17,-1,o),
(33,0,o),
(53,0,c),
(133,0,l),
(153,0,o),
(169,-1,o),
(233,-1,c),
(243,-1,o),
(251,38,o),
(242,43,c),
(171,81,o),
(169,77,o),
(187,147,c),
(303,613,l),
(321,683,o),
(333,679,o),
(404,717,c),
(413,722,o),
(411,761,o),
(401,761,c),
(337,761,o),
(321,760,o),
(301,760,c),
(221,760,l),
(201,760,o),
(185,761,o),
(121,761,c),
(111,761,o),
(103,722,o),
(112,717,c),
(183,679,o),
(185,683,o),
(167,613,c)
);
},
{
closed = 1;
nodes = (
(358,465,l),
(251,399,l),
(453,0,l),
(557,0,l),
(577,0,o),
(593,-1,o),
(657,-1,c),
(668,-1,o),
(672,38,o),
(664,43,c),
(592,81,o),
(575,75,o),
(541,138,c)
);
},
{
closed = 1;
nodes = (
(583,608,ls),
(686,688,o),
(706,689,o),
(785,717,c),
(794,722,o),
(797,761,o),
(786,761,c),
(722,761,o),
(706,760,o),
(686,760,c),
(626,760,l),
(606,760,o),
(590,761,o),
(526,761,c),
(516,761,o),
(504,722,o),
(512,717,c),
(567,683,o),
(528,668,o),
(433,587,cs),
(203,392,l),
(197,307,l)
);
}
);
width = 769.8;
}
);
unicode = 75;
}
{
glyphname = L;
layers = (
{
anchors = (
{
name = bottom;
pos = (259,0);
},
{
name = center;
pos = (353,380);
},
{
name = top;
pos = (448,760);
},
{
name = topright;
pos = (749,760);
}
);
layerId = m01;
shapes = (
{
closed = 1;
nodes = (
(470,-1,l),
(484,9,l),
(561,179,l),
(566,193,o),
(527,207,o),
(522,193,c),
(427,83,o),
(406,55,o),
(284,55,cs),
(157,55,o),
(150,60,o),
(165,119,cs),
(291,625,ls),
(308,695,o),
(322,691,o),
(402,729,c),
(412,734,o),
(407,761,o),
(395,761,c),
(323,761,o),
(305,760,o),
(283,760,c),
(242,760,l),
(222,760,o),
(206,761,o),
(142,761,c),
(132,761,o),
(127,734,o),
(136,729,c),
(207,691,o),
(208,695,o),
(191,625,cs),
(69,134,l),
(51,64,o),
(39,68,o),
(-32,30,c),
(-41,25,o),
(-36,-2,o),
(-26,-2,c),
(38,-2,o),
(54,-1,o),
(74,-1,c)
);
}
);
width = 642;
},
{
anchors = (
{
name = bottom;
pos = (266,0);
},
{
name = center;
pos = (360,380);
},
{
name = top;
pos = (455,760);
},
{
name = topright;
pos = (756,760);
}
);
layerId = m002;
shapes = (
{
closed = 1;
nodes = (
(499,0,l),
(513,10,l),
(594,170,l),
(606,184,o),
(557,218,o),
(545,204,c),
(450,94,o),
(357,85,o),
(315,85,cs),
(238,85,o),
(231,78,o),
(248,148,cs),
(362,605,ls),
(379,675,o),
(379,671,o),
(469,709,c),
(481,714,o),
(474,761,o),
(464,761,c),
(400,761,o),
(383,760,o),
(363,760,c),
(249,760,l),
(229,760,o),
(214,761,o),
(150,761,c),
(140,761,o),
(137,714,o),
(143,709,c),
(195,671,o),
(210,675,o),
(192,605,cs),
(80,162,ls),
(62,92,o),
(53,96,o),
(-37,58,c),
(-49,53,o),
(-42,-1,o),
(-32,-1,c),
(32,-1,o),
(39,0,o),
(59,0,c)
);
}
);
width = 678;
}
);
unicode = 76;
}
{
glyphname = M;
layers = (
{
anchors = (
{
name = bottom;
pos = (437,0);
},
{
name = top;
pos = (626,760);
}
);
layerId = m01;
shapes = (
{
closed = 1;
nodes = (
(383,-34,o),
(427,-39,o),
(439,-18,cs),
(889,760,l),
(809,760,l),
(471,170,l),
(409,760,l),
(293,760,l),
(381,-15,l)
);
},
{
closed = 1;
nodes = (
(141,133,c),
(351,760,l),
(298,760,l),
(278,760,o),
(262,761,o),
(198,761,c),
(188,761,o),
(183,734,o),
(192,729,c),
(263,691,o),
(263,695,o),
(239,628,c),
(63,132,l),
(39,65,o),
(24,69,o),
(-47,31,c),
(-56,26,o),
(-51,-1,o),
(-40,-1,c),
(24,-1,o),
(40,0,o),
(60,0,c),
(83,0,l),
(103,0,o),
(119,-1,o),
(183,-1,c),
(193,-1,o),
(198,26,o),
(189,31,c),
(118,69,o),
(118,65,o)
);
},
{
closed = 1;
nodes = (
(885,760,l),
(829,760,l),
(731,136,l),
(719,66,o),
(709,69,o),
(638,31,c),
(629,26,o),
(634,-1,o),
(644,-1,c),
(708,-1,o),
(724,0,o),
(744,0,c),
(787,0,l),
(807,0,o),
(823,-1,o),
(887,-1,c),
(898,-1,o),
(903,26,o),
(894,31,c),
(823,69,o),
(819,66,o),
(829,137,c),
(899,623,l),
(909,694,o),
(920,691,o),
(991,729,c),
(1000,734,o),
(995,761,o),
(985,761,c),
(921,761,o),
(905,760,o),
(885,760,c)
);
}
);
width = 997;
},
{
anchors = (
{
name = bottom;
pos = (449,0);
},
{
name = top;
pos = (638,760);
}
);
layerId = "6BC31736-8C9F-4B37-B5D4-AA29B85DBE0C";
shapes = (
{
closed = 1;
nodes = (
(383,-34,o),
(443,-39,o),
(455,-18,cs),
(905,760,l),
(809,760,l),
(514,218,l),
(449,760,l),
(293,760,l),
(381,-15,l)
);
},
{
closed = 1;
nodes = (
(161,149,c),
(367,760,l),
(314,760,l),
(278,760,o),
(262,761,o),
(198,761,c),
(188,761,o),
(179,698,o),
(188,693,c),
(259,693,o),
(265,695,o),
(235,612,cs),
(67,148,l),
(43,81,o),
(28,67,o),
(-43,67,c),
(-52,62,o),
(-51,-1,o),
(-40,-1,c),
(24,-1,o),
(40,0,o),
(60,0,c),
(99,0,l),
(119,0,o),
(145,-1,o),
(209,-1,c),
(219,-1,o),
(218,62,o),
(209,67,c),
(138,67,o),
(138,81,o)
);
},
{
closed = 1;
nodes = (
(901,760,l),
(845,760,l),
(751,152,l),
(739,82,o),
(729,67,o),
(658,67,c),
(649,62,o),
(650,-1,o),
(660,-1,c),
(724,-1,o),
(740,0,o),
(760,0,c),
(859,0,l),
(879,0,o),
(904,-1,o),
(968,-1,c),
(979,-1,o),
(979,62,o),
(970,67,c),
(899,67,o),
(895,82,o),
(905,153,c),
(967,607,l),
(977,678,o),
(988,693,o),
(1059,693,c),
(1068,698,o),
(1067,761,o),
(1057,761,c),
(993,761,o),
(921,760,o),
(901,760,c)
);
}
);
width = 1051;
},
{
anchors = (
{
name = bottom;
pos = (453,0);
},
{
name = top;
pos = (642,760);
}
);
layerId = "ABF9DA73-21AD-4AF2-B0FF-D1BE084ED1D5";
shapes = (
{
closed = 1;
nodes = (
(383,-34,o),
(443,-39,o),
(455,-18,cs),
(905,760,l),
(809,760,l),
(514,218,l),
(449,760,l),
(293,760,l),
(381,-15,l)
);
},
{
closed = 1;
nodes = (
(161,149,c),
(367,760,l),
(314,760,l),
(278,760,o),
(262,761,o),
(198,761,c),
(188,761,o),
(179,718,o),
(188,713,c),
(259,675,o),
(259,679,o),
(235,612,c),
(67,148,l),
(43,81,o),
(28,85,o),
(-43,47,c),
(-52,42,o),
(-51,-1,o),
(-40,-1,c),
(24,-1,o),
(40,0,o),
(60,0,c),
(99,0,l),
(119,0,o),
(135,-1,o),
(199,-1,c),
(209,-1,o),
(218,42,o),
(209,47,c),
(138,85,o),
(138,81,o)
);
},
{
closed = 1;
nodes = (
(901,760,l),
(845,760,l),
(751,152,l),
(739,82,o),
(729,85,o),
(658,47,c),
(649,42,o),
(650,-1,o),
(660,-1,c),
(724,-1,o),
(740,0,o),
(760,0,c),
(859,0,l),
(879,0,o),
(895,-1,o),
(959,-1,c),
(970,-1,o),
(979,42,o),
(970,47,c),
(899,85,o),
(895,82,o),
(905,153,c),
(967,607,l),
(977,678,o),
(988,675,o),
(1059,713,c),
(1068,718,o),
(1067,761,o),
(1057,761,c),
(993,761,o),
(921,760,o),
(901,760,c)
);
}
);
width = 1069;
}
);
unicode = 77;
}
{
glyphname = N;
layers = (
{
anchors = (
{
name = bottom;
pos = (342,0);
},
{
name = top;
pos = (531,760);
}
);
layerId = m01;
shapes = (
{
closed = 1;
nodes = (
(680,625,l),
(574,170,l),
(267,760,l),
(224,760,l),
(204,760,o),
(188,761,o),
(124,761,c),
(114,761,o),
(109,734,o),
(118,729,c),
(189,691,o),
(191,695,o),
(173,625,c),
(51,135,l),
(33,65,o),
(21,69,o),
(-50,31,c),
(-59,26,o),
(-54,-1,o),
(-44,-1,c),
(20,-1,o),
(36,0,o),
(56,0,c),
(74,0,l),
(94,0,o),
(110,-1,o),
(174,-1,c),
(185,-1,o),
(189,26,o),
(181,31,c),
(109,69,o),
(107,65,o),
(124,135,c),
(232,600,l),
(539,-10,l),
(541,-25,o),
(603,-15,o),
(601,0,c),
(636,160,l),
(752,625,l),
(770,695,o),
(782,691,o),
(853,729,c),
(862,734,o),
(857,761,o),
(847,761,c),
(783,761,o),
(767,760,o),
(747,760,c),
(729,760,l),
(709,760,o),
(693,761,o),
(629,761,c),
(618,761,o),
(614,734,o),
(622,729,c),
(694,691,o),
(696,695,o),
(680,625,c)
);
}
);
width = 808;
},
{
anchors = (
{
name = bottom;
pos = (342,0);
},
{
name = top;
pos = (531,760);
}
);
layerId = "6BC31736-8C9F-4B37-B5D4-AA29B85DBE0C";
shapes = (
{
closed = 1;
nodes = (
(689,613,l),
(598,218,l),
(279,760,l),
(224,760,l),
(204,760,o),
(188,761,o),
(124,761,c),
(114,761,o),
(106,722,o),
(115,717,c),
(186,679,o),
(185,683,o),
(167,613,c),
(51,147,l),
(32,77,o),
(23,81,o),
(-47,43,c),
(-56,38,o),
(-54,-1,o),
(-44,-1,c),
(20,-1,o),
(36,0,o),
(56,0,c),
(86,0,l),
(106,0,o),
(122,-1,o),
(186,-1,c),
(197,-1,o),
(204,38,o),
(196,43,c),
(123,81,o),
(121,77,o),
(139,147,c),
(232,552,l),
(551,-10,l),
(553,-25,o),
(627,-15,o),
(625,0,c),
(663,160,l),
(776,613,l),
(794,683,o),
(803,679,o),
(874,717,c),
(883,722,o),
(881,761,o),
(871,761,c),
(807,761,o),
(791,760,o),
(771,760,c),
(741,760,l),
(721,760,o),
(705,761,o),
(641,761,c),
(630,761,o),
(623,722,o),
(631,717,c),
(703,679,o),
(705,683,o),
(689,613,c)
);
}
);
width = 808;
}
);
unicode = 78;
}
{
glyphname = O;
layers = (
{
anchors = (
{
name = bottom;
pos = (345,0);
},
{
name = center;
pos = (439,380);
},
{
name = ogonek;
pos = (673,10);
},
{
name = top;
pos = (534,760);
},
{
name = topleft;
pos = (147,760);
},
{
name = topright;
pos = (921,760);
}
);
background = {
shapes = (
{
closed = 1;
nodes = (
(688,570,l),
(688,570,l),
(681,730,l),
(424,845,o),
(116,697,o),
(59,375,cs),
(-6,7,o),
(359,-151,o),
(638,145,c),
(599,179,l),
(599,179,l),
(368,-50,o),
(115,89,o),
(173,414,cs),
(217,664,o),
(558,873,o),
(646,560,c)
);
}
);
};
layerId = m01;
shapes = (
{
closed = 1;
nodes = (
(592,-13,o),
(790,222,o),
(790,449,cs),
(790,614,o),
(682,765,o),
(503,769,cs),
(248,773,o),
(50,538,o),
(50,311,cs),
(50,116,o),
(158,-5,o),
(337,-9,cs)
);
},
{
closed = 1;
nodes = (
(258,65,o),
(164,145,o),
(164,316,cs),
(164,483,o),
(250,706,o),
(462,699,cs),
(583,695,o),
(677,615,o),
(677,444,cs),
(677,277,o),
(591,54,o),
(379,61,cs)
);
}
);
width = 814;
}
);
unicode = 79;
}
{
glyphname = P;
layers = (
{
anchors = (
{
name = bottom;
pos = (253,0);
},
{
name = top;
pos = (442,760);
}
);
layerId = m01;
shapes = (
{
closed = 1;
nodes = (
(53,0,l),
(97,0,l),
(117,0,o),
(133,-1,o),
(197,-1,c),
(207,-1,o),
(212,26,o),
(203,31,c),
(132,69,o),
(130,65,o),
(148,135,c),
(189,300,l),
(424,277,o),
(582,347,o),
(623,512,cs),
(645,603,o),
(603,760,o),
(381,760,cs),
(221,760,l),
(201,760,o),
(185,761,o),
(121,761,c),
(111,761,o),
(106,734,o),
(115,729,c),
(186,691,o),
(188,695,o),
(170,625,c),
(48,135,l),
(30,65,o),
(18,69,o),
(-53,31,c),
(-62,26,o),
(-57,-1,o),
(-47,-1,c),
(17,-1,o),
(33,0,o),
(53,0,c)
);
},
{
closed = 1;
nodes = (
(288,695,l),
(423,730,o),
(551,645,o),
(513,492,cs),
(483,372,o),
(388,325,o),
(207,370,c)
);
}
);
width = 630;
},
{
anchors = (
{
name = bottom;
pos = (296,0);
},
{
name = top;
pos = (485,760);
}
);
layerId = "6BC31736-8C9F-4B37-B5D4-AA29B85DBE0C";
shapes = (
{
closed = 1;
nodes = (
(54,0,l),
(140,0,l),
(160,0,o),
(176,-1,o),
(240,-1,c),
(250,-1,o),
(258,38,o),
(249,43,c),
(178,81,o),
(176,77,o),
(194,147,c),
(232,300,l),
(467,277,o),
(625,347,o),
(666,512,cs),
(688,603,o),
(646,760,o),
(424,760,cs),
(222,760,l),
(202,760,o),
(186,761,o),
(122,761,c),
(112,761,o),
(104,722,o),
(113,717,c),
(184,679,o),
(186,683,o),
(168,613,c),
(52,147,l),
(34,77,o),
(22,81,o),
(-49,43,c),
(-58,38,o),
(-56,-1,o),
(-46,-1,c),
(18,-1,o),
(34,0,o),
(54,0,c)
);
},
{
closed = 1;
nodes = (
(328,683,l),
(463,718,o),
(552,645,o),
(514,492,cs),
(484,372,o),
(386,343,o),
(253,382,c)
);
}
);
width = 672.6;
}
);
unicode = 80;
}
{
glyphname = Q;
layers = (
{
anchors = (
{
name = bottom;
pos = (378,0);
},
{
name = top;
pos = (567,760);
}
);
layerId = m01;
shapes = (
{
closed = 1;
nodes = (
(260,44,l),
(560,-149,o),
(574,-211,o),
(775,-108,c),
(788.347,-101.155,o),
(768.347,-62.155,o),
(755,-69,c),
(649,-111,o),
(638,-100,o),
(366,92,c)
);
},
{
closed = 1;
nodes = (
(592,-13,o),
(790,222,o),
(790,449,cs),
(790,614,o),
(682,765,o),
(503,769,cs),
(248,773,o),
(50,538,o),
(50,311,cs),
(50,116,o),
(158,-5,o),
(337,-9,cs)
);
},
{
closed = 1;
nodes = (
(258,65,o),
(164,145,o),
(164,316,cs),
(164,483,o),
(250,706,o),
(462,699,cs),
(583,695,o),
(677,615,o),
(677,444,cs),
(677,277,o),
(591,54,o),
(379,61,cs)
);
}
);
width = 880;
},
{
anchors = (
{
name = bottom;
pos = (378,0);
},
{
name = top;
pos = (567,760);
}
);
layerId = "6BC31736-8C9F-4B37-B5D4-AA29B85DBE0C";
shapes = (
{
closed = 1;
nodes = (
(280,52,l),
(608,-161,o),
(634,-235,o),
(853,-102,c),
(866,-94,o),
(837,-43,o),
(824,-51,c),
(709,-105,o),
(680,-82,o),
(404,120,c)
);
},
{
closed = 1;
nodes = (
(580,-16,o),
(781,199,o),
(797,418,cs),
(810,592,o),
(705,759,o),
(511,767,cs),
(268,776,o),
(67,561,o),
(52,342,cs),
(36,139,o),
(146,1,o),
(337,-7,cs)
);
},
{
closed = 1;
nodes = (
(247,69,o),
(198,190,o),
(207,332,cs),
(213,454,o),
(276,706,o),
(473,697,cs),
(591,691,o),
(652,574,o),
(643,428,cs),
(637,312,o),
(573,55,o),
(376,63,cs)
);
}
);
width = 848.8;
},
{
anchors = (
{
name = bottom;
pos = (378,0);
},
{
name = top;
pos = (567,760);
}
);
layerId = "ABF9DA73-21AD-4AF2-B0FF-D1BE084ED1D5";
shapes = (
{
closed = 1;
nodes = (
(287,55,l),
(624,-165,o),
(654,-243,o),
(879,-100,c),
(892,-92,o),
(860,-37,o),
(847,-45,c),
(729,-103,o),
(694,-76,o),
(417,129,c)
);
},
{
closed = 1;
nodes = (
(576,-17,o),
(778,191,o),
(799,408,cs),
(817,585,o),
(713,757,o),
(514,766,cs),
(275,777,o),
(73,569,o),
(53,352,cs),
(31,147,o),
(142,3,o),
(337,-6,cs)
);
},
{
closed = 1;
nodes = (
(243,70,o),
(209,205,o),
(221,337,cs),
(229,444,o),
(285,706,o),
(477,696,cs),
(594,690,o),
(644,560,o),
(632,423,cs),
(624,324,o),
(567,55,o),
(375,64,cs)
);
}
);
width = 838.4;
}
);
metricWidth = "=O";
unicode = 81;
}
{
glyphname = R;
layers = (
{
anchors = (
{
name = bottom;
pos = (280,0);
},
{
name = top;
pos = (469,760);
}
);
background = {
shapes = (
{
closed = 0;
nodes = (
(109,760,l),
(109,0,l)
);
},
{
closed = 1;
nodes = (
(209,0,l),
(209,0,l),
(209,320,l),
(387,297,o),
(580,377,o),
(580,534,cs),
(580,650,o),
(518,760,o),
(316,760,cs),
(109,760,l),
(109,760,l),
(109,0,l),
(109,0,l)
);
},
{
closed = 1;
nodes = (
(635,0,l),
(635,0,l),
(425,360,l),
(322,360,l),
(515,0,l)
);
},
{
closed = 1;
nodes = (
(209,695,l),
(358,720,o),
(475,673,o),
(475,530,cs),
(475,392,o),
(346,350,o),
(209,390,c)
);
}
);
};
layerId = m01;
shapes = (
{
closed = 1;
nodes = (
(167,322,l),
(414,294,o),
(581,342,o),
(623,512,cs),
(645,603,o),
(603,760,o),
(381,760,cs),
(221,760,l),
(201,760,o),
(185,761,o),
(121,761,c),
(111,761,o),
(106,734,o),
(115,729,c),
(186,691,o),
(188,695,o),
(170,625,c),
(48,135,l),
(30,65,o),
(18,69,o),
(-53,31,c),
(-62,26,o),
(-57,-1,o),
(-47,-1,c),
(17,-1,o),
(33,0,o),
(53,0,c),
(97,0,l),
(117,0,o),
(133,-1,o),
(197,-1,c),
(207,-1,o),
(212,26,o),
(203,31,c),
(132,69,o),
(130,65,o),
(148,135,c),
(288,695,l),
(423,730,o),
(551,645,o),
(513,492,cs),
(482,367,o),
(350,353,o),
(183,396,c)
);
},
{
closed = 1;
nodes = (
(526,0,l),
(541,0,o),
(553,-1,o),
(601,-1,c),
(609,-1,o),
(612,24,o),
(606,28,c),
(552,63,o),
(538,58,o),
(511,117,c),
(405,350,l),
(302,350,l),
(445,0,l)
);
}
);
width = 684;
},
{
anchors = (
{
name = bottom;
pos = (280,0);
},
{
name = top;
pos = (469,760);
}
);
background = {
shapes = (
{
closed = 0;
nodes = (
(109,760,l),
(109,0,l)
);
},
{
closed = 1;
nodes = (
(209,0,l),
(209,0,l),
(209,320,l),
(387,297,o),
(580,377,o),
(580,534,cs),
(580,650,o),
(518,760,o),
(316,760,cs),
(109,760,l),
(109,760,l),
(109,0,l),
(109,0,l)
);
},
{
closed = 1;
nodes = (
(635,0,l),
(635,0,l),
(425,360,l),
(322,360,l),
(515,0,l)
);
},
{
closed = 1;
nodes = (
(209,695,l),
(358,720,o),
(475,673,o),
(475,530,cs),
(475,392,o),
(346,350,o),
(209,390,c)
);
}
);
};
layerId = m002;
shapes = (
{
closed = 1;
nodes = (
(239,302,l),
(485,273,o),
(652,342,o),
(694,512,cs),
(716,603,o),
(674,760,o),
(452,760,cs),
(222,760,l),
(202,760,o),
(186,761,o),
(122,761,c),
(112,761,o),
(102,714,o),
(111,709,c),
(182,671,o),
(184,675,o),
(166,605,c),
(54,155,l),
(36,85,o),
(24,89,o),
(-47,51,c),
(-56,46,o),
(-56,-1,o),
(-46,-1,c),
(18,-1,o),
(34,0,o),
(54,0,c),
(168,0,l),
(188,0,o),
(204,-1,o),
(268,-1,c),
(278,-1,o),
(288,46,o),
(279,51,c),
(208,89,o),
(206,85,o),
(224,155,c),
(354,675,l),
(489,710,o),
(552,645,o),
(514,492,cs),
(482,365,o),
(373,353,o),
(266,396,c)
);
},
{
closed = 1;
nodes = (
(596,0,l),
(611,0,o),
(623,-1,o),
(671,-1,c),
(679,-1,o),
(682,44,o),
(676,48,c),
(622,83,o),
(608,78,o),
(581,137,c),
(475,350,l),
(312,350,l),
(455,0,l)
);
}
);
width = 753;
},
{
anchors = (
{
name = bottom;
pos = (280,0);
},
{
name = top;
pos = (469,760);
}
);
layerId = "6BC31736-8C9F-4B37-B5D4-AA29B85DBE0C";
shapes = (
{
closed = 1;
nodes = (
(210,310,l),
(457,281,o),
(624,342,o),
(666,512,cs),
(688,603,o),
(646,760,o),
(424,760,cs),
(222,760,l),
(202,760,o),
(186,761,o),
(122,761,c),
(112,761,o),
(104,722,o),
(113,717,c),
(184,679,o),
(186,683,o),
(168,613,c),
(52,147,l),
(34,77,o),
(22,81,o),
(-49,43,c),
(-58,38,o),
(-56,-1,o),
(-46,-1,c),
(18,-1,o),
(34,0,o),
(54,0,c),
(140,0,l),
(160,0,o),
(176,-1,o),
(240,-1,c),
(250,-1,o),
(258,38,o),
(249,43,c),
(178,81,o),
(176,77,o),
(194,147,c),
(328,683,l),
(463,718,o),
(552,645,o),
(514,492,cs),
(482,366,o),
(364,353,o),
(233,396,c)
);
},
{
closed = 1;
nodes = (
(568,0,l),
(583,0,o),
(595,-1,o),
(643,-1,c),
(651,-1,o),
(654,36,o),
(648,40,c),
(594,75,o),
(580,70,o),
(553,129,c),
(447,350,l),
(308,350,l),
(451,0,l)
);
}
);
width = 725.4;
}
);
unicode = 82;
}
{
glyphname = S;
layers = (
{
anchors = (
{
name = bottom;
pos = (230,0);
},
{
name = top;
pos = (419,760);
}
);
background = {
shapes = (
{
closed = 1;
nodes = (
(64,57,l),
(250,-77,o),
(573,0,o),
(573,225,cs),
(573,533,o),
(151,378,o),
(151,578,cs),
(151,660,o),
(218,707,o),
(294,707,cs),
(367,707,o),
(444,669,o),
(485,555,c),
(491,550,o),
(530,561,o),
(532,569,c),
(510,724,l),
(446,755,o),
(386,770,o),
(327,770,cs),
(195,770,o),
(53,685,o),
(53,551,cs),
(53,266,o),
(470,438,o),
(470,206,cs),
(470,27,o),
(151,-40,o),
(103,255,c),
(96,261,o),
(53,255,o),
(50,247,c)
);
}
);
};
layerId = m01;
shapes = (
{
closed = 1;
nodes = (
(4,77,l),
(72,12,o),
(131,-9,o),
(204,-9,cs),
(329,-9,o),
(437,75,o),
(463,168,cs),
(538,436,o),
(219,433,o),
(219,588,cs),
(219,656,o),
(282,707,o),
(350,707,cs),
(410,707,o),
(471,668,o),
(488,575,cs),
(491,555,o),
(533,564,o),
(533,579,cs),
(537,724,l),
(495,754,o),
(453,770,o),
(397,770,cs),
(229,770,o),
(127,662,o),
(127,531,cs),
(127,364,o),
(430,357,o),
(370,146,cs),
(351,81,o),
(294,53,o),
(221,53,cs),
(119,53,o),
(75,131,o),
(87,255,cs),
(88,268,o),
(40,267,o),
(38,257,cs)
);
}
);
width = 583;
},
{
anchors = (
{
name = bottom;
pos = (230,0);
},
{
name = top;
pos = (419,760);
}
);
background = {
shapes = (
{
closed = 1;
nodes = (
(64,57,l),
(250,-77,o),
(573,0,o),
(573,225,cs),
(573,533,o),
(151,378,o),
(151,578,cs),
(151,660,o),
(218,707,o),
(294,707,cs),
(367,707,o),
(444,669,o),
(485,555,c),
(491,550,o),
(530,561,o),
(532,569,c),
(510,724,l),
(446,755,o),
(386,770,o),
(327,770,cs),
(195,770,o),
(53,685,o),
(53,551,cs),
(53,266,o),
(470,438,o),
(470,206,cs),
(470,27,o),
(151,-40,o),
(103,255,c),
(96,261,o),
(53,255,o),
(50,247,c)
);
}
);
};
layerId = m002;
shapes = (
{
closed = 1;
nodes = (
(4,77,l),
(72,12,o),
(131,-9,o),
(204,-9,cs),
(329,-9,o),
(457,65,o),
(488,176,cs),
(566,454,o),
(259,443,o),
(259,588,cs),
(259,636,o),
(282,687,o),
(350,687,cs),
(390,687,o),
(421,668,o),
(478,575,cs),
(489,558,o),
(543,564,o),
(543,579,cs),
(547,724,l),
(505,754,o),
(463,770,o),
(397,770,cs),
(229,770,o),
(107,662,o),
(107,531,cs),
(107,349,o),
(344,308,o),
(344,188,cs),
(344,154,o),
(331,73,o),
(231,73,cs),
(169,73,o),
(145,131,o),
(107,255,cs),
(103,268,o),
(40,267,o),
(38,257,cs)
);
}
);
width = 583;
}
);
unicode = 83;
}
{
glyphname = T;
layers = (
{
anchors = (
{
name = bottom;
pos = (329,0);
},
{
name = center;
pos = (423,380);
},
{
name = top;
pos = (518,760);
}
);
layerId = m01;
shapes = (
{
closed = 1;
nodes = (
(101,590,l),
(96,576,o),
(133,562,o),
(138,576,c),
(232,686,o),
(234,704,o),
(316,704,cs),
(403,704,o),
(420,699,o),
(405,640,cs),
(279,135,l),
(261,65,o),
(249,69,o),
(178,31,c),
(169,26,o),
(174,-1,o),
(184,-1,c),
(248,-1,o),
(264,0,o),
(284,0,c),
(328,0,l),
(348,0,o),
(364,-1,o),
(428,-1,c),
(438,-1,o),
(443,26,o),
(434,31,c),
(363,69,o),
(361,65,o),
(379,135,c),
(505,640,ls),
(520,699,o),
(539,704,o),
(626,704,cs),
(708,704,o),
(707,686,o),
(747,576,c),
(752,562,o),
(788,576,o),
(783,590,c),
(801,760,l),
(792,769,l),
(670,760,l),
(300,760,l),
(182,769,l),
(168,761,l)
);
}
);
width = 782;
},
{
anchors = (
{
name = bottom;
pos = (314,0);
},
{
name = center;
pos = (408,380);
},
{
name = top;
pos = (503,760);
}
);
layerId = m002;
shapes = (
{
closed = 1;
nodes = (
(78,570,l),
(71,555,o),
(131,536,o),
(138,551,c),
(209,661,o),
(277,679,o),
(319,679,cs),
(376,679,o),
(384,674,o),
(370,615,cs),
(263,160,ls),
(246,88,o),
(237,86,o),
(166,48,c),
(156,43,o),
(163,-1,o),
(173,-1,c),
(229,-1,o),
(245,0,o),
(265,0,c),
(379,0,l),
(399,0,o),
(415,-1,o),
(471,-1,c),
(481,-1,o),
(492,43,o),
(484,48,c),
(429,86,o),
(416,88,o),
(433,160,cs),
(540,615,ls),
(554,674,o),
(552,679,o),
(609,679,cs),
(661,679,o),
(711,661,o),
(754,551,c),
(755,536,o),
(821,550,o),
(820,565,c),
(817,750,l),
(798,769,l),
(666,760,l),
(286,760,l),
(158,769,l),
(131,750,l)
);
}
);
width = 828;
}
);
unicode = 84;
}
{
glyphname = U;
layers = (
{
anchors = (
{
name = bottom;
pos = (346,0);
},
{
name = ogonek;
pos = (674,10);
},
{
name = top;
pos = (535,760);
},
{
name = topright;
pos = (923,760);
}
);
layerId = m01;
shapes = (
{
closed = 1;
nodes = (
(518,-10,o),
(623,133,o),
(663,295,cs),
(745,625,l),
(763,695,o),
(775,691,o),
(846,729,c),
(855,734,o),
(850,761,o),
(840,761,c),
(776,761,o),
(760,760,o),
(740,760,c),
(731,760,l),
(711,760,o),
(695,761,o),
(631,761,c),
(621,761,o),
(616,734,o),
(625,729,c),
(696,691,o),
(698,695,o),
(680,625,c),
(598,295,ls),
(562,150,o),
(491,60,o),
(362,60,cs),
(244,60,o),
(176,141,o),
(223,332,cs),
(296,625,l),
(313,695,o),
(325,691,o),
(397,729,c),
(405,734,o),
(401,761,o),
(390,761,c),
(326,761,o),
(310,760,o),
(290,760,c),
(246,760,l),
(226,760,o),
(210,761,o),
(146,761,c),
(136,761,o),
(131,734,o),
(140,729,c),
(211,691,o),
(213,695,o),
(195,625,c),
(124,341,ls),
(74,142,o),
(128,-10,o),
(323,-10,cs)
);
}
);
width = 816;
},
{
anchors = (
{
name = bottom;
pos = (346,0);
},
{
name = ogonek;
pos = (674,10);
},
{
name = top;
pos = (535,760);
},
{
name = topright;
pos = (923,760);
}
);
layerId = "6BC31736-8C9F-4B37-B5D4-AA29B85DBE0C";
shapes = (
{
closed = 1;
nodes = (
(546,-10,o),
(655,133,o),
(694,295,cs),
(769,611,l),
(786,681,o),
(799,681,o),
(875,719,c),
(886,724,o),
(880,761,o),
(869,761,c),
(805,761,o),
(788,760,o),
(767,760,c),
(747,760,l),
(725,760,o),
(708,761,o),
(645,761,c),
(634,761,o),
(623,724,o),
(632,719,c),
(698,681,o),
(706,681,o),
(689,611,c),
(615,301,ls),
(581,156,o),
(500,78,o),
(395,78,cs),
(277,78,o),
(226,182,o),
(265,344,cs),
(328,611,l),
(345,681,o),
(357,681,o),
(429,719,c),
(438,724,o),
(433,761,o),
(423,761,c),
(364,761,o),
(348,760,o),
(328,760,c),
(239,760,l),
(219,760,o),
(203,761,o),
(144,761,c),
(134,761,o),
(124,724,o),
(132,719,c),
(193,681,o),
(200,681,o),
(183,611,c),
(120,346,ls),
(72,143,o),
(120,-10,o),
(333,-10,cs)
);
}
);
width = 816;
},
{
anchors = (
{
name = bottom;
pos = (346,0);
},
{
name = ogonek;
pos = (674,10);
},
{
name = top;
pos = (535,760);
},
{
name = topright;
pos = (923,760);
}
);
layerId = "ABF9DA73-21AD-4AF2-B0FF-D1BE084ED1D5";
shapes = (
{
closed = 1;
nodes = (
(555,-10,o),
(666,133,o),
(704,295,cs),
(777,606,l),
(794,676,o),
(807,678,o),
(885,716,c),
(896,721,o),
(890,761,o),
(879,761,c),
(815,761,o),
(797,760,o),
(776,760,c),
(752,760,l),
(730,760,o),
(712,761,o),
(650,761,c),
(638,761,o),
(625,721,o),
(634,716,c),
(699,678,o),
(709,676,o),
(692,606,c),
(621,303,ls),
(587,158,o),
(503,84,o),
(406,84,cs),
(288,84,o),
(243,196,o),
(279,348,cs),
(339,606,l),
(356,676,o),
(368,678,o),
(440,716,c),
(449,721,o),
(444,761,o),
(434,761,c),
(377,761,o),
(361,760,o),
(341,760,c),
(237,760,l),
(217,760,o),
(201,761,o),
(143,761,c),
(133,761,o),
(122,721,o),
(129,716,c),
(187,678,o),
(196,676,o),
(179,606,c),
(119,348,ls),
(71,143,o),
(117,-10,o),
(336,-10,cs)
);
}
);
width = 816;
}
);
unicode = 85;
}
{
glyphname = V;
layers = (
{
anchors = (
{
name = bottom;
pos = (321,0);
},
{
name = top;
pos = (510,760);
}
);
background = {
shapes = (
{
closed = 1;
nodes = (
(555,-10,l),
(875,760,l),
(875,760,l),
(790,760,l),
(790,760,l),
(545,109,l),
(295,760,l),
(295,760,l),
(185,760,l),
(185,760,l),
(490,-10,l)
);
}
);
};
layerId = m01;
shapes = (
{
closed = 1;
nodes = (
(253,0,l),
(725,645,ls),
(767,702,o),
(785,695,o),
(839,733,cs),
(845,738,o),
(842,765,o),
(834,765,cs),
(786,765,o),
(774,764,o),
(759,764,cs),
(727,764,ls),
(704,764,o),
(686,765,o),
(614,765,cs),
(602,765,o),
(597,738,o),
(607,733,cs),
(687,695,o),
(682,702,o),
(640,644,cs),
(288,159,l),
(299,627,ls),
(301,698,o),
(307,695,o),
(370,733,cs),
(377,738,o),
(373,765,o),
(364,765,cs),
(308,765,o),
(294,764,o),
(277,764,cs),
(223,764,ls),
(208,764,o),
(196,765,o),
(148,765,cs),
(140,765,o),
(137,738,o),
(143,733,cs),
(197,695,o),
(202,698,o),
(202,627,cs),
(202,0,l)
);
}
);
width = 765;
},
{
anchors = (
{
name = bottom;
pos = (321,0);
},
{
name = top;
pos = (510,760);
}
);
background = {
shapes = (
{
closed = 1;
nodes = (
(555,-10,l),
(875,760,l),
(875,760,l),
(790,760,l),
(790,760,l),
(545,109,l),
(295,760,l),
(295,760,l),
(185,760,l),
(185,760,l),
(490,-10,l)
);
}
);
};
layerId = m002;
shapes = (
{
closed = 1;
nodes = (
(255,-1,l),
(752,608,l),
(811,674,o),
(828,674,o),
(892,712,c),
(902,717,o),
(895,761,o),
(887,761,c),
(845,761,o),
(832,760,o),
(817,760,c),
(741,760,l),
(719,760,o),
(702,761,o),
(639,761,c),
(627,761,o),
(617,717,o),
(624,712,c),
(678,674,o),
(680,676,o),
(625,607,cs),
(346,255,l),
(361,608,l),
(364,674,o),
(365,674,o),
(437,712,c),
(448,717,o),
(440,761,o),
(431,761,c),
(382,761,o),
(367,760,o),
(350,760,c),
(226,760,l),
(211,760,o),
(200,761,o),
(158,761,c),
(150,761,o),
(143,717,o),
(147,712,c),
(177,674,o),
(194,674,o),
(192,608,c),
(176,0,l)
);
}
);
width = 765;
},
{
anchors = (
{
name = bottom;
pos = (321,0);
},
{
name = top;
pos = (510,760);
}
);
layerId = "6BC31736-8C9F-4B37-B5D4-AA29B85DBE0C";
shapes = (
{
closed = 1;
nodes = (
(254,-1,l),
(741,623,ls),
(793,685,o),
(811,682,o),
(871,720,cs),
(879,725,o),
(874,763,o),
(866,763,cs),
(821,763,o),
(809,762,o),
(794,762,cs),
(735,762,ls),
(713,762,o),
(696,763,o),
(629,763,cs),
(617,763,o),
(609,725,o),
(617,720,cs),
(682,682,o),
(681,686,o),
(631,622,cs),
(323,217,l),
(336,616,ls),
(339,684,o),
(342,682,o),
(410,720,cs),
(420,725,o),
(413,763,o),
(404,763,cs),
(352,763,o),
(338,762,o),
(321,762,cs),
(225,762,ls),
(210,762,o),
(198,763,o),
(154,763,cs),
(146,763,o),
(141,725,o),
(145,720,cs),
(185,682,o),
(197,684,o),
(196,616,cs),
(186,0,l)
);
}
);
width = 765;
}
);
unicode = 86;
}
{
glyphname = W;
layers = (
{
anchors = (
{
name = bottom;
pos = (473,0);
},
{
name = top;
pos = (662,760);
}
);
background = {
shapes = (
{
closed = 1;
nodes = (
(502,-10,l),
(777,740,l),
(712,740,l),
(487,115,l),
(272,760,l),
(272,760,l),
(162,760,l),
(162,760,l),
(437,-10,l)
);
},
{
closed = 1;
nodes = (
(972,-10,l),
(1252,760,l),
(1252,760,l),
(1167,760,l),
(1167,760,l),
(962,115,l),
(747,760,l),
(747,760,l),
(647,760,l),
(647,760,l),
(907,-10,l)
);
}
);
};
layerId = m01;
shapes = (
{
closed = 1;
nodes = (
(200,-21,o),
(251,-18,o),
(261,-1,cs),
(597,589,l),
(641,-1,ls),
(643,-22,o),
(694,-20,o),
(704,-1,cs),
(1021,631,l),
(1053,695,o),
(1070,690,o),
(1141,728,c),
(1150,733,o),
(1145,760,o),
(1135,760,c),
(1071,760,o),
(1055,759,o),
(1035,759,c),
(1012,759,l),
(992,759,o),
(976,760,o),
(912,760,c),
(902,760,o),
(897,733,o),
(906,728,c),
(977,690,o),
(975,695,o),
(944,631,c),
(729,178,l),
(686,754,l),
(685,773,o),
(640,778,o),
(628,757,cs),
(302,174,l),
(317,622,l),
(320,693,o),
(328,690,o),
(399,728,c),
(408,733,o),
(403,760,o),
(392,760,c),
(328,760,o),
(312,759,o),
(292,759,c),
(249,759,l),
(229,759,o),
(213,760,o),
(149,760,c),
(138,760,o),
(134,733,o),
(142,728,c),
(214,690,o),
(220,693,o),
(218,622,c),
(201,-1,ls)
);
}
);
width = 1069;
},
{
anchors = (
{
name = bottom;
pos = (521,0);
},
{
name = top;
pos = (710,760);
}
);
background = {
shapes = (
{
closed = 1;
nodes = (
(550,-10,l),
(825,740,l),
(760,740,l),
(535,115,l),
(320,760,l),
(320,760,l),
(210,760,l),
(210,760,l),
(485,-10,l)
);
},
{
closed = 1;
nodes = (
(1020,-10,l),
(1300,760,l),
(1300,760,l),
(1215,760,l),
(1215,760,l),
(1010,115,l),
(795,760,l),
(795,760,l),
(695,760,l),
(695,760,l),
(955,-10,l)
);
}
);
};
layerId = m002;
shapes = (
{
closed = 1;
nodes = (
(264,-17,o),
(336,-21,o),
(348,-1,cs),
(616,440,l),
(673,0,ls),
(676,-22,o),
(730,-24,o),
(743,-1,cs),
(1090,606,ls),
(1128,672,o),
(1145,674,o),
(1201,712,cs),
(1209,717,o),
(1199,761,o),
(1191,761,cs),
(1149,761,o),
(1137,760,o),
(1122,760,cs),
(1052,760,ls),
(1029,760,o),
(1011,761,o),
(948,761,cs),
(937,761,o),
(930,717,o),
(939,712,cs),
(1001,674,o),
(1003,677,o),
(969,605,cs),
(821,295,l),
(753,729,ls),
(750,746,o),
(688,760,o),
(671,730,cs),
(417,275,l),
(388,606,ls),
(382,675,o),
(382,674,o),
(447,712,cs),
(455,717,o),
(452,761,o),
(442,761,cs),
(393,761,o),
(379,760,o),
(362,760,cs),
(228,760,ls),
(213,760,o),
(201,761,o),
(159,761,cs),
(152,761,o),
(141,717,o),
(147,712,cs),
(185,674,o),
(204,673,o),
(210,606,cs),
(263,0,ls)
);
}
);
width = 1073;
},
{
anchors = (
{
name = bottom;
pos = (502,0);
},
{
name = top;
pos = (691,760);
}
);
layerId = "6BC31736-8C9F-4B37-B5D4-AA29B85DBE0C";
shapes = (
{
closed = 1;
nodes = (
(238,-19,o),
(302,-20,o),
(313,-1,cs),
(608,500,l),
(660,0,ls),
(663,-22,o),
(716,-22,o),
(727,-1,cs),
(1062,616,l),
(1098,681,o),
(1115,680,o),
(1177,718,c),
(1185,723,o),
(1177,761,o),
(1169,761,c),
(1118,761,o),
(1104,760,o),
(1087,760,c),
(1036,760,l),
(1014,760,o),
(997,761,o),
(934,761,c),
(923,761,o),
(917,723,o),
(926,718,c),
(991,680,o),
(992,684,o),
(959,615,c),
(784,248,l),
(726,739,l),
(724,757,o),
(669,767,o),
(654,741,cs),
(371,235,l),
(360,612,l),
(357,682,o),
(360,680,o),
(428,718,c),
(436,723,o),
(432,761,o),
(422,761,c),
(367,761,o),
(352,760,o),
(334,760,c),
(236,760,l),
(219,760,o),
(206,761,o),
(155,761,c),
(146,761,o),
(138,723,o),
(145,718,c),
(197,680,o),
(210,681,o),
(213,612,c),
(238,0,ls)
);
}
);
width = 1071.4;
}
);
metricLeft = "=V";
metricRight = "=V";
unicode = 87;
}
{
glyphname = X;
layers = (
{
anchors = (
{
name = bottom;
pos = (321,0);
},
{
name = top;
pos = (510,760);
}
);
layerId = m01;
shapes = (
{
closed = 1;
nodes = (
(505,0,o),
(589,0,o),
(669,-1,cs),
(680,-1,o),
(686,26,o),
(679,31,c),
(614,59,o),
(611,49,o),
(553,165,cs),
(343,587,ls),
(292,690,o),
(288,708,o),
(348,729,cs),
(359,733,o),
(356,761,o),
(346,761,cs),
(266,760,o),
(181,760,o),
(101,761,cs),
(90,761,o),
(89,734,o),
(96,729,c),
(161,701,o),
(169,711,o),
(227,595,cs),
(437,173,ls),
(488,71,o),
(487,52,o),
(427,31,cs),
(416,27,o),
(415,-1,o),
(425,-1,cs)
);
},
{
closed = 1;
nodes = (
(-29,0,o),
(56,0,o),
(136,-1,cs),
(146,-1,o),
(153,26,o),
(145,31,cs),
(104,57,o),
(114,69,o),
(210,173,cs),
(392,369,l),
(346,391,l),
(109,165,ls),
(-10,52,o),
(-34,59,o),
(-93,31,c),
(-102,26,o),
(-100,-1,o),
(-89,-1,cs)
);
},
{
closed = 1;
nodes = (
(632,595,ls),
(752,711,o),
(775,701,o),
(834,729,c),
(843,734,o),
(846,761,o),
(835,761,cs),
(775,760,o),
(680,760,o),
(600,761,cs),
(590,761,o),
(588,734,o),
(596,729,cs),
(637,703,o),
(627,691,o),
(531,587,cs),
(351,391,l),
(397,369,l)
);
}
);
width = 766;
},
{
anchors = (
{
name = bottom;
pos = (369,0);
},
{
name = top;
pos = (558,760);
}
);
layerId = m002;
shapes = (
{
closed = 1;
nodes = (
(500,0,o),
(645,0,o),
(725,-1,cs),
(736,-1,o),
(741,51,o),
(734,56,c),
(669,84,o),
(660,96,o),
(621,170,cs),
(403,582,ls),
(356,672,o),
(341,683,o),
(401,704,cs),
(412,708,o),
(407,761,o),
(397,761,cs),
(317,760,o),
(172,760,o),
(92,761,cs),
(81,761,o),
(76,709,o),
(83,704,c),
(148,676,o),
(158,662,o),
(196,590,cs),
(414,178,ls),
(461,88,o),
(476,77,o),
(396,55,cs),
(385,52,o),
(390,-1,o),
(400,-1,cs)
);
},
{
closed = 1;
nodes = (
(1,0,o),
(116,0,o),
(226,-1,cs),
(236,-1,o),
(242,51,o),
(234,54,cs),
(163,82,o),
(177,91,o),
(262,178,cs),
(450,369,l),
(364,391,l),
(111,170,ls),
(28,97,o),
(5,84,o),
(-64,56,c),
(-73,51,o),
(-70,-1,o),
(-59,-1,cs)
);
},
{
closed = 1;
nodes = (
(691,590,ls),
(773,665,o),
(797,676,o),
(866,704,c),
(875,709,o),
(872,761,o),
(861,761,cs),
(801,760,o),
(686,760,o),
(576,761,cs),
(566,761,o),
(560,709,o),
(568,706,cs),
(639,678,o),
(623,672,o),
(540,582,cs),
(362,391,l),
(448,369,l)
);
}
);
width = 814;
}
);
unicode = 88;
}
{
glyphname = Y;
layers = (
{
anchors = (
{
name = bottom;
pos = (291,0);
},
{
name = top;
pos = (480,760);
},
{
name = topleft;
pos = (147,760);
}
);
layerId = m01;
shapes = (
{
closed = 1;
nodes = (
(126,701,o),
(134,714,o),
(187,595,cs),
(290,365,l),
(233,135,l),
(215,65,o),
(203,69,o),
(132,31,c),
(123,26,o),
(128,-1,o),
(138,-1,c),
(202,-1,o),
(218,0,o),
(238,0,c),
(282,0,l),
(302,0,o),
(318,-1,o),
(382,-1,c),
(392,-1,o),
(397,26,o),
(388,31,c),
(317,69,o),
(315,65,o),
(333,135,c),
(390,365,l),
(617,595,ls),
(732,712,o),
(750,701,o),
(799,729,cs),
(808,734,o),
(806,761,o),
(795,761,cs),
(755,760,o),
(665,760,o),
(585,761,cs),
(575,761,o),
(573,734,o),
(581,729,cs),
(622,703,o),
(625,689,o),
(526,587,cs),
(373,429,l),
(304,587,ls),
(258,693,o),
(249,708,o),
(309,729,cs),
(320,733,o),
(321,761,o),
(311,761,cs),
(231,760,o),
(146,760,o),
(86,761,cs),
(75,761,o),
(74,734,o),
(81,729,cs)
);
}
);
width = 706;
},
{
anchors = (
{
name = bottom;
pos = (307,0);
},
{
name = top;
pos = (496,760);
},
{
name = topleft;
pos = (163,760);
}
);
layerId = "6BC31736-8C9F-4B37-B5D4-AA29B85DBE0C";
shapes = (
{
closed = 1;
nodes = (
(136,689,o),
(148,689,o),
(189,595,cs),
(296,345,l),
(249,150,l),
(232,79,o),
(220,79,o),
(149,41,c),
(139,36,o),
(141,-1,o),
(151,-1,c),
(210,-1,o),
(226,0,o),
(246,0,c),
(326,0,l),
(346,0,o),
(362,-1,o),
(421,-1,c),
(431,-1,o),
(444,36,o),
(436,41,c),
(375,79,o),
(368,79,o),
(385,150,c),
(434,353,l),
(658,595,ls),
(748,692,o),
(775,689,o),
(836,717,cs),
(845,722,o),
(842,761,o),
(831,761,cs),
(779,760,o),
(674,760,o),
(588,761,cs),
(578,761,o),
(574,722,o),
(582,718,cs),
(629,691,o),
(626,687,o),
(543,587,cs),
(417,435,l),
(354,587,ls),
(313,686,o),
(295,696,o),
(355,717,cs),
(366,721,o),
(363,761,o),
(353,761,cs),
(273,760,o),
(158,760,o),
(86,761,cs),
(75,761,o),
(72,722,o),
(79,717,cs)
);
}
);
width = 745;
},
{
anchors = (
{
name = bottom;
pos = (312,0);
},
{
name = top;
pos = (501,760);
},
{
name = topleft;
pos = (168,760);
}
);
layerId = "ABF9DA73-21AD-4AF2-B0FF-D1BE084ED1D5";
shapes = (
{
closed = 1;
nodes = (
(139,685,o),
(153,681,o),
(190,595,cs),
(298,338,l),
(254,155,l),
(238,84,o),
(226,82,o),
(155,44,c),
(144,39,o),
(145,-1,o),
(155,-1,c),
(213,-1,o),
(229,0,o),
(249,0,c),
(341,0,l),
(361,0,o),
(377,-1,o),
(434,-1,c),
(444,-1,o),
(460,39,o),
(452,44,c),
(394,82,o),
(386,84,o),
(402,155,c),
(449,349,l),
(672,595,ls),
(753,685,o),
(783,685,o),
(848,713,cs),
(857,718,o),
(854,761,o),
(843,761,cs),
(787,760,o),
(677,760,o),
(589,761,cs),
(579,761,o),
(574,718,o),
(582,714,cs),
(631,687,o),
(626,686,o),
(549,587,cs),
(432,437,l),
(371,587,ls),
(331,684,o),
(310,692,o),
(370,713,cs),
(381,717,o),
(377,761,o),
(367,761,cs),
(287,760,o),
(162,760,o),
(86,761,cs),
(75,761,o),
(71,718,o),
(78,713,cs)
);
}
);
width = 758;
}
);
unicode = 89;
}
{
glyphname = Z;
layers = (
{
anchors = (
{
name = bottom;
pos = (303,0);
},
{
name = center;
pos = (397,380);
},
{
name = top;
pos = (492,760);
}
);
layerId = m01;
shapes = (
{
closed = 1;
nodes = (
(764,715,l),
(758,760,l),
(220,760,l),
(206,750,l),
(144,601,l),
(138,587,o),
(168,573,o),
(174,587,c),
(253,677,o),
(272,695,o),
(445,700,cs),
(616,705,l),
(-34,45,l),
(-28,0,l),
(540,0,l),
(554,10,l),
(618,169,l),
(625,183,o),
(596,197,o),
(589,183,c),
(507,83,o),
(490,74,o),
(316,65,cs),
(119,55,l)
);
}
);
width = 730;
},
{
anchors = (
{
name = bottom;
pos = (303,0);
},
{
name = center;
pos = (397,380);
},
{
name = top;
pos = (492,760);
}
);
background = {
shapes = (
{
closed = 1;
nodes = (
(119,55,l),
(764,715,l),
(758,760,l),
(220,760,l),
(206,750,l),
(144,601,l),
(138,587,o),
(168,573,o),
(174,587,c),
(253,677,o),
(272,695,o),
(445,700,cs),
(616,705,l),
(-34,45,l),
(-28,0,l),
(540,0,l),
(554,10,l),
(618,169,l),
(625,183,o),
(596,197,o),
(589,183,c),
(507,83,o),
(490,74,o),
(316,65,cs)
);
}
);
};
layerId = m002;
shapes = (
{
closed = 1;
nodes = (
(757,715,l),
(751,760,l),
(223,760,l),
(195,740,l),
(133,571,l),
(126,556,o),
(195,532,o),
(203,547,c),
(281,637,o),
(280,669,o),
(454,680,cs),
(535,685,l),
(-27,45,l),
(-21,0,l),
(537,0,l),
(565,20,l),
(629,199,l),
(637,214,o),
(570,236,o),
(559,223,cs),
(469,123,o),
(472,99,o),
(307,85,cs),
(190,75,l)
);
}
);
width = 730;
}
);
unicode = 90;
}
{
glyphname = bracketleft;
layers = (
{
layerId = m01;
shapes = (
{
closed = 1;
nodes = (
(26,-120,l),
(34,-131,l),
(74,-136,l),
(99,-138,o),
(117,-142,o),
(195,-150,c),
(208,-152,o),
(222,-128,o),
(212,-123,c),
(136,-78,o),
(125,-80,o),
(139,-15,c),
(281,655,l),
(295,720,o),
(306,718,o),
(400,763,c),
(412,768,o),
(408,792,o),
(395,790,c),
(313,782,o),
(293,778,o),
(268,776,c),
(226,771,l),
(214,760,l)
);
}
);
width = 361;
},
{
layerId = "6BC31736-8C9F-4B37-B5D4-AA29B85DBE0C";
shapes = (
{
closed = 1;
nodes = (
(26,-120,l),
(34,-131,l),
(74,-136,l),
(99,-138,o),
(117,-142,o),
(195,-150,c),
(208,-152,o),
(222,-128,o),
(212,-123,c),
(136,-78,o),
(125,-80,o),
(139,-15,c),
(281,655,l),
(295,720,o),
(306,718,o),
(400,763,c),
(412,768,o),
(408,792,o),
(395,790,c),
(313,782,o),
(293,778,o),
(268,776,c),
(226,771,l),
(214,760,l)
);
}
);
width = 361;
},
{
layerId = "ABF9DA73-21AD-4AF2-B0FF-D1BE084ED1D5";
shapes = (
{
closed = 1;
nodes = (
(26,-120,l),
(34,-131,l),
(74,-136,l),
(99,-138,o),
(117,-142,o),
(195,-150,c),
(208,-152,o),
(222,-128,o),
(212,-123,c),
(136,-78,o),
(125,-80,o),
(139,-15,c),
(281,655,l),
(295,720,o),
(306,718,o),
(400,763,c),
(412,768,o),
(408,792,o),
(395,790,c),
(313,782,o),
(293,778,o),
(268,776,c),
(226,771,l),
(214,760,l)
);
}
);
width = 361;
}
);
unicode = 91;
}
{
glyphname = backslash;
layers = (
{
layerId = m01;
shapes = (
{
closed = 1;
nodes = (
(74,799,o),
(24,779,o),
(30,765,c),
(340,-150,l),
(346,-164,o),
(396,-144,o),
(390,-130,c),
(80,785,l)
);
}
);
width = 420;
},
{
layerId = m002;
shapes = (
{
closed = 1;
nodes = (
(74,799,o),
(24,779,o),
(30,765,c),
(340,-150,l),
(346,-164,o),
(396,-144,o),
(390,-130,c),
(80,785,l)
);
}
);
width = 420;
}
);
unicode = 92;
}
{
glyphname = asciicircum;
layers = (
{
layerId = m01;
shapes = (
{
closed = 1;
nodes = (
(271,813,ls),
(296,836,o),
(304,836,o),
(329,813,cs),
(500,651,ls),
(513,639,o),
(484,603,o),
(470,611,cs),
(300,716,l),
(130,611,ls),
(116,603,o),
(87,639,o),
(100,651,cs)
);
}
);
width = 600;
}
);
unicode = 94;
}
{
glyphname = underscore;
layers = (
{
layerId = m01;
shapes = (
{
closed = 1;
nodes = (
(0,-150,l),
(500,-150,l),
(500,-90,l),
(0,-90,l)
);
}
);
width = 500;
},
{
layerId = "6BC31736-8C9F-4B37-B5D4-AA29B85DBE0C";
shapes = (
{
closed = 1;
nodes = (
(0,-150,l),
(500,-150,l),
(500,-90,l),
(0,-90,l)
);
}
);
width = 500;
},
{
layerId = "ABF9DA73-21AD-4AF2-B0FF-D1BE084ED1D5";
shapes = (
{
closed = 1;
nodes = (
(0,-150,l),
(500,-150,l),
(500,-90,l),
(0,-90,l)
);
}
);
width = 500;
}
);
unicode = 95;
}
{
glyphname = a;
layers = (
{
anchors = (
{
name = bottom;
pos = (180,0);
},
{
name = ogonek;
pos = (409,10);
},
{
name = top;
pos = (304,500);
}
);
background = {
shapes = (
{
closed = 1;
nodes = (
(379,480,l),
(302,194,ls),
(275,93,o),
(248,-7,o),
(284,-7,cs),
(345,-7,o),
(445,98,o),
(487,144,cs),
(498,157,o),
(472,186,o),
(458,172,cs),
(343,59,o),
(367,114,o),
(383,169,cs),
(479,494,l),
(473,503,l)
);
},
{
closed = 1;
nodes = (
(-3,82,o),
(29,-12,o),
(83,-12,cs),
(144,-12,o),
(276,85,o),
(360,270,c),
(344,350,l),
(301,188,o),
(198,88,o),
(149,88,cs),
(114,88,o),
(89,132,o),
(135,261,cs),
(200,441,o),
(269,453,o),
(359,390,c),
(407,475,l),
(322,572,o),
(114,436,o),
(47,232,cs)
);
}
);
};
layerId = m01;
shapes = (
{
closed = 1;
nodes = (
(379,480,l),
(302,194,ls),
(275,93,o),
(248,-7,o),
(284,-7,cs),
(345,-7,o),
(445,98,o),
(487,144,cs),
(498,157,o),
(472,186,o),
(458,172,cs),
(343,59,o),
(355,115,o),
(373,169,cs),
(479,494,l),
(473,503,l)
);
},
{
closed = 1;
nodes = (
(-3,82,o),
(29,-10,o),
(83,-10,cs),
(144,-10,o),
(276,85,o),
(360,270,c),
(344,350,l),
(301,188,o),
(198,88,o),
(149,88,cs),
(114,88,o),
(89,132,o),
(135,261,cs),
(200,441,o),
(274,463,o),
(359,390,c),
(407,475,l),
(322,572,o),
(114,436,o),
(47,232,cs)
);
}
);
width = 515;
},
{
anchors = (
{
name = bottom;
pos = (202,0);
},
{
name = ogonek;
pos = (431,10);
},
{
name = top;
pos = (326,500);
}
);
layerId = "6BC31736-8C9F-4B37-B5D4-AA29B85DBE0C";
shapes = (
{
closed = 1;
nodes = (
(400,470,l),
(324,194,ls),
(289,66,o),
(300,-7,o),
(356,-7,cs),
(407,-7,o),
(517,108,o),
(557,148,cs),
(573,165,o),
(542,197,o),
(531,190,cs),
(446,136,o),
(426,114,o),
(454,205,cs),
(540,484,l),
(534,493,l)
);
},
{
closed = 1;
nodes = (
(33,84,o),
(41,-9,o),
(125,-12,cs),
(216,-15,o),
(309,108,o),
(388,257,c),
(351,289,l),
(300,160,o),
(246,122,o),
(227,123,cs),
(212,124,o),
(174,126,o),
(207,257,cs),
(252,435,o),
(301,414,o),
(381,369,c),
(469,467,l),
(324,572,o),
(116,437,o),
(69,236,cs)
);
}
);
width = 584.4;
}
);
unicode = 97;
}
{
glyphname = b;
layers = (
{
anchors = (
{
name = bottom;
pos = (189,0);
},
{
name = center;
pos = (251,250);
},
{
name = top;
pos = (313,500);
}
);
background = {
shapes = (
{
closed = 1;
nodes = (
(232,-12,o),
(374,129,o),
(410,268,cs),
(450,421,o),
(418,510,o),
(364,510,cs),
(322,510,o),
(245,464,o),
(174,374,c),
(310,804,l),
(303,813,l),
(207,798,o),
(185,797,o),
(137,790,cs),
(129,789,o),
(130,750,o),
(137,750,cs),
(205,754,o),
(204,738,o),
(185,676,cs),
(37,194,ls),
(7,95,o),
(12,-8,o),
(115,-10,cs)
);
},
{
closed = 1;
nodes = (
(88,105,o),
(113,177,cs),
(168,333,o),
(254,412,o),
(298,412,cs),
(323,412,o),
(359,371,o),
(322,239,cs),
(285,109,o),
(213,52,o),
(160,52,cs),
(109,52,o)
);
}
);
};
hints = (
{
name = _corner.mitre;
origin = (0,8);
type = Corner;
}
);
layerId = m01;
shapes = (
{
closed = 1;
nodes = (
(232,-12,o),
(374,129,o),
(410,268,cs),
(450,421,o),
(418,510,o),
(364,510,cs),
(322,510,o),
(245,464,o),
(169,364,c),
(310,804,l),
(303,813,l),
(137,790,ls),
(129,789,o),
(130,750,o),
(137,750,cs),
(205,754,o),
(204,738,o),
(185,676,cs),
(37,194,ls),
(7,95,o),
(12,-8,o),
(115,-10,cs)
);
},
{
closed = 1;
nodes = (
(109,52,o),
(88,105,o),
(113,177,cs),
(168,333,o),
(254,412,o),
(298,412,cs),
(323,412,o),
(359,371,o),
(322,239,cs),
(285,109,o),
(213,52,o),
(160,52,cs)
);
}
);
width = 447;
},
{
anchors = (
{
name = bottom;
pos = (239,0);
},
{
name = center;
pos = (301,250);
},
{
name = top;
pos = (363,500);
}
);
background = {
hints = (
{
name = _corner.mitre;
place = (169, -2147483648);
type = Corner;
},
{
name = _corner.mitre;
origin = (0,8);
type = Corner;
}
);
shapes = (
{
closed = 1;
nodes = (
(282,-12,o),
(424,129,o),
(460,268,cs),
(500,421,o),
(468,510,o),
(414,510,cs),
(372,510,o),
(295,464,o),
(219,364,c),
(360,804,l),
(353,813,l),
(257,798,o),
(235,797,o),
(187,790,cs),
(179,789,o),
(180,750,o),
(187,750,cs),
(255,754,o),
(254,738,o),
(235,676,cs),
(87,194,ls),
(57,95,o),
(62,-8,o),
(165,-10,cs)
);
},
{
closed = 1;
nodes = (
(138,105,o),
(163,177,cs),
(218,333,o),
(304,412,o),
(348,412,cs),
(373,412,o),
(409,371,o),
(372,239,cs),
(335,109,o),
(263,52,o),
(210,52,cs),
(159,52,o)
);
}
);
};
hints = (
{
name = _corner.mitre;
options = 2;
origin = (0,8);
type = Corner;
}
);
layerId = "6BC31736-8C9F-4B37-B5D4-AA29B85DBE0C";
shapes = (
{
closed = 1;
nodes = (
(282,-12,o),
(444,109,o),
(495,286,cs),
(539,438,o),
(468,510,o),
(414,510,cs),
(352,510,o),
(295,474,o),
(225,384,c),
(370,804,l),
(363,813,l),
(137,790,ls),
(129,789,o),
(130,740,o),
(137,740,cs),
(205,744,o),
(205,738,o),
(185,676,cs),
(47,257,ls),
(-15,69,o),
(62,-8,o),
(165,-10,cs)
);
},
{
closed = 1;
nodes = (
(149,47,o),
(128,78,o),
(163,177,cs),
(218,333,o),
(284,392,o),
(318,392,cs),
(353,392,o),
(366,325,o),
(347,257,cs),
(305,109,o),
(233,47,o),
(180,47,cs)
);
}
);
width = 517;
},
{
anchors = (
{
name = bottom;
pos = (256,0);
},
{
name = center;
pos = (318,250);
},
{
name = top;
pos = (380,500);
}
);
hints = (
{
name = _corner.mitre;
origin = (0,8);
type = Corner;
}
);
layerId = "ABF9DA73-21AD-4AF2-B0FF-D1BE084ED1D5";
shapes = (
{
closed = 1;
nodes = (
(299,-12,o),
(467,102,o),
(523,292,cs),
(569,444,o),
(485,510,o),
(431,510,cs),
(362,510,o),
(312,477,o),
(244,391,c),
(390,804,l),
(383,813,l),
(137,790,ls),
(129,789,o),
(130,737,o),
(137,737,cs),
(205,741,o),
(205,738,o),
(185,676,cs),
(50,278,ls),
(-22,60,o),
(79,-8,o),
(182,-10,cs)
);
},
{
closed = 1;
nodes = (
(162,45,o),
(141,69,o),
(180,177,cs),
(235,333,o),
(294,385,o),
(325,385,cs),
(363,385,o),
(368,310,o),
(355,263,cs),
(312,109,o),
(240,45,o),
(187,45,cs)
);
}
);
width = 540.33333;
}
);
unicode = 98;
}
{
glyphname = c;
layers = (
{
anchors = (
{
name = bottom;
pos = (170,0);
},
{
name = top;
pos = (294,500);
}
);
background = {
shapes = (
{
closed = 1;
nodes = (
(208,-10,o),
(271,22,o),
(383,140,c),
(363,170,l),
(182,24,o),
(100,81,o),
(153,279,cs),
(185,399,o),
(220,495,o),
(357,370,cs),
(381,349,o),
(439,449,o),
(424,470,cs),
(357,561,o),
(116,500,o),
(46,232,cs),
(9,97,o),
(60,-10,o),
(153,-10,cs)
);
}
);
};
layerId = m01;
shapes = (
{
closed = 1;
nodes = (
(208,-10,o),
(271,22,o),
(383,140,c),
(395.481,148.321,o),
(375.481,178.321,o),
(363,170,c),
(182,24,o),
(100,81,o),
(153,279,cs),
(185,399,o),
(230,473,o),
(332,392,cs),
(389,347,o),
(453,430,o),
(405,485,cs),
(347,551,o),
(116,500,o),
(46,232,cs),
(9,97,o),
(60,-10,o),
(153,-10,cs)
);
}
);
width = 433;
}
);
unicode = 99;
}
{
glyphname = d;
layers = (
{
anchors = (
{
name = bottom;
pos = (222,0);
},
{
name = center;
pos = (284,250);
},
{
name = top;
pos = (421,800);
},
{
name = topright;
pos = (685,800);
}
);
background = {
shapes = (
{
closed = 0;
nodes = (
(421,169,l),
(595,815,l)
);
},
{
closed = 1;
nodes = (
(500,800,l),
(500,800,l),
(341,194,ls),
(307,64,o),
(313,-7,o),
(349,-7,cs),
(400,-7,o),
(482,78,o),
(525,124,cs),
(536,137,o),
(514,164,o),
(498,149,cs),
(411,66,o),
(406,114,o),
(421,169,cs),
(595,815,l),
(595,815,l)
);
},
{
closed = 1;
nodes = (
(22,78,o),
(54,-12,o),
(138,-12,cs),
(199,-12,o),
(283,45,o),
(395,200,c),
(359,220,l),
(306,128,o),
(237,88,o),
(198,88,cs),
(143,88,o),
(127,129,o),
(160,279,cs),
(203,481,o),
(302,453,o),
(401,390,c),
(451,475,l),
(317,572,o),
(107,466,o),
(56,232,cs)
);
}
);
};
layerId = m01;
shapes = (
{
closed = 1;
nodes = (
(592,804,l),
(585,813,l),
(489,798,o),
(477,797,o),
(429,790,c),
(421,789,o),
(422,763,o),
(429,760,c),
(487,734,o),
(484,738,o),
(467,676,c),
(341,194,ls),
(307,64,o),
(313,-7,o),
(349,-7,cs),
(400,-7,o),
(482,78,o),
(525,124,cs),
(536,137,o),
(514,164,o),
(498,149,cs),
(411,66,o),
(406,114,o),
(421,169,cs)
);
},
{
closed = 1;
nodes = (
(38,78,o),
(54,-12,o),
(138,-12,cs),
(199,-12,o),
(283,45,o),
(395,200,c),
(359,230,l),
(306,138,o),
(242,78,o),
(203,78,cs),
(148,78,o),
(130,128,o),
(165,261,cs),
(213,441,o),
(332,453,o),
(401,390,c),
(451,475,l),
(347,572,o),
(127,436,o),
(76,232,cs)
);
}
);
width = 568;
},
{
anchors = (
{
name = bottom;
pos = (190,0);
},
{
name = center;
pos = (252,250);
},
{
name = top;
pos = (389,800);
},
{
name = topright;
pos = (653,800);
}
);
background = {
shapes = (
{
closed = 1;
nodes = (
(607,804,l),
(600,813,l),
(533,805,o),
(454,797,o),
(387,790,cs),
(379,789,o),
(370,733,o),
(377,730,cs),
(435,704,o),
(432,709,o),
(415,646,cs),
(289,194,ls),
(252,66,o),
(281,-7,o),
(347,-7,cs),
(398,-7,o),
(490,58,o),
(535,123,cs),
(544,137,o),
(514,170,o),
(498,156,cs),
(419,86,o),
(402,114,o),
(419,169,cs)
);
},
{
closed = 1;
nodes = (
(-9,78,o),
(9,-12,o),
(93,-12,cs),
(154,-12,o),
(237,45,o),
(346,200,c),
(310,230,l),
(258,138,o),
(214,128,o),
(195,128,cs),
(180,128,o),
(142,128,o),
(175,261,cs),
(220,441,o),
(269,413,o),
(349,372,c),
(437,475,l),
(292,572,o),
(74,436,o),
(27,232,cs)
);
}
);
};
layerId = m002;
shapes = (
{
closed = 1;
nodes = (
(597,804,l),
(590,813,l),
(523,805,o),
(454,797,o),
(387,790,cs),
(379,789,o),
(370,733,o),
(377,730,cs),
(435,704,o),
(433,709,o),
(415,646,cs),
(289,194,ls),
(253,66,o),
(281,-7,o),
(347,-7,cs),
(398,-7,o),
(490,78,o),
(535,123,cs),
(547,135,o),
(516,167,o),
(505,160,cs),
(419,106,o),
(404,114,o),
(419,169,cs)
);
},
{
closed = 1;
nodes = (
(-9,84,o),
(9,-7,o),
(93,-12,cs),
(154,-15,o),
(237,38,o),
(346,187,c),
(310,219,l),
(258,130,o),
(214,122,o),
(195,123,cs),
(180,124,o),
(142,126,o),
(175,257,cs),
(220,435,o),
(269,414,o),
(349,369,c),
(437,467,l),
(292,572,o),
(74,437,o),
(27,236,cs)
);
}
);
width = 536;
}
);
unicode = 100;
}
{
glyphname = e;
layers = (
{
anchors = (
{
name = bottom;
pos = (165,0);
},
{
name = ogonek;
pos = (343,10);
},
{
name = top;
pos = (289,500);
}
);
background = {
shapes = (
{
closed = 1;
nodes = (
(220,-10,o),
(273,22,o),
(387,140,c),
(367,170,l),
(184,24,o),
(116,80,o),
(169,279,cs),
(231,513,o),
(334,429,o),
(322,366,cs),
(310,300,o),
(169,265,o),
(111,246,c),
(121,209,l),
(194,222,o),
(387,292,o),
(415,351,cs),
(429,378,o),
(423,442,o),
(404,470,cs),
(338,561,o),
(137,500,o),
(61,232,cs),
(23,97,o),
(72,-10,o),
(165,-10,cs)
);
}
);
};
layerId = m01;
shapes = (
{
closed = 1;
nodes = (
(220,-10,o),
(273,22,o),
(387,140,c),
(399.481,148.321,o),
(379.481,178.321,o),
(367,170,c),
(184,24,o),
(109,80,o),
(162,279,cs),
(224,513,o),
(333,429,o),
(322,366,cs),
(310,300,o),
(169,265,o),
(111,256,c),
(121,219,l),
(256,233,o),
(396,300,o),
(418,387,cs),
(431,438,o),
(399,509,o),
(323,509,cs),
(235,509,o),
(114,417,o),
(61,232,cs),
(23,97,o),
(72,-10,o),
(165,-10,cs)
);
}
);
width = 457;
}
);
unicode = 101;
}
{
glyphname = f;
layers = (
{
anchors = (
{
name = bottom;
pos = (140,0);
},
{
name = top;
pos = (339,800);
}
);
layerId = m01;
shapes = (
{
closed = 1;
nodes = (
(69,460,o),
(69,415,o),
(84,415,c),
(364,435,l),
(379,435,o),
(379,490,o),
(364,490,c),
(84,460,l)
);
},
{
closed = 1;
nodes = (
(565,673,o),
(636,837,o),
(468,814,cs),
(331,794,o),
(206,630,o),
(154,429,cs),
(56,47,ls),
(26,-69,o),
(-5,-223,o),
(-109,-195,cs),
(-189,-173,o),
(-216,-310,o),
(-136,-302,cs),
(-20,-290,o),
(98,-118,o),
(171,153,cs),
(283,568,ls),
(336,766,o),
(415,727,o),
(488,700,cs)
);
}
);
width = 328;
},
{
anchors = (
{
name = bottom;
pos = (140,0);
},
{
name = top;
pos = (339,800);
}
);
layerId = "6BC31736-8C9F-4B37-B5D4-AA29B85DBE0C";
shapes = (
{
closed = 1;
nodes = (
(49,480,o),
(49,440,o),
(64,440,c),
(374,440,l),
(389,440,o),
(389,490,o),
(374,490,c),
(174,490,l),
(64,480,l)
);
},
{
closed = 1;
nodes = (
(544,657,o),
(607,811,o),
(439,811,cs),
(302,811,o),
(187,624,o),
(145,430,cs),
(66,62,ls),
(23,-140,o),
(16,-206,o),
(-88,-157,cs),
(-159,-124,o),
(-180,-256,o),
(-99,-259,cs),
(17,-263,o),
(124,-109,o),
(173,116,cs),
(283,621,ls),
(309,742,o),
(390,732,o),
(465,695,cs)
);
}
);
width = 383;
}
);
unicode = 102;
}
{
glyphname = g;
layers = (
{
anchors = (
{
name = bottom;
pos = (143,-250);
},
{
name = top;
pos = (330,500);
}
);
background = {
shapes = (
{
closed = 1;
nodes = (
(396,480,l),
(399,450,l),
(534,430,ls),
(548,428,o),
(580,513,o),
(543,506,cs)
);
},
{
closed = 1;
nodes = (
(106,192,l),
(27,130,o),
(-28,46,o),
(40,4,c),
(-116,-77,o),
(-139,-261,o),
(99,-261,cs),
(241,-261,o),
(395,-157,o),
(419,-60,cs),
(436,11,o),
(409,89,o),
(310,82,cs),
(173,72,ls),
(92,66,o),
(89,127,o),
(141,173,c)
);
},
{
closed = 1;
nodes = (
(27,-54,o),
(60,-18,o),
(111,-3,c),
(279,-3,ls),
(409,-3,o),
(344,-190,o),
(156,-190,cs),
(40,-190,o),
(5,-145,o),
(18,-92,cs)
);
},
{
closed = 1;
nodes = (
(327,150,o),
(428,231,o),
(460,330,cs),
(488,419,o),
(433,510,o),
(328,510,cs),
(213,510,o),
(112,429,o),
(80,330,cs),
(48,231,o),
(97,150,o),
(212,150,cs)
);
},
{
closed = 1;
nodes = (
(182,210,o),
(159,255,o),
(170,330,cs),
(181,405,o),
(226,455,o),
(287,455,cs),
(359,455,o),
(378,395,o),
(370,330,cs),
(360,255,o),
(315,210,o),
(244,210,cs)
);
}
);
};
layerId = m01;
shapes = (
{
closed = 1;
nodes = (
(316,460,l),
(464,430,ls),
(508,421,o),
(509,517,o),
(473,506,cs)
);
},
{
closed = 1;
nodes = (
(106,202,l),
(38,148,o),
(-14,80,o),
(70,34,c),
(-165,-122,o),
(-129,-251,o),
(139,-251,cs),
(319,-251,o),
(414,-153,o),
(414,-77,cs),
(414,-44,o),
(396,-10,o),
(360,6,cs),
(173,87,ls),
(105,117,o),
(84,133,o),
(141,183,c)
);
},
{
closed = 1;
nodes = (
(-38,-86,o),
(111,13,c),
(296,-64,ls),
(323,-75,o),
(350,-88,o),
(350,-112,cs),
(350,-150,o),
(290,-180,o),
(156,-180,cs),
(-42,-180,o)
);
},
{
closed = 1;
nodes = (
(314,505,o),
(263,505,cs),
(147,505,o),
(57,378,o),
(57,293,cs),
(57,206,o),
(132,168,o),
(197,168,cs),
(312,168,o),
(406,271,o),
(406,359,cs),
(406,475,o)
);
},
{
closed = 1;
nodes = (
(286,218,o),
(215,218,cs),
(165,218,o),
(151,257,o),
(151,306,cs),
(151,362,o),
(189,458,o),
(252,458,cs),
(286,458,o),
(318,429,o),
(318,368,cs),
(318,309,o)
);
}
);
width = 429;
},
{
anchors = (
{
name = bottom;
pos = (153,-250);
},
{
name = top;
pos = (340,500);
}
);
layerId = "6BC31736-8C9F-4B37-B5D4-AA29B85DBE0C";
shapes = (
{
closed = 1;
nodes = (
(316,460,l),
(464,430,ls),
(508,424,o),
(509,517,o),
(473,506,cs)
);
},
{
closed = 1;
nodes = (
(106,192,l),
(38,138,o),
(-14,70,o),
(70,24,c),
(-165,-132,o),
(-129,-261,o),
(139,-261,cs),
(319,-261,o),
(414,-163,o),
(414,-87,cs),
(414,-54,o),
(396,-25,o),
(360,-9,cs),
(173,72,ls),
(105,102,o),
(84,123,o),
(141,173,c)
);
},
{
closed = 1;
nodes = (
(-38,-96,o),
(111,3,c),
(296,-74,ls),
(323,-85,o),
(350,-98,o),
(350,-122,cs),
(350,-160,o),
(290,-190,o),
(156,-190,cs),
(-42,-190,o)
);
},
{
closed = 1;
nodes = (
(314,495,o),
(263,495,cs),
(147,495,o),
(57,368,o),
(57,283,cs),
(57,196,o),
(132,158,o),
(197,158,cs),
(312,158,o),
(417,261,o),
(417,349,cs),
(417,465,o)
);
},
{
closed = 1;
nodes = (
(286,208,o),
(215,208,cs),
(165,208,o),
(146,247,o),
(146,296,cs),
(146,352,o),
(189,448,o),
(252,448,cs),
(286,448,o),
(333,419,o),
(333,358,cs),
(333,299,o)
);
}
);
width = 482;
}
);
unicode = 103;
}
{
glyphname = h;
layers = (
{
anchors = (
{
name = bottom;
pos = (172,0);
},
{
name = center;
pos = (271,400);
},
{
name = top;
pos = (371,800);
}
);
background = {
shapes = (
{
closed = 1;
nodes = (
(336,-7,o),
(401,78,o),
(475,164,cs),
(492,183,o),
(466,204,o),
(451,189,cs),
(329,66,o),
(348,130,o),
(362,169,cs),
(396,266,ls),
(449,417,o),
(443,510,o),
(359,510,cs),
(302,510,o),
(225,460,o),
(140,326,c),
(269,805,l),
(262,814,l),
(181,802,l),
(166,799,o),
(154,798,o),
(106,791,c),
(99,790,o),
(99,764,o),
(106,761,c),
(164,735,o),
(161,739,o),
(145,676,c),
(-27,10,l),
(-20,0,l),
(57,0,l),
(76,114,o),
(202,410,o),
(311,410,cs),
(356,410,o),
(327,338,o),
(298,243,cs),
(283,194,ls),
(243,65,o),
(249,-7,o),
(285,-7,cs)
);
}
);
};
layerId = m01;
shapes = (
{
closed = 1;
nodes = (
(459,329,ls),
(491,417,o),
(482,510,o),
(398,510,cs),
(341,510,o),
(273,460,o),
(173,302,c),
(325,804,l),
(318,813,l),
(222,798,o),
(200,797,o),
(152,790,cs),
(144,789,o),
(145,750,o),
(152,750,cs),
(230,754,o),
(219,738,o),
(200,676,cs),
(93,329,l),
(-5,10,l),
(2,0,l),
(86,0,l),
(105,134,o),
(261,420,o),
(350,420,cs),
(395,420,o),
(391,370,o),
(351,261,cs),
(300,122,ls),
(267,31,o),
(288,-7,o),
(324,-7,cs),
(375,-7,o),
(450,78,o),
(524,164,cs),
(541,183,o),
(512,208,o),
(497,193,cs),
(375,70,o),
(378,104,o),
(401,169,cs)
);
}
);
width = 543;
},
{
anchors = (
{
name = bottom;
pos = (214,0);
},
{
name = center;
pos = (313,400);
},
{
name = top;
pos = (413,800);
}
);
layerId = "6BC31736-8C9F-4B37-B5D4-AA29B85DBE0C";
shapes = (
{
closed = 1;
nodes = (
(378,-7,o),
(443,78,o),
(517,164,cs),
(534,183,o),
(508,204,o),
(493,189,cs),
(371,66,o),
(390,130,o),
(404,169,cs),
(438,266,ls),
(491,417,o),
(485,510,o),
(401,510,cs),
(344,510,o),
(267,460,o),
(182,326,c),
(311,805,l),
(304,814,l),
(223,802,l),
(208,799,o),
(196,798,o),
(148,791,c),
(141,790,o),
(141,764,o),
(148,761,c),
(206,735,o),
(203,739,o),
(187,676,c),
(15,10,l),
(22,0,l),
(99,0,l),
(118,114,o),
(244,410,o),
(353,410,cs),
(398,410,o),
(369,338,o),
(340,243,cs),
(325,194,ls),
(285,65,o),
(291,-7,o),
(327,-7,cs)
);
}
);
width = 546;
}
);
unicode = 104;
}
{
glyphname = i;
layers = (
{
anchors = (
{
name = bottom;
pos = (84,0);
}
);
background = {
shapes = (
{
closed = 1;
nodes = (
(394,393,o),
(415,393,cs),
(444,393,o),
(468,421,o),
(468,454,cs),
(468,487,o),
(444,510,o),
(409,510,cs),
(360,510,o),
(291,424,o),
(193,268,c),
(247,422,o),
(261,510,o),
(208,510,cs),
(157,510,o),
(85,420,o),
(34,360,cs),
(23,347,o),
(50,324,o),
(59,335,cs),
(175,467,o),
(156,382,o),
(118,275,cs),
(23,10,l),
(30,0,l),
(108,0,l),
(170,210,o),
(313,403,o),
(373,403,cs),
(390,403,o)
);
}
);
};
layerId = m01;
shapes = (
{
closed = 1;
nodes = (
(38,364,o),
(65,339,o),
(80,353,cs),
(153,424,o),
(168,403,o),
(148,357,cs),
(51,136,ls),
(9,41,o),
(16,-7,o),
(72,-7,cs),
(123,-7,o),
(248,128,o),
(260,140,cs),
(272,151,o),
(246,180,o),
(236,170,cs),
(144,79,o),
(122,80,o),
(147,143,cs),
(237,368,ls),
(266,441,o),
(278,507,o),
(222,507,cs),
(171,507,o),
(108,432,o),
(49,375,cs)
);
},
{
closed = 1;
nodes = (
(305,622,o),
(332,649,o),
(332,682,cs),
(332,715,o),
(305,742,o),
(272,742,cs),
(239,742,o),
(212,715,o),
(212,682,cs),
(212,649,o),
(239,622,o),
(272,622,cs)
);
}
);
width = 282;
},
{
anchors = (
{
name = bottom;
pos = (104,0);
}
);
layerId = "6BC31736-8C9F-4B37-B5D4-AA29B85DBE0C";
shapes = (
{
closed = 1;
nodes = (
(28,364,o),
(58,326,o),
(74,339,cs),
(143,394,o),
(152,386,o),
(135,348,cs),
(67,194,ls),
(22,91,o),
(6,-7,o),
(92,-7,cs),
(163,-7,o),
(298,128,o),
(310,140,cs),
(322,151,o),
(286,186,o),
(276,176,cs),
(184,85,o),
(184,114,o),
(197,143,cs),
(267,306,ls),
(310,406,o),
(328,507,o),
(252,507,cs),
(191,507,o),
(98,432,o),
(39,375,cs)
);
},
{
closed = 1;
nodes = (
(355,606,o),
(391,642,o),
(391,686,cs),
(391,730,o),
(355,766,o),
(311,766,cs),
(267,766,o),
(231,730,o),
(231,686,cs),
(231,642,o),
(267,606,o),
(311,606,cs)
);
}
);
width = 336;
},
{
anchors = (
{
name = bottom;
pos = (111,0);
}
);
layerId = "ABF9DA73-21AD-4AF2-B0FF-D1BE084ED1D5";
shapes = (
{
closed = 1;
nodes = (
(25,364,o),
(56,322,o),
(72,334,cs),
(140,384,o),
(147,380,o),
(131,345,cs),
(72,213,ls),
(26,108,o),
(3,-7,o),
(99,-7,cs),
(176,-7,o),
(315,128,o),
(327,140,cs),
(339,151,o),
(299,188,o),
(289,178,cs),
(197,87,o),
(205,125,o),
(214,143,cs),
(277,285,ls),
(325,394,o),
(345,507,o),
(262,507,cs),
(198,507,o),
(95,432,o),
(36,375,cs)
);
},
{
closed = 1;
nodes = (
(372,601,o),
(411,640,o),
(411,687,cs),
(411,735,o),
(372,774,o),
(324,774,cs),
(276,774,o),
(237,735,o),
(237,687,cs),
(237,640,o),
(276,601,o),
(324,601,cs)
);
}
);
width = 354;
}
);
unicode = 105;
}
{
glyphname = j;
layers = (
{
background = {
shapes = (
{
closed = 1;
nodes = (
(38,364,o),
(65,339,o),
(80,353,cs),
(153,424,o),
(168,403,o),
(148,357,cs),
(51,136,ls),
(9,41,o),
(16,-7,o),
(72,-7,cs),
(123,-7,o),
(248,128,o),
(260,140,cs),
(272,151,o),
(246,180,o),
(236,170,cs),
(144,79,o),
(122,80,o),
(147,143,cs),
(237,368,ls),
(266,441,o),
(278,507,o),
(222,507,cs),
(171,507,o),
(108,432,o),
(49,375,cs)
);
},
{
closed = 1;
nodes = (
(305,622,o),
(332,649,o),
(332,682,cs),
(332,715,o),
(305,742,o),
(272,742,cs),
(239,742,o),
(212,715,o),
(212,682,cs),
(212,649,o),
(239,622,o),
(272,622,cs)
);
}
);
};
layerId = m01;
shapes = (
{
closed = 1;
nodes = (
(42,369,o),
(63,340,o),
(79,356,cs),
(192,469,o),
(149,374,o),
(137,336,cs),
(-20,-167,o),
(-24,-207,o),
(-133,-153,cs),
(-201,-120,o),
(-232,-234,o),
(-155,-255,cs),
(8,-299,o),
(153,111,o),
(216,311,cs),
(256,438,o),
(266,484,o),
(230,504,cs),
(177,534,o),
(96,427,o),
(53,381,cs)
);
},
{
closed = 1;
nodes = (
(291,612,o),
(318,639,o),
(318,672,cs),
(318,705,o),
(291,732,o),
(258,732,cs),
(225,732,o),
(198,705,o),
(198,672,cs),
(198,639,o),
(225,612,o),
(258,612,cs)
);
}
);
width = 257;
},
{
layerId = "6BC31736-8C9F-4B37-B5D4-AA29B85DBE0C";
shapes = (
{
closed = 1;
nodes = (
(33,368,o),
(64,333,o),
(81,346,cs),
(184,429,o),
(151,364,o),
(140,326,cs),
(-2,-177,o),
(7,-207,o),
(-106,-153,cs),
(-195,-110,o),
(-272,-259,o),
(-161,-285,cs),
(25,-329,o),
(222,116,o),
(281,291,cs),
(343,476,o),
(287,512,o),
(251,512,cs),
(190,512,o),
(83,427,o),
(43,381,cs)
);
},
{
closed = 1;
nodes = (
(344,606,o),
(380,642,o),
(380,686,cs),
(380,730,o),
(344,766,o),
(300,766,cs),
(256,766,o),
(220,730,o),
(220,686,cs),
(220,642,o),
(256,606,o),
(300,606,cs)
);
}
);
width = 324;
},
{
layerId = "ABF9DA73-21AD-4AF2-B0FF-D1BE084ED1D5";
shapes = (
{
closed = 1;
nodes = (
(30,368,o),
(64,331,o),
(82,343,cs),
(181,416,o),
(152,361,o),
(141,323,cs),
(4,-180,o),
(17,-207,o),
(-97,-153,cs),
(-193,-107,o),
(-285,-267,o),
(-163,-295,cs),
(31,-339,o),
(245,118,o),
(303,284,cs),
(372,489,o),
(294,521,o),
(258,515,cs),
(194,505,o),
(79,427,o),
(40,381,cs)
);
},
{
closed = 1;
nodes = (
(362,604,o),
(401,643,o),
(401,691,cs),
(401,738,o),
(362,777,o),
(314,777,cs),
(266,777,o),
(227,738,o),
(227,691,cs),
(227,643,o),
(266,604,o),
(314,604,cs)
);
}
);
width = 346.33333;
}
);
unicode = 106;
}
{
glyphname = k;
layers = (
{
anchors = (
{
name = bottom;
pos = (234,0);
},
{
name = top;
pos = (433,800);
}
);
background = {
shapes = (
{
closed = 1;
nodes = (
(126,165,l),
(536,285,o),
(485,510,o),
(401,510,cs),
(344,510,o),
(267,460,o),
(182,326,c),
(321,805,l),
(314,814,l),
(233,802,l),
(218,799,o),
(206,798,o),
(153,791,cs),
(141,789,o),
(145,750,o),
(153,750,cs),
(226,753,o),
(215,738,o),
(197,676,cs),
(5,10,l),
(12,0,l),
(89,0,l),
(118,184,o),
(234,410,o),
(343,410,cs),
(398,410,o),
(369,258,o),
(150,223,c)
);
},
{
closed = 1;
nodes = (
(251,210,l),
(166,185,l),
(233,85,ls),
(260,44,o),
(299,-10,o),
(329,-10,cs),
(356,-10,o),
(407,28,o),
(461,84,cs),
(471,95,o),
(449,123,o),
(433,109,cs),
(381,62,o),
(370,46,o),
(309,130,cs)
);
}
);
};
hints = (
{
name = _corner.mitre;
origin = (0,6);
type = Corner;
}
);
layerId = m01;
shapes = (
{
closed = 1;
nodes = (
(126,165,l),
(536,285,o),
(485,510,o),
(401,510,cs),
(344,510,o),
(267,460,o),
(177,316,c),
(321,805,l),
(314,814,l),
(153,791,ls),
(141,789,o),
(145,750,o),
(153,750,cs),
(226,753,o),
(215,738,o),
(197,676,cs),
(5,10,l),
(12,0,l),
(89,0,l),
(118,184,o),
(234,410,o),
(343,410,cs),
(398,410,o),
(369,258,o),
(150,223,c)
);
},
{
closed = 1;
nodes = (
(251,210,l),
(166,185,l),
(233,85,ls),
(260,44,o),
(299,-10,o),
(329,-10,cs),
(356,-10,o),
(407,28,o),
(461,84,cs),
(471,95,o),
(449,123,o),
(433,109,cs),
(381,62,o),
(370,46,o),
(309,130,cs)
);
}
);
width = 499;
},
{
anchors = (
{
name = bottom;
pos = (285,0);
},
{
name = top;
pos = (484,800);
}
);
hints = (
{
name = _corner.mitre;
options = 2;
origin = (0,6);
type = Corner;
}
);
layerId = "6BC31736-8C9F-4B37-B5D4-AA29B85DBE0C";
shapes = (
{
closed = 1;
nodes = (
(177,165,l),
(587,285,o),
(586,510,o),
(452,510,cs),
(395,510,o),
(318,460,o),
(238,356,c),
(372,805,l),
(365,814,l),
(144,791,ls),
(132,790,o),
(136,740,o),
(144,740,cs),
(207,740,o),
(206,738,o),
(188,676,cs),
(-4,10,l),
(3,0,l),
(140,0,l),
(159,184,o),
(275,390,o),
(374,390,cs),
(455,390,o),
(359,256,o),
(201,223,c)
);
},
{
closed = 1;
nodes = (
(322,225,l),
(187,185,l),
(277,50,ls),
(304,10,o),
(320,-10,o),
(340,-10,cs),
(377,-10,o),
(448,48,o),
(502,104,cs),
(512,115,o),
(480,153,o),
(464,139,cs),
(412,92,o),
(406,102,o),
(356,175,cs)
);
}
);
width = 575;
},
{
anchors = (
{
name = bottom;
pos = (302,0);
},
{
name = top;
pos = (501,800);
}
);
hints = (
{
name = _corner.mitre;
origin = (0,6);
type = Corner;
}
);
layerId = "ABF9DA73-21AD-4AF2-B0FF-D1BE084ED1D5";
shapes = (
{
closed = 1;
nodes = (
(194,165,l),
(604,285,o),
(620,510,o),
(469,510,cs),
(412,510,o),
(335,460,o),
(258,369,c),
(389,805,l),
(382,814,l),
(141,791,ls),
(129,790,o),
(133,737,o),
(141,737,cs),
(201,736,o),
(203,738,o),
(185,676,cs),
(-7,10,l),
(0,0,l),
(157,0,l),
(173,184,o),
(289,383,o),
(384,383,cs),
(474,383,o),
(356,255,o),
(218,223,c)
);
},
{
closed = 1;
nodes = (
(346,230,l),
(194,185,l),
(292,38,ls),
(319,-1,o),
(327,-10,o),
(344,-10,cs),
(384,-10,o),
(462,55,o),
(516,111,cs),
(526,122,o),
(490,163,o),
(474,149,cs),
(422,102,o),
(418,121,o),
(372,190,cs)
);
}
);
width = 600.33333;
}
);
unicode = 107;
}
{
glyphname = l;
layers = (
{
anchors = (
{
name = bottom;
pos = (60,0);
},
{
name = center;
pos = (159,400);
},
{
name = top;
pos = (259,800);
},
{
name = topright;
pos = (375,800);
}
);
background = {
shapes = (
{
closed = 1;
nodes = (
(192,801,l),
(177,798,o),
(165,797,o),
(118,790,c),
(110,789,o),
(111,763,o),
(118,761,c),
(176,734,o),
(173,738,o),
(158,675,c),
(40,194,ls),
(1,36,o),
(15,-7,o),
(51,-7,cs),
(102,-7,o),
(183,78,o),
(235,144,cs),
(245,157,o),
(223,184,o),
(208,168,cs),
(112,66,o),
(106,114,o),
(120,169,cs),
(280,804,l),
(273,813,l),
(273,813,l)
);
}
);
};
layerId = m01;
shapes = (
{
closed = 1;
nodes = (
(305,804,l),
(298,813,l),
(202,798,o),
(180,797,o),
(132,790,cs),
(124,789,o),
(125,750,o),
(132,750,cs),
(210,754,o),
(199,738,o),
(180,676,cs),
(18,139,ls),
(-6,56,o),
(-22,-7,o),
(34,-7,cs),
(85,-7,o),
(195,108,o),
(242,155,cs),
(253,166,o),
(226,196,o),
(212,182,cs),
(93,59,o),
(96,114,o),
(113,169,cs)
);
}
);
width = 267;
},
{
anchors = (
{
name = bottom;
pos = (115,0);
},
{
name = center;
pos = (214,400);
},
{
name = top;
pos = (314,800);
},
{
name = topright;
pos = (430,800);
}
);
layerId = "6BC31736-8C9F-4B37-B5D4-AA29B85DBE0C";
shapes = (
{
closed = 1;
nodes = (
(375,804,l),
(368,813,l),
(142,790,l),
(134,789,o),
(135,740,o),
(142,740,cs),
(210,744,o),
(210,738,o),
(190,676,cs),
(18,139,ls),
(-8,56,o),
(-2,-7,o),
(74,-7,cs),
(155,-7,o),
(255,108,o),
(302,155,cs),
(313,166,o),
(281,202,o),
(267,188,cs),
(148,65,o),
(156,114,o),
(173,169,cs)
);
}
);
width = 322;
},
{
layerId = "ABF9DA73-21AD-4AF2-B0FF-D1BE084ED1D5";
width = 429.33333;
}
);
unicode = 108;
}
{
glyphname = m;
layers = (
{
anchors = (
{
name = bottom;
pos = (366,0);
},
{
name = top;
pos = (490,500);
}
);
layerId = m01;
shapes = (
{
closed = 1;
nodes = (
(771,329,ls),
(803,417,o),
(794,510,o),
(710,510,cs),
(656,510,o),
(592,465,o),
(499,324,c),
(533,417,o),
(524,510,o),
(440,510,cs),
(379,510,o),
(306,453,o),
(194,268,c),
(269,477,o),
(247,510,o),
(224,510,cs),
(173,510,o),
(62,380,o),
(43,359,cs),
(32,346,o),
(61,315,o),
(75,331,cs),
(155,419,o),
(157,401,o),
(135,329,cs),
(37,10,l),
(44,0,l),
(128,0,l),
(147,134,o),
(303,420,o),
(392,420,cs),
(437,420,o),
(431,371,o),
(393,261,cs),
(307,10,l),
(314,0,l),
(398,0,l),
(417,134,o),
(573,420,o),
(662,420,cs),
(707,420,o),
(703,370,o),
(663,261,cs),
(612,122,ls),
(579,31,o),
(600,-7,o),
(636,-7,cs),
(687,-7,o),
(762,78,o),
(836,164,cs),
(853,183,o),
(823,209,o),
(809,193,cs),
(707,70,o),
(690,104,o),
(713,169,cs)
);
}
);
userData = {
com.GeorgSeifert.ImageExportSettings = {
path = "../../../Downloads";
presets = (
{
filename = "{{{glyph.name}}}";
format = SVG;
name = default;
size = 1050;
}
);
};
};
width = 855;
},
{
anchors = (
{
name = bottom;
pos = (366,0);
},
{
name = top;
pos = (490,500);
}
);
layerId = "6BC31736-8C9F-4B37-B5D4-AA29B85DBE0C";
shapes = (
{
closed = 1;
nodes = (
(737,266,ls),
(790,417,o),
(784,510,o),
(700,510,cs),
(645,510,o),
(571,463,o),
(489,338,c),
(516,446,o),
(510,510,o),
(440,510,cs),
(379,510,o),
(296,453,o),
(204,298,c),
(246,442,o),
(237,505,o),
(204,505,cs),
(153,505,o),
(72,420,o),
(53,399,cs),
(42,386,o),
(68,359,o),
(83,374,cs),
(143,432,o),
(152,383,o),
(135,329,cs),
(37,10,l),
(44,0,l),
(128,0,l),
(157,114,o),
(283,410,o),
(392,410,cs),
(437,410,o),
(408,338,o),
(379,243,cs),
(307,10,l),
(314,0,l),
(398,0,l),
(427,114,o),
(543,410,o),
(652,410,cs),
(697,410,o),
(668,338,o),
(639,243,cs),
(624,194,ls),
(584,65,o),
(590,-7,o),
(626,-7,cs),
(677,-7,o),
(742,78,o),
(816,164,cs),
(833,183,o),
(807,204,o),
(792,189,cs),
(670,66,o),
(689,130,o),
(703,169,cs)
);
}
);
userData = {
com.GeorgSeifert.ImageExportSettings = {
path = "../../../Downloads";
presets = (
{
filename = "{{{glyph.name}}}";
format = SVG;
name = default;
size = 1050;
}
);
};
};
width = 845;
}
);
unicode = 109;
}
{
glyphname = n;
layers = (
{
anchors = (
{
name = bottom;
pos = (236,0);
},
{
name = top;
pos = (360,500);
}
);
background = {
shapes = (
{
closed = 1;
nodes = (
(501,329,ls),
(533,417,o),
(524,510,o),
(440,510,cs),
(379,510,o),
(306,453,o),
(194,268,c),
(269,477,o),
(247,510,o),
(224,510,cs),
(173,510,o),
(62,380,o),
(43,359,cs),
(32,346,o),
(61,315,o),
(75,331,cs),
(155,419,o),
(157,401,o),
(135,329,cs),
(37,10,l),
(44,0,l),
(128,0,l),
(147,134,o),
(303,420,o),
(392,420,cs),
(437,420,o),
(433,370,o),
(393,261,cs),
(342,122,ls),
(309,31,o),
(330,-7,o),
(366,-7,cs),
(417,-7,o),
(492,78,o),
(566,164,cs),
(583,183,o),
(553,209,o),
(539,193,cs),
(437,70,o),
(420,104,o),
(443,169,cs)
);
}
);
};
hints = (
{
name = _corner.mitre;
origin = (0,6);
type = Corner;
}
);
layerId = m01;
shapes = (
{
closed = 1;
nodes = (
(501,329,ls),
(533,417,o),
(524,510,o),
(440,510,cs),
(379,510,o),
(306,453,o),
(189,258,c),
(269,477,o),
(247,510,o),
(224,510,cs),
(173,510,o),
(62,380,o),
(43,359,cs),
(32,346,o),
(61,315,o),
(75,331,cs),
(155,419,o),
(157,401,o),
(135,329,cs),
(37,10,l),
(44,0,l),
(128,0,l),
(147,134,o),
(303,420,o),
(392,420,cs),
(437,420,o),
(433,370,o),
(393,261,cs),
(342,122,ls),
(309,31,o),
(330,-7,o),
(366,-7,cs),
(417,-7,o),
(492,78,o),
(566,164,cs),
(583,183,o),
(553,209,o),
(539,193,cs),
(437,70,o),
(420,104,o),
(443,169,cs)
);
}
);
width = 585;
},
{
anchors = (
{
name = bottom;
pos = (236,0);
},
{
name = top;
pos = (360,500);
}
);
background = {
shapes = (
{
closed = 1;
nodes = (
(477,266,ls),
(530,417,o),
(524,510,o),
(440,510,cs),
(379,510,o),
(296,453,o),
(204,298,c),
(246,442,o),
(237,505,o),
(204,505,cs),
(153,505,o),
(72,420,o),
(53,399,cs),
(42,386,o),
(68,359,o),
(83,374,cs),
(143,432,o),
(152,383,o),
(135,329,cs),
(37,10,l),
(44,0,l),
(128,0,l),
(157,114,o),
(283,410,o),
(392,410,cs),
(437,410,o),
(408,338,o),
(379,243,cs),
(364,194,ls),
(324,65,o),
(330,-7,o),
(366,-7,cs),
(417,-7,o),
(482,78,o),
(556,164,cs),
(573,183,o),
(547,204,o),
(532,189,cs),
(410,66,o),
(429,130,o),
(443,169,cs)
);
}
);
};
hints = (
{
name = _corner.mitre;
options = 2;
origin = (0,28);
type = Corner;
}
);
layerId = "6BC31736-8C9F-4B37-B5D4-AA29B85DBE0C";
shapes = (
{
closed = 1;
nodes = (
(581,329,ls),
(613,417,o),
(614,510,o),
(510,510,cs),
(433,510,o),
(365,460,o),
(261,292,c),
(328,467,o),
(297,510,o),
(254,510,cs),
(173,510,o),
(62,380,o),
(43,359,cs),
(32,346,o),
(59,317,o),
(75,331,cs),
(155,399,o),
(157,401,o),
(129,311,cs),
(37,10,l),
(44,0,l),
(178,0,l),
(197,134,o),
(343,390,o),
(432,390,cs),
(457,390,o),
(453,370,o),
(413,261,cs),
(372,149,ls),
(329,31,o),
(370,-7,o),
(416,-7,cs),
(477,-7,o),
(562,68,o),
(656,154,cs),
(669,166,o),
(635,207,o),
(619,193,cs),
(477,70,o),
(510,131,o),
(530,187,cs)
);
}
);
width = 585;
},
{
layerId = "ABF9DA73-21AD-4AF2-B0FF-D1BE084ED1D5";
width = 780;
}
);
unicode = 110;
}
{
glyphname = o;
layers = (
{
anchors = (
{
name = bottom;
pos = (198,0);
},
{
name = center;
pos = (260,250);
},
{
name = ogonek;
pos = (414,10);
},
{
name = top;
pos = (322,500);
},
{
name = topright;
pos = (570,500);
}
);
background = {
shapes = (
{
closed = 1;
nodes = (
(396,-10,o),
(525,112,o),
(525,268,cs),
(525,403,o),
(435,510,o),
(302,510,cs),
(168,510,o),
(43,384,o),
(43,232,cs),
(43,97,o),
(133,-10,o),
(266,-10,cs)
);
},
{
closed = 1;
nodes = (
(201,60,o),
(138,135,o),
(138,279,cs),
(138,374,o),
(178,440,o),
(264,440,cs),
(367,440,o),
(430,365,o),
(430,221,cs),
(430,126,o),
(390,60,o),
(304,60,cs)
);
}
);
};
layerId = m01;
shapes = (
{
closed = 1;
nodes = (
(196,518,o),
(81,346,o),
(57,236,cs),
(30,111,o),
(80,-3,o),
(181,-9,cs),
(320,-16,o),
(464,142,o),
(474,315,cs),
(480,412,o),
(428,505,o),
(337,510,cs)
);
},
{
closed = 1;
nodes = (
(373,219,o),
(320,46,o),
(225,53,cs),
(185,56,o),
(145,101,o),
(151,219,cs),
(155,283,o),
(198,454,o),
(293,449,cs),
(343,446,o),
(383,401,o),
(378,313,cs)
);
}
);
width = 504;
}
);
unicode = 111;
}
{
glyphname = p;
layers = (
{
anchors = (
{
name = bottom;
pos = (181,0);
},
{
name = top;
pos = (305,500);
}
);
background = {
shapes = (
{
closed = 1;
nodes = (
(272,-12,o),
(404,129,o),
(450,268,cs),
(500,418,o),
(458,510,o),
(404,510,cs),
(362,510,o),
(285,464,o),
(214,374,c),
(350,804,l),
(343,813,l),
(247,798,o),
(225,797,o),
(177,790,cs),
(169,789,o),
(170,750,o),
(177,750,cs),
(245,754,o),
(244,738,o),
(225,676,cs),
(77,194,ls),
(47,95,o),
(52,-8,o),
(155,-10,cs)
);
},
{
closed = 1;
nodes = (
(128,105,o),
(153,177,cs),
(208,333,o),
(294,412,o),
(338,412,cs),
(363,412,o),
(408,368,o),
(362,239,cs),
(315,109,o),
(253,52,o),
(200,52,cs),
(149,52,o)
);
}
);
};
layerId = m01;
shapes = (
{
closed = 1;
nodes = (
(148,468,o),
(146,379,o),
(93,214,cs),
(-16,-128,ls),
(-36,-190,o),
(-34,-192,o),
(-106,-207,c),
(-114,-211,o),
(-110,-251,o),
(-101,-251,c),
(-45,-251,o),
(-31,-250,o),
(-13,-250,c),
(13,-250,l),
(38,-250,o),
(58,-251,o),
(138,-251,c),
(151,-251,o),
(157,-214,o),
(146,-209,c),
(47,-191,o),
(51,-185,o),
(72,-116,cs),
(203,309,ls),
(230,396,o),
(264,520,o),
(281,581,c),
(273,589,l),
(154,551,l)
);
},
{
closed = 1;
nodes = (
(551,553,o),
(288,604,o),
(38,307,cs),
(28,295,o),
(51,267,o),
(62,279,cs),
(344,564,o),
(429,438,o),
(356,234,cs),
(289,45,o),
(178,65,o),
(122,111,c),
(57,23,l),
(146,-55,o),
(381,46,o),
(462,289,cs)
);
}
);
width = 479;
},
{
anchors = (
{
name = bottom;
pos = (181,0);
},
{
name = top;
pos = (305,500);
}
);
layerId = "6BC31736-8C9F-4B37-B5D4-AA29B85DBE0C";
shapes = (
{
closed = 1;
nodes = (
(148,468,o),
(146,379,o),
(93,214,cs),
(-16,-128,ls),
(-36,-190,o),
(-34,-192,o),
(-106,-207,c),
(-114,-211,o),
(-110,-251,o),
(-101,-251,c),
(-45,-251,o),
(-31,-250,o),
(-13,-250,c),
(13,-250,l),
(38,-250,o),
(58,-251,o),
(138,-251,c),
(151,-251,o),
(157,-214,o),
(146,-209,c),
(47,-191,o),
(51,-185,o),
(72,-116,cs),
(203,309,ls),
(230,396,o),
(264,520,o),
(281,581,c),
(273,589,l),
(154,551,l)
);
},
{
closed = 1;
nodes = (
(551,553,o),
(288,604,o),
(38,307,cs),
(28,295,o),
(51,267,o),
(62,279,cs),
(344,564,o),
(429,438,o),
(356,234,cs),
(289,45,o),
(178,65,o),
(122,111,c),
(57,23,l),
(146,-55,o),
(381,46,o),
(462,289,cs)
);
}
);
width = 499;
},
{
anchors = (
{
name = bottom;
pos = (181,0);
},
{
name = top;
pos = (305,500);
}
);
layerId = "ABF9DA73-21AD-4AF2-B0FF-D1BE084ED1D5";
shapes = (
{
closed = 1;
nodes = (
(148,468,o),
(146,379,o),
(93,214,cs),
(-16,-128,ls),
(-36,-190,o),
(-34,-192,o),
(-106,-207,c),
(-114,-211,o),
(-110,-251,o),
(-101,-251,c),
(-45,-251,o),
(-31,-250,o),
(-13,-250,c),
(13,-250,l),
(38,-250,o),
(58,-251,o),
(138,-251,c),
(151,-251,o),
(157,-214,o),
(146,-209,c),
(47,-191,o),
(51,-185,o),
(72,-116,cs),
(203,309,ls),
(230,396,o),
(264,520,o),
(281,581,c),
(273,589,l),
(154,551,l)
);
},
{
closed = 1;
nodes = (
(551,553,o),
(288,604,o),
(38,307,cs),
(28,295,o),
(51,267,o),
(62,279,cs),
(344,564,o),
(429,438,o),
(356,234,cs),
(289,45,o),
(178,65,o),
(122,111,c),
(57,23,l),
(146,-55,o),
(381,46,o),
(462,289,cs)
);
}
);
width = 505.66667;
}
);
unicode = 112;
}
{
glyphname = q;
layers = (
{
anchors = (
{
name = bottom;
pos = (206,0);
},
{
name = top;
pos = (330,500);
}
);
background = {
shapes = (
{
closed = 1;
nodes = (
(390,480,l),
(312,189,l),
(202,-128,ls),
(180,-191,o),
(170,-187,o),
(90,-212,c),
(80,-216,o),
(85,-251,o),
(97,-251,c),
(169,-251,o),
(187,-250,o),
(209,-250,c),
(245,-250,l),
(262,-250,o),
(276,-251,o),
(332,-251,c),
(342,-251,o),
(346,-211,o),
(338,-207,c),
(276,-192,o),
(275,-191,o),
(293,-128,c),
(481,494,l),
(474,502,l)
);
},
{
closed = 1;
nodes = (
(-12,82,o),
(40,-10,o),
(94,-10,cs),
(155,-10,o),
(287,85,o),
(371,270,c),
(355,350,l),
(309,188,o),
(209,88,o),
(160,88,cs),
(125,88,o),
(85,132,o),
(136,261,cs),
(207,440,o),
(285,463,o),
(370,390,c),
(408,475,l),
(333,572,o),
(117,434,o),
(43,232,cs)
);
}
);
};
hints = (
{
name = _corner.mitre;
origin = (0,9);
type = Corner;
}
);
layerId = m01;
shapes = (
{
closed = 1;
nodes = (
(401,483,l),
(321,564,o),
(115,428,o),
(43,232,cs),
(-12,82,o),
(40,-10,o),
(94,-10,cs),
(139,-10,o),
(221,41,o),
(300,150,c),
(202,-128,ls),
(180,-191,o),
(170,-187,o),
(90,-212,cs),
(80,-216,o),
(85,-251,o),
(97,-251,cs),
(169,-251,o),
(187,-250,o),
(209,-250,cs),
(245,-250,ls),
(262,-250,o),
(276,-251,o),
(332,-251,cs),
(342,-251,o),
(346,-211,o),
(338,-207,c),
(276,-192,o),
(275,-191,o),
(293,-128,cs),
(481,494,l),
(474,502,l)
);
},
{
closed = 1;
nodes = (
(206,438,o),
(283,462,o),
(367,393,c),
(355,350,ls),
(309,188,o),
(209,88,o),
(160,88,cs),
(125,88,o),
(85,132,o),
(136,261,cs)
);
}
);
width = 483;
},
{
anchors = (
{
name = bottom;
pos = (209,0);
},
{
name = top;
pos = (333,500);
}
);
layerId = "6BC31736-8C9F-4B37-B5D4-AA29B85DBE0C";
shapes = (
{
closed = 1;
nodes = (
(393,480,l),
(215,-128,l),
(196,-191,o),
(183,-187,o),
(103,-222,c),
(93,-226,o),
(98,-251,o),
(110,-251,c),
(182,-251,o),
(200,-250,o),
(222,-250,c),
(258,-250,l),
(275,-250,o),
(289,-251,o),
(345,-251,c),
(355,-251,o),
(359,-226,o),
(351,-222,c),
(289,-187,o),
(288,-191,o),
(306,-128,c),
(484,494,l),
(477,502,l)
);
},
{
closed = 1;
nodes = (
(8,78,o),
(24,-12,o),
(108,-12,cs),
(169,-12,o),
(253,45,o),
(365,200,c),
(329,230,l),
(276,138,o),
(212,78,o),
(173,78,cs),
(118,78,o),
(100,128,o),
(135,261,cs),
(183,441,o),
(302,453,o),
(371,390,c),
(421,475,l),
(317,572,o),
(97,436,o),
(46,232,cs)
);
}
);
width = 486;
},
{
layerId = "ABF9DA73-21AD-4AF2-B0FF-D1BE084ED1D5";
width = 648;
}
);
unicode = 113;
}
{
glyphname = r;
layers = (
{
anchors = (
{
name = bottom;
pos = (146,0);
},
{
name = top;
pos = (270,500);
}
);
background = {
shapes = (
{
closed = 1;
nodes = (
(441,350,o),
(465,500,o),
(371,500,cs),
(310,500,o),
(299,453,o),
(193,288,c),
(239,442,o),
(218,505,o),
(185,505,cs),
(134,505,o),
(56,420,o),
(38,399,cs),
(27,386,o),
(54,359,o),
(69,374,cs),
(127,432,o),
(137,383,o),
(122,329,cs),
(36,10,l),
(43,0,l),
(127,0,l),
(178,234,o),
(296,396,o),
(346,380,cs)
);
}
);
};
layerId = m01;
shapes = (
{
closed = 1;
nodes = (
(384,393,o),
(405,393,cs),
(434,393,o),
(458,421,o),
(458,454,cs),
(458,487,o),
(434,510,o),
(399,510,cs),
(350,510,o),
(281,424,o),
(183,268,c),
(237,422,o),
(251,510,o),
(198,510,cs),
(147,510,o),
(75,420,o),
(24,360,cs),
(13,347,o),
(40,324,o),
(49,335,cs),
(165,467,o),
(146,382,o),
(108,275,cs),
(13,10,l),
(20,0,l),
(98,0,l),
(160,210,o),
(303,403,o),
(363,403,cs),
(380,403,o)
);
}
);
width = 405;
},
{
anchors = (
{
name = bottom;
pos = (166,0);
},
{
name = top;
pos = (290,500);
}
);
layerId = "6BC31736-8C9F-4B37-B5D4-AA29B85DBE0C";
shapes = (
{
closed = 1;
nodes = (
(400,375,o),
(424,375,cs),
(458,375,o),
(485,407,o),
(485,445,cs),
(485,484,o),
(458,510,o),
(417,510,cs),
(361,510,o),
(311,424,o),
(213,268,c),
(267,422,o),
(271,510,o),
(218,510,cs),
(167,510,o),
(95,420,o),
(44,360,cs),
(33,347,o),
(60,324,o),
(69,335,cs),
(185,467,o),
(163,383,o),
(128,275,cs),
(43,10,l),
(50,0,l),
(128,0,l),
(190,210,o),
(315,387,o),
(375,387,cs),
(395,387,o)
);
}
);
width = 425;
}
);
unicode = 114;
}
{
glyphname = s;
layers = (
{
anchors = (
{
name = bottom;
pos = (119,0);
},
{
name = top;
pos = (243,500);
}
);
background = {
shapes = (
{
closed = 1;
nodes = (
(89,57,o),
(76,134,o),
(51,134,cs),
(29,134,o),
(-6,109,o),
(-6,72,cs),
(-6,22,o),
(52,-12,o),
(104,-12,cs),
(212,-12,o),
(303,58,o),
(303,162,cs),
(303,263,o),
(164,316,o),
(164,393,cs),
(164,415,o),
(182,439,o),
(213,441,cs),
(266,444,o),
(290,386,o),
(307,386,cs),
(331,386,o),
(362,424,o),
(362,454,cs),
(362,491,o),
(303,513,o),
(262,510,cs),
(153,503,o),
(85,419,o),
(85,335,cs),
(85,253,o),
(220,180,o),
(220,119,cs),
(220,83,o),
(197,50,o),
(152,53,cs)
);
}
);
};
layerId = m01;
shapes = (
{
closed = 1;
nodes = (
(164,57,o),
(127,57,cs),
(68,57,o),
(79,119,o),
(32,119,cs),
(9,119,o),
(-18,103,o),
(-18,65,cs),
(-18,30,o),
(18,-12,o),
(78,-12,cs),
(154,-12,o),
(287,74,o),
(287,180,cs),
(287,280,o),
(158,303,o),
(158,376,cs),
(158,412,o),
(181,436,o),
(215,436,cs),
(254,436,o),
(266,396,o),
(295,396,cs),
(322,396,o),
(346,424,o),
(347,452,cs),
(347,485,o),
(315,512,o),
(266,512,cs),
(181,512,o),
(81,410,o),
(81,341,cs),
(81,254,o),
(211,207,o),
(211,137,cs),
(211,99,o)
);
}
);
width = 325;
},
{
anchors = (
{
name = bottom;
pos = (117,0);
},
{
name = top;
pos = (241,500);
}
);
layerId = "6BC31736-8C9F-4B37-B5D4-AA29B85DBE0C";
shapes = (
{
closed = 1;
nodes = (
(87,57,o),
(74,134,o),
(49,134,cs),
(27,134,o),
(-8,109,o),
(-8,72,cs),
(-8,22,o),
(50,-12,o),
(102,-12,cs),
(210,-12,o),
(301,58,o),
(301,162,cs),
(301,263,o),
(162,316,o),
(162,393,cs),
(162,415,o),
(180,439,o),
(211,441,cs),
(264,444,o),
(288,386,o),
(305,386,cs),
(329,386,o),
(360,424,o),
(360,454,cs),
(360,491,o),
(301,513,o),
(260,510,cs),
(151,503,o),
(83,419,o),
(83,335,cs),
(83,253,o),
(218,180,o),
(218,119,cs),
(218,83,o),
(195,50,o),
(150,53,cs)
);
}
);
width = 358;
},
{
layerId = "ABF9DA73-21AD-4AF2-B0FF-D1BE084ED1D5";
width = 477.33333;
}
);
unicode = 115;
}
{
glyphname = t;
layers = (
{
anchors = (
{
name = bottom;
pos = (106,0);
},
{
name = center;
pos = (168,250);
},
{
name = top;
pos = (230,500);
},
{
name = topright;
pos = (462,800);
}
);
background = {
shapes = (
{
closed = 1;
nodes = (
(105,-28,o),
(214,-44,o),
(351,42,c),
(332,82,l),
(240,36,o),
(196,66,o),
(196,169,cs),
(196,259,o),
(196,340,o),
(201,430,c),
(321,430,l),
(331,490,l),
(196,480,l),
(201,611,ls),
(202,626,o),
(146,616,o),
(143,601,cs),
(119,480,o),
(97,476,o),
(36,470,cs),
(26,469,o),
(31,430,o),
(41,430,c),
(109,430,l),
(104,331,o),
(98,255,o),
(101,132,cs)
);
}
);
};
layerId = m01;
shapes = (
{
closed = 1;
nodes = (
(5,-49,o),
(111,-68,o),
(292,124,c),
(303.149,134.034,o),
(276.149,164.034,o),
(265,154,c),
(114,22,o),
(142,93,o),
(161,186,cs),
(178,268,o),
(195,330,o),
(225,430,c),
(325,420,l),
(338.927,414.429,o),
(366.927,484.429,o),
(353,490,c),
(243,480,l),
(283,611,ls),
(288,626,o),
(185,616,o),
(177,601,c),
(141,477,l),
(70,470,l),
(59,466,o),
(55,430,o),
(65,430,c),
(128,430,l),
(96,331,o),
(67,234,o),
(48,149,cs)
);
}
);
width = 345;
},
{
anchors = (
{
name = bottom;
pos = (106,0);
},
{
name = center;
pos = (168,250);
},
{
name = top;
pos = (230,500);
},
{
name = topright;
pos = (462,800);
}
);
background = {
shapes = (
{
closed = 1;
nodes = (
(105,-28,o),
(214,-44,o),
(351,42,c),
(332,82,l),
(240,36,o),
(196,66,o),
(196,169,cs),
(196,259,o),
(196,340,o),
(201,430,c),
(321,430,l),
(331,490,l),
(196,480,l),
(201,611,ls),
(202,626,o),
(146,616,o),
(143,601,cs),
(119,480,o),
(97,476,o),
(36,470,cs),
(26,469,o),
(31,430,o),
(41,430,c),
(109,430,l),
(104,331,o),
(98,255,o),
(101,132,cs)
);
}
);
};
layerId = m002;
shapes = (
{
closed = 1;
nodes = (
(5,-49,o),
(111,-68,o),
(292,124,c),
(303.149,134.034,o),
(276.149,164.034,o),
(265,154,c),
(114,22,o),
(142,93,o),
(161,186,cs),
(178,268,o),
(195,330,o),
(225,430,c),
(325,420,l),
(338.927,414.429,o),
(366.927,484.429,o),
(353,490,c),
(243,480,l),
(283,611,ls),
(288,626,o),
(185,616,o),
(177,601,c),
(141,477,l),
(70,470,l),
(59,466,o),
(55,430,o),
(65,430,c),
(128,430,l),
(96,331,o),
(67,234,o),
(48,149,cs)
);
}
);
width = 345;
},
{
anchors = (
{
name = bottom;
pos = (106,0);
},
{
name = center;
pos = (168,250);
},
{
name = top;
pos = (230,500);
},
{
name = topright;
pos = (462,800);
}
);
layerId = "6BC31736-8C9F-4B37-B5D4-AA29B85DBE0C";
shapes = (
{
closed = 1;
nodes = (
(5,-49,o),
(111,-68,o),
(292,124,c),
(303,134,o),
(276,164,o),
(265,154,c),
(114,22,o),
(142,93,o),
(161,186,cs),
(178,268,o),
(195,330,o),
(225,430,c),
(325,420,l),
(339,414,o),
(367,484,o),
(353,490,c),
(243,480,l),
(283,611,ls),
(288,626,o),
(185,616,o),
(177,601,c),
(141,477,l),
(70,470,l),
(59,466,o),
(55,430,o),
(65,430,c),
(128,430,l),
(96,331,o),
(67,234,o),
(48,149,cs)
);
}
);
width = 345;
}
);
unicode = 116;
}
{
glyphname = u;
layers = (
{
anchors = (
{
name = bottom;
pos = (222,0);
},
{
name = ogonek;
pos = (477,10);
},
{
name = top;
pos = (346,500);
},
{
name = topright;
pos = (642,500);
}
);
background = {
shapes = (
{
closed = 0;
nodes = (
(439,169,l),
(535,505,l)
);
},
{
closed = 1;
nodes = (
(441,480,l),
(359,194,ls),
(322,66,o),
(331,-7,o),
(367,-7,cs),
(418,-7,o),
(500,78,o),
(543,124,cs),
(554,137,o),
(532,164,o),
(516,149,cs),
(429,66,o),
(423,114,o),
(439,169,cs),
(535,505,l),
(535,505,l)
);
},
{
closed = 1;
nodes = (
(46,78,o),
(72,-12,o),
(156,-12,cs),
(217,-12,o),
(301,45,o),
(413,200,c),
(377,220,l),
(377,220,l),
(324,128,o),
(255,88,o),
(216,88,cs),
(161,88,o),
(150,127,o),
(188,279,cs),
(231,451,o),
(350,453,o),
(419,390,c),
(469,475,l),
(365,572,o),
(135,436,o),
(84,232,cs)
);
}
);
};
layerId = m01;
shapes = (
{
closed = 1;
nodes = (
(193,-7,o),
(276,50,o),
(368,205,c),
(326,61,o),
(335,-2,o),
(368,-2,cs),
(419,-2,o),
(500,83,o),
(539,125,cs),
(550,137,o),
(524,164,o),
(509,149,cs),
(429,71,o),
(420,120,o),
(437,174,cs),
(535,490,l),
(528,500,l),
(444,500,l),
(415,386,o),
(289,93,o),
(180,93,cs),
(135,93,o),
(161,165,o),
(195,260,cs),
(255,425,ls),
(273,476,o),
(266,512,o),
(230,512,cs),
(179,512,o),
(94,427,o),
(69,400,cs),
(58,388,o),
(79,361,o),
(95,376,cs),
(166,439,o),
(170,433,o),
(133,336,cs),
(95,237,ls),
(39,90,o),
(48,-7,o),
(132,-7,cs)
);
}
);
width = 576;
},
{
anchors = (
{
name = bottom;
pos = (222,0);
},
{
name = ogonek;
pos = (477,10);
},
{
name = top;
pos = (346,500);
},
{
name = topright;
pos = (642,500);
}
);
background = {
shapes = (
{
closed = 0;
nodes = (
(439,169,l),
(535,505,l)
);
},
{
closed = 1;
nodes = (
(441,480,l),
(359,194,ls),
(322,66,o),
(331,-7,o),
(367,-7,cs),
(418,-7,o),
(500,78,o),
(543,124,cs),
(554,137,o),
(532,164,o),
(516,149,cs),
(429,66,o),
(423,114,o),
(439,169,cs),
(535,505,l),
(535,505,l)
);
},
{
closed = 1;
nodes = (
(46,78,o),
(72,-12,o),
(156,-12,cs),
(217,-12,o),
(301,45,o),
(413,200,c),
(377,220,l),
(377,220,l),
(324,128,o),
(255,88,o),
(216,88,cs),
(161,88,o),
(150,127,o),
(188,279,cs),
(231,451,o),
(350,453,o),
(419,390,c),
(469,475,l),
(365,572,o),
(135,436,o),
(84,232,cs)
);
}
);
};
layerId = m002;
shapes = (
{
closed = 1;
nodes = (
(193,-7,o),
(276,50,o),
(368,205,c),
(326,61,o),
(335,-2,o),
(368,-2,cs),
(419,-2,o),
(500,83,o),
(539,125,cs),
(550,137,o),
(524,164,o),
(509,149,cs),
(429,71,o),
(420,120,o),
(437,174,cs),
(535,490,l),
(528,500,l),
(444,500,l),
(415,386,o),
(289,93,o),
(180,93,cs),
(135,93,o),
(161,165,o),
(195,260,cs),
(255,425,ls),
(273,476,o),
(266,512,o),
(230,512,cs),
(179,512,o),
(94,427,o),
(69,400,cs),
(58,388,o),
(79,361,o),
(95,376,cs),
(166,439,o),
(170,433,o),
(133,336,cs),
(95,237,ls),
(39,90,o),
(48,-7,o),
(132,-7,cs)
);
}
);
width = 576;
},
{
anchors = (
{
name = bottom;
pos = (222,0);
},
{
name = ogonek;
pos = (477,10);
},
{
name = top;
pos = (346,500);
},
{
name = topright;
pos = (642,500);
}
);
layerId = "6BC31736-8C9F-4B37-B5D4-AA29B85DBE0C";
shapes = (
{
closed = 1;
nodes = (
(193,-7,o),
(276,50,o),
(368,205,c),
(326,61,o),
(335,-2,o),
(368,-2,cs),
(419,-2,o),
(500,83,o),
(539,125,cs),
(550,137,o),
(524,164,o),
(509,149,cs),
(429,71,o),
(420,120,o),
(437,174,cs),
(535,490,l),
(528,500,l),
(444,500,l),
(415,386,o),
(289,93,o),
(180,93,cs),
(135,93,o),
(161,165,o),
(195,260,cs),
(255,425,ls),
(273,476,o),
(266,512,o),
(230,512,cs),
(179,512,o),
(94,427,o),
(69,400,cs),
(58,388,o),
(79,361,o),
(95,376,cs),
(166,439,o),
(170,433,o),
(133,336,cs),
(95,237,ls),
(39,90,o),
(48,-7,o),
(132,-7,cs)
);
}
);
width = 576;
}
);
unicode = 117;
}
{
glyphname = v;
layers = (
{
anchors = (
{
name = bottom;
pos = (187,0);
},
{
name = top;
pos = (311,500);
}
);
layerId = m01;
shapes = (
{
closed = 1;
nodes = (
(183,-7,o),
(313,54,o),
(398,215,cs),
(430,276,o),
(466,366,o),
(466,428,cs),
(466,501,o),
(436,510,o),
(408,510,cs),
(374,510,o),
(351,469,o),
(367,410,cs),
(406,264,o),
(282,73,o),
(190,73,cs),
(125,73,o),
(141,165,o),
(175,260,cs),
(218,380,ls),
(252,476,o),
(246,512,o),
(210,512,cs),
(159,512,o),
(74,427,o),
(29,380,cs),
(18,368,o),
(39,341,o),
(55,356,cs),
(146,439,o),
(150,433,o),
(113,336,cs),
(75,237,ls),
(19,90,o),
(38,-7,o),
(122,-7,cs)
);
}
);
width = 478;
},
{
anchors = (
{
name = bottom;
pos = (197,0);
},
{
name = top;
pos = (321,500);
}
);
layerId = "6BC31736-8C9F-4B37-B5D4-AA29B85DBE0C";
shapes = (
{
closed = 1;
nodes = (
(193,-7,o),
(323,54,o),
(408,215,cs),
(440,276,o),
(476,366,o),
(476,428,cs),
(476,501,o),
(446,510,o),
(418,510,cs),
(384,510,o),
(352,470,o),
(367,410,cs),
(396,294,o),
(322,93,o),
(200,93,cs),
(135,93,o),
(151,165,o),
(185,260,cs),
(228,380,ls),
(262,476,o),
(256,512,o),
(220,512,cs),
(169,512,o),
(84,427,o),
(59,400,cs),
(48,388,o),
(69,361,o),
(85,376,cs),
(156,439,o),
(160,433,o),
(123,336,cs),
(85,237,ls),
(29,90,o),
(48,-7,o),
(132,-7,cs)
);
}
);
width = 498;
},
{
anchors = (
{
name = bottom;
pos = (200,0);
},
{
name = top;
pos = (324,500);
}
);
layerId = "ABF9DA73-21AD-4AF2-B0FF-D1BE084ED1D5";
shapes = (
{
closed = 1;
nodes = (
(196,-7,o),
(326,54,o),
(411,215,cs),
(443,276,o),
(479,366,o),
(479,428,cs),
(479,501,o),
(449,510,o),
(421,510,cs),
(387,510,o),
(352,470,o),
(367,410,cs),
(393,304,o),
(335,100,o),
(203,100,cs),
(138,100,o),
(154,165,o),
(188,260,cs),
(231,380,ls),
(265,476,o),
(259,512,o),
(223,512,cs),
(172,512,o),
(87,427,o),
(69,407,cs),
(58,395,o),
(79,368,o),
(95,383,cs),
(159,439,o),
(163,433,o),
(126,336,cs),
(88,237,ls),
(32,90,o),
(51,-7,o),
(135,-7,cs)
);
}
);
width = 504.66667;
}
);
unicode = 118;
}
{
glyphname = w;
layers = (
{
anchors = (
{
name = bottom;
pos = (307,0);
},
{
name = top;
pos = (431,500);
}
);
background = {
shapes = (
{
closed = 1;
nodes = (
(495,519,o),
(379,525,o),
(369,441,cs),
(345,240,o),
(249,83,o),
(170,83,cs),
(115,83,o),
(141,165,o),
(175,260,cs),
(235,425,ls),
(253,476,o),
(246,512,o),
(210,512,cs),
(159,512,o),
(74,427,o),
(29,380,cs),
(18,368,o),
(39,341,o),
(55,356,cs),
(146,439,o),
(150,433,o),
(113,336,cs),
(75,237,ls),
(19,90,o),
(28,-7,o),
(112,-7,cs),
(158,-7,o),
(236,45,o),
(302,127,c),
(297,56,o),
(334,-7,o),
(390,-7,cs),
(451,-7,o),
(531,54,o),
(616,215,cs),
(648,276,o),
(684,366,o),
(684,428,cs),
(684,501,o),
(654,510,o),
(626,510,cs),
(592,510,o),
(555,476,o),
(580,420,cs),
(626,317,o),
(530,83,o),
(438,83,cs),
(378,83,o),
(381,220,o),
(459,423,cs)
);
}
);
};
hints = (
{
name = _corner.mitre;
origin = (0,28);
type = Corner;
}
);
layerId = m01;
shapes = (
{
closed = 1;
nodes = (
(495,519,o),
(379,525,o),
(369,441,cs),
(345,240,o),
(249,83,o),
(170,83,cs),
(115,83,o),
(141,165,o),
(175,260,cs),
(235,425,ls),
(253,476,o),
(246,512,o),
(210,512,cs),
(159,512,o),
(74,427,o),
(29,380,cs),
(18,368,o),
(39,341,o),
(55,356,cs),
(146,439,o),
(150,433,o),
(113,336,cs),
(75,237,ls),
(19,90,o),
(28,-7,o),
(112,-7,cs),
(158,-7,o),
(236,45,o),
(306,137,c),
(297,56,o),
(334,-7,o),
(390,-7,cs),
(451,-7,o),
(531,54,o),
(616,215,cs),
(648,276,o),
(684,366,o),
(684,428,cs),
(684,501,o),
(654,510,o),
(626,510,cs),
(592,510,o),
(555,476,o),
(580,420,cs),
(626,317,o),
(530,83,o),
(438,83,cs),
(378,83,o),
(381,220,o),
(459,423,cs)
);
}
);
width = 696;
},
{
anchors = (
{
name = bottom;
pos = (317,0);
},
{
name = top;
pos = (441,500);
}
);
layerId = "6BC31736-8C9F-4B37-B5D4-AA29B85DBE0C";
shapes = (
{
closed = 1;
nodes = (
(505,519,o),
(389,525,o),
(379,441,cs),
(355,240,o),
(269,93,o),
(170,93,cs),
(125,93,o),
(151,165,o),
(185,260,cs),
(245,425,ls),
(263,476,o),
(256,512,o),
(220,512,cs),
(169,512,o),
(84,427,o),
(59,400,cs),
(48,388,o),
(69,361,o),
(85,376,cs),
(156,439,o),
(160,433,o),
(123,336,cs),
(85,237,ls),
(29,90,o),
(38,-7,o),
(122,-7,cs),
(168,-7,o),
(246,45,o),
(312,127,c),
(307,56,o),
(344,-7,o),
(400,-7,cs),
(461,-7,o),
(541,54,o),
(626,215,cs),
(658,276,o),
(694,366,o),
(694,428,cs),
(694,501,o),
(664,510,o),
(636,510,cs),
(602,510,o),
(570,470,o),
(585,410,cs),
(614,294,o),
(540,93,o),
(448,93,cs),
(388,93,o),
(391,220,o),
(469,423,cs)
);
}
);
width = 716;
},
{
layerId = "ABF9DA73-21AD-4AF2-B0FF-D1BE084ED1D5";
width = 954.66667;
}
);
unicode = 119;
}
{
glyphname = x;
layers = (
{
anchors = (
{
name = bottom;
pos = (203,0);
},
{
name = top;
pos = (327,500);
}
);
background = {
shapes = (
{
closed = 0;
nodes = (
(302,255,l),
(562,490,l)
);
},
{
closed = 1;
nodes = (
(477,490,l),
(477,490,l),
(285,298,l),
(202,490,l),
(202,490,l),
(99,490,l),
(99,490,l),
(213,234,l),
(-43,0,l),
(-43,0,l),
(42,0,l),
(42,0,l),
(232,191,l),
(315,0,l),
(315,0,l),
(418,0,l),
(418,0,l),
(302,255,l),
(562,490,l),
(562,490,l)
);
}
);
};
guides = (
{
pos = (408,245);
}
);
layerId = m01;
shapes = (
{
closed = 1;
nodes = (
(252,272,l),
(200,200,o),
(105,78,o),
(78,90,cs),
(-4,127,o),
(-41,-10,o),
(53,-10,cs),
(114,-10,o),
(175,97,o),
(281,242,c)
);
},
{
closed = 1;
nodes = (
(38,395,o),
(59,368,o),
(76,381,cs),
(138,428,o),
(142,443,o),
(170,370,cs),
(278,85,ls),
(295,39,o),
(319,-10,o),
(349,-10,cs),
(376,-10,o),
(427,38,o),
(481,94,cs),
(491,105,o),
(470,132,o),
(453,119,cs),
(391,72,o),
(387,57,o),
(359,130,cs),
(251,415,ls),
(234,461,o),
(210,510,o),
(180,510,cs),
(153,510,o),
(102,462,o),
(48,406,cs)
);
},
{
closed = 1;
nodes = (
(277,228,l),
(329,300,o),
(414,422,o),
(441,410,cs),
(523,373,o),
(560,510,o),
(466,510,cs),
(405,510,o),
(354,403,o),
(248,258,c)
);
}
);
width = 529;
},
{
anchors = (
{
name = bottom;
pos = (203,0);
},
{
name = top;
pos = (327,500);
}
);
layerId = "6BC31736-8C9F-4B37-B5D4-AA29B85DBE0C";
shapes = (
{
closed = 1;
nodes = (
(252,272,l),
(200,200,o),
(105,78,o),
(78,90,cs),
(-4,127,o),
(-41,-10,o),
(53,-10,cs),
(114,-10,o),
(175,97,o),
(281,242,c)
);
},
{
closed = 1;
nodes = (
(38,405,o),
(59,378,o),
(76,391,cs),
(138,438,o),
(140,442,o),
(170,370,cs),
(288,85,ls),
(307,40,o),
(329,-10,o),
(359,-10,cs),
(386,-10,o),
(437,28,o),
(491,84,cs),
(501,95,o),
(480,122,o),
(463,109,cs),
(401,62,o),
(399,58,o),
(369,130,cs),
(251,415,ls),
(232,460,o),
(210,510,o),
(180,510,cs),
(153,510,o),
(102,472,o),
(48,416,cs)
);
},
{
closed = 1;
nodes = (
(277,228,l),
(329,300,o),
(414,422,o),
(441,410,cs),
(523,373,o),
(560,510,o),
(466,510,cs),
(405,510,o),
(354,403,o),
(248,258,c)
);
}
);
width = 529;
},
{
anchors = (
{
name = bottom;
pos = (203,0);
},
{
name = top;
pos = (327,500);
}
);
layerId = "ABF9DA73-21AD-4AF2-B0FF-D1BE084ED1D5";
shapes = (
{
closed = 1;
nodes = (
(252,272,l),
(200,200,o),
(105,78,o),
(78,90,cs),
(-4,127,o),
(-41,-10,o),
(53,-10,cs),
(114,-10,o),
(175,97,o),
(281,242,c)
);
},
{
closed = 1;
nodes = (
(38,408,o),
(59,381,o),
(76,394,cs),
(138,441,o),
(139,442,o),
(170,370,cs),
(291,85,ls),
(311,40,o),
(332,-10,o),
(362,-10,cs),
(389,-10,o),
(440,25,o),
(494,81,cs),
(504,92,o),
(483,119,o),
(466,106,cs),
(404,59,o),
(403,58,o),
(372,130,cs),
(251,415,ls),
(231,460,o),
(210,510,o),
(180,510,cs),
(153,510,o),
(102,475,o),
(48,419,cs)
);
},
{
closed = 1;
nodes = (
(277,228,l),
(329,300,o),
(414,422,o),
(441,410,cs),
(523,373,o),
(560,510,o),
(466,510,cs),
(405,510,o),
(354,403,o),
(248,258,c)
);
}
);
width = 529;
}
);
unicode = 120;
}
{
glyphname = y;
layers = (
{
anchors = (
{
name = bottom;
pos = (191,0);
},
{
name = top;
pos = (315,500);
}
);
background = {
shapes = (
{
closed = 1;
nodes = (
(160,93,l),
(95,93,o),
(111,165,o),
(145,260,cs),
(188,380,ls),
(222,476,o),
(216,512,o),
(180,512,cs),
(129,512,o),
(44,427,o),
(19,400,cs),
(8,388,o),
(29,361,o),
(45,376,cs),
(116,439,o),
(120,433,o),
(83,336,cs),
(45,237,ls),
(-11,90,o),
(8,-7,o),
(92,-7,c)
);
},
{
closed = 1;
nodes = (
(92,-7,l),
(153,-7,o),
(283,54,o),
(368,215,cs),
(400,276,o),
(436,366,o),
(436,428,cs),
(436,501,o),
(406,510,o),
(378,510,cs),
(344,510,o),
(312,470,o),
(327,410,cs),
(356,294,o),
(282,93,o),
(160,93,c)
);
}
);
};
layerId = m01;
shapes = (
{
closed = 1;
nodes = (
(191,5,l),
(269,68,l),
(211,340,ls),
(194,419,o),
(185,512,o),
(159,512,cs),
(118,512,o),
(50,427,o),
(24,400,cs),
(13,388,o),
(33,361,o),
(49,376,cs),
(99,421,o),
(102,397,o),
(125,296,cs)
);
},
{
closed = 1;
nodes = (
(-81,-97,o),
(-128,-99,o),
(-134,-146,cs),
(-139,-188,o),
(-96,-207,o),
(-59,-207,cs),
(89,-207,o),
(293,64,o),
(332,135,cs),
(411,276,o),
(440,366,o),
(442,428,cs),
(444,491,o),
(415,510,o),
(387,510,cs),
(353,510,o),
(327,480,o),
(339,438,cs),
(412,191,o),
(88,-165,o),
(-49,-110,cs)
);
}
);
width = 458;
},
{
anchors = (
{
name = bottom;
pos = (231,0);
},
{
name = top;
pos = (355,500);
}
);
layerId = "6BC31736-8C9F-4B37-B5D4-AA29B85DBE0C";
shapes = (
{
closed = 1;
nodes = (
(181,-5,l),
(269,68,l),
(211,340,ls),
(194,419,o),
(185,512,o),
(159,512,cs),
(118,512,o),
(50,427,o),
(24,400,cs),
(13,388,o),
(33,361,o),
(49,376,cs),
(104,426,o),
(106,398,o),
(125,296,cs)
);
},
{
closed = 1;
nodes = (
(-81,-97,o),
(-128,-99,o),
(-134,-146,cs),
(-139,-188,o),
(-96,-207,o),
(-59,-207,cs),
(89,-207,o),
(293,64,o),
(332,135,cs),
(411,276,o),
(440,366,o),
(442,428,cs),
(444,491,o),
(415,510,o),
(387,510,cs),
(353,510,o),
(327,480,o),
(339,438,cs),
(412,191,o),
(88,-165,o),
(-49,-110,cs)
);
}
);
width = 498;
}
);
unicode = 121;
}
{
glyphname = z;
layers = (
{
background = {
shapes = (
{
closed = 1;
nodes = (
(158,155,o),
(250,-161,o),
(441,99,cs),
(453,116,o),
(421,141,o),
(407,127,cs),
(309,23,o),
(238,175,o),
(122,93,c),
(477,458,ls),
(486,468,o),
(470,500,o),
(458,500,cs),
(118,500,l),
(73,359,ls),
(68,343,o),
(104,336,o),
(110,350,cs),
(132,402,o),
(150,416,o),
(213,416,cs),
(364,417,l),
(0,32,ls),
(-9,22,o),
(32,-20,o),
(44,-4,cs)
);
}
);
};
hints = (
{
name = _corner.mitre;
origin = (0,21);
type = Corner;
},
{
name = _corner.mitre;
origin = (0,8);
type = Corner;
}
);
layerId = m01;
shapes = (
{
closed = 1;
nodes = (
(158,155,o),
(245,-161,o),
(438,103,cs),
(448,116,o),
(421,141,o),
(407,127,cs),
(309,23,o),
(248,185,o),
(113,85,c),
(497,458,ls),
(507,468,o),
(490,500,o),
(478,500,cs),
(118,500,l),
(73,359,ls),
(68,343,o),
(104,336,o),
(110,350,cs),
(132,402,o),
(150,416,o),
(213,416,cs),
(392,416,l),
(0,32,ls),
(-10,22,o),
(32,-20,o),
(44,-4,cs)
);
}
);
width = 497;
},
{
layerId = "6BC31736-8C9F-4B37-B5D4-AA29B85DBE0C";
shapes = (
{
closed = 1;
nodes = (
(158,155,o),
(250,-161,o),
(441,99,cs),
(453,116,o),
(421,141,o),
(407,127,cs),
(309,23,o),
(238,175,o),
(122,93,c),
(477,458,ls),
(486,468,o),
(470,500,o),
(458,500,cs),
(118,500,l),
(73,359,ls),
(68,343,o),
(104,336,o),
(110,350,cs),
(132,402,o),
(150,416,o),
(213,416,cs),
(364,417,l),
(0,32,ls),
(-9,22,o),
(32,-20,o),
(44,-4,cs)
);
}
);
width = 497;
},
{
layerId = "ABF9DA73-21AD-4AF2-B0FF-D1BE084ED1D5";
width = 662.66667;
}
);
unicode = 122;
}
{
glyphname = braceleft;
layers = (
{
layerId = m01;
shapes = (
{
closed = 1;
nodes = (
(159,338,o),
(182,402,o),
(190,435,cs),
(234,645,l),
(256,748,o),
(311,785,o),
(469,812,c),
(479,814,o),
(478,773,o),
(468,770,c),
(392,756,o),
(346,746,o),
(329,670,c),
(282,445,ls),
(268,383,o),
(228,329,o),
(146,315,c),
(222,301,o),
(240,247,o),
(226,185,cs),
(179,-40,l),
(162,-116,o),
(204,-126,o),
(274,-140,c),
(284,-143,o),
(267,-184,o),
(257,-182,c),
(111,-155,o),
(72,-118,o),
(94,-15,c),
(138,195,ls),
(146,228,o),
(149,292,o),
(70,295,c),
(60,295,o),
(68,335,o),
(78,335,c)
);
}
);
width = 397;
},
{
layerId = "6BC31736-8C9F-4B37-B5D4-AA29B85DBE0C";
shapes = (
{
closed = 1;
nodes = (
(159,338,o),
(182,402,o),
(190,435,cs),
(234,645,l),
(256,748,o),
(311,785,o),
(469,812,c),
(479,814,o),
(478,773,o),
(468,770,c),
(392,756,o),
(346,746,o),
(329,670,c),
(282,445,ls),
(268,383,o),
(228,329,o),
(146,315,c),
(222,301,o),
(240,247,o),
(226,185,cs),
(179,-40,l),
(162,-116,o),
(204,-126,o),
(274,-140,c),
(284,-143,o),
(267,-184,o),
(257,-182,c),
(111,-155,o),
(72,-118,o),
(94,-15,c),
(138,195,ls),
(146,228,o),
(149,292,o),
(70,295,c),
(60,295,o),
(68,335,o),
(78,335,c)
);
}
);
width = 397;
}
);
unicode = 123;
}
{
glyphname = bar;
layers = (
{
layerId = m01;
shapes = (
{
closed = 1;
nodes = (
(160,760,l),
(160,775,o),
(100,775,o),
(100,760,c),
(100,-250,l),
(100,-265,o),
(160,-265,o),
(160,-250,c)
);
}
);
width = 260;
},
{
layerId = "6BC31736-8C9F-4B37-B5D4-AA29B85DBE0C";
shapes = (
{
closed = 1;
nodes = (
(160,760,l),
(160,775,o),
(100,775,o),
(100,760,c),
(100,-250,l),
(100,-265,o),
(160,-265,o),
(160,-250,c)
);
}
);
width = 260;
},
{
layerId = "ABF9DA73-21AD-4AF2-B0FF-D1BE084ED1D5";
shapes = (
{
closed = 1;
nodes = (
(160,760,l),
(160,775,o),
(100,775,o),
(100,760,c),
(100,-250,l),
(100,-265,o),
(160,-265,o),
(160,-250,c)
);
}
);
width = 260;
}
);
unicode = 124;
}
{
glyphname = asciitilde;
layers = (
{
layerId = m01;
shapes = (
{
closed = 1;
nodes = (
(211,345,o),
(120,367,o),
(36,225,cs),
(30,216,o),
(69,186,o),
(76,195,cs),
(144,281,o),
(216,233,o),
(300,210,cs),
(389,182,o),
(480,160,o),
(564,302,cs),
(570,311,o),
(531,341,o),
(524,332,cs),
(456,246,o),
(384,294,o),
(300,317,cs)
);
}
);
width = 600;
},
{
layerId = "6BC31736-8C9F-4B37-B5D4-AA29B85DBE0C";
shapes = (
{
closed = 1;
nodes = (
(211,345,o),
(120,367,o),
(36,225,cs),
(30,216,o),
(69,186,o),
(76,195,cs),
(144,281,o),
(216,233,o),
(300,210,cs),
(389,182,o),
(480,160,o),
(564,302,cs),
(570,311,o),
(531,341,o),
(524,332,cs),
(456,246,o),
(384,294,o),
(300,317,cs)
);
}
);
width = 600;
},
{
layerId = "ABF9DA73-21AD-4AF2-B0FF-D1BE084ED1D5";
shapes = (
{
closed = 1;
nodes = (
(211,345,o),
(120,367,o),
(36,225,cs),
(30,216,o),
(69,186,o),
(76,195,cs),
(144,281,o),
(216,233,o),
(300,210,cs),
(389,182,o),
(480,160,o),
(564,302,cs),
(570,311,o),
(531,341,o),
(524,332,cs),
(456,246,o),
(384,294,o),
(300,317,cs)
);
}
);
width = 600;
}
);
unicode = 126;
}
{
glyphname = cent;
layers = (
{
layerId = m01;
shapes = (
{
closed = 1;
nodes = (
(343,-10,o),
(409,12,o),
(485,70,c),
(498.281,76.973,o),
(477.281,116.973,o),
(464,110,c),
(287,24,o),
(150,81,o),
(150,279,cs),
(150,374,o),
(210,440,o),
(290,440,cs),
(348,440,o),
(388,407,o),
(430,370,cs),
(457,346,o),
(491,449,o),
(470,470,cs),
(450,490,o),
(396,511,o),
(331,511,cs),
(208,511,o),
(55,393,o),
(55,232,cs),
(55,97,o),
(165,-10,o),
(288,-10,cs)
);
},
{
closed = 1;
nodes = (
(320,640,l),
(320,655,o),
(260,655,o),
(260,640,c),
(260,-150,l),
(260,-165,o),
(320,-165,o),
(320,-150,c)
);
}
);
width = 600;
},
{
layerId = m002;
shapes = (
{
closed = 1;
nodes = (
(343,-10,o),
(409,12,o),
(485,70,c),
(498.281,76.973,o),
(477.281,116.973,o),
(464,110,c),
(287,24,o),
(150,81,o),
(150,279,cs),
(150,374,o),
(210,440,o),
(290,440,cs),
(348,440,o),
(388,407,o),
(430,370,cs),
(457,346,o),
(491,449,o),
(470,470,cs),
(450,490,o),
(396,511,o),
(331,511,cs),
(208,511,o),
(55,393,o),
(55,232,cs),
(55,97,o),
(165,-10,o),
(288,-10,cs)
);
},
{
closed = 1;
nodes = (
(320,640,l),
(320,655,o),
(260,655,o),
(260,640,c),
(260,-150,l),
(260,-165,o),
(320,-165,o),
(320,-150,c)
);
}
);
width = 600;
},
{
layerId = "6BC31736-8C9F-4B37-B5D4-AA29B85DBE0C";
shapes = (
{
closed = 1;
nodes = (
(343,-10,o),
(409,12,o),
(485,70,c),
(498,77,o),
(477,117,o),
(464,110,c),
(287,24,o),
(150,81,o),
(150,279,cs),
(150,374,o),
(210,440,o),
(290,440,cs),
(348,440,o),
(388,407,o),
(430,370,cs),
(457,346,o),
(491,449,o),
(470,470,cs),
(450,490,o),
(396,511,o),
(331,511,cs),
(208,511,o),
(55,393,o),
(55,232,cs),
(55,97,o),
(165,-10,o),
(288,-10,cs)
);
},
{
closed = 1;
nodes = (
(320,640,l),
(320,655,o),
(260,655,o),
(260,640,c),
(260,-150,l),
(260,-165,o),
(320,-165,o),
(320,-150,c)
);
}
);
width = 600;
}
);
unicode = 162;
}
{
glyphname = sterling;
layers = (
{
background = {
shapes = (
{
closed = 1;
nodes = (
(218,150,o),
(405,-166,o),
(564,102,cs),
(570,111,o),
(531,136,o),
(524,127,cs),
(423,-1,o),
(316,171,o),
(172,115,c),
(260,293,o),
(184,396,o),
(195,549,cs),
(205,685,o),
(353,731,o),
(467,633,cs),
(492,611,o),
(527,714,o),
(505,733,cs),
(418,807,o),
(127,786,o),
(105,477,cs),
(95,330,o),
(196,221,o),
(67,35,c),
(50,14,ls),
(43,5,o),
(83,-20,o),
(90,-11,cs)
);
},
{
closed = 1;
nodes = (
(31,270,l),
(371,270,l),
(371,330,l),
(31,330,l)
);
},
{
closed = 1;
nodes = (
(31,400,l),
(371,400,l),
(371,460,l),
(31,460,l)
);
}
);
};
layerId = m01;
shapes = (
{
closed = 1;
nodes = (
(31,400,l),
(431,400,l),
(446,400,o),
(446,460,o),
(431,460,c),
(197,460,l),
(177,653,o),
(288,760,o),
(469,631,cs),
(496,611,o),
(530,714,o),
(508,731,cs),
(369,839,o),
(104,728,o),
(104,460,c),
(31,460,l),
(16,460,o),
(16,400,o),
(31,400,c)
);
},
{
closed = 1;
nodes = (
(431,330,l),
(31,330,l),
(16,330,o),
(16,270,o),
(31,270,c),
(131,270,l),
(138,201,o),
(140,139,o),
(40,25,cs),
(32,16,o),
(68,-20,o),
(76,-12,cs),
(223,150,o),
(405,-166,o),
(564,102,cs),
(570,111,o),
(531,141,o),
(524,132,cs),
(423,4,o),
(316,171,o),
(172,115,c),
(201,173,o),
(212,223,o),
(214,270,c),
(431,270,l),
(446,270,o),
(446,330,o),
(431,330,c)
);
}
);
width = 605;
},
{
layerId = "6BC31736-8C9F-4B37-B5D4-AA29B85DBE0C";
shapes = (
{
closed = 1;
nodes = (
(31,400,l),
(431,400,l),
(446,400,o),
(446,460,o),
(431,460,c),
(197,460,l),
(177,653,o),
(288,760,o),
(469,631,cs),
(496,611,o),
(530,714,o),
(508,731,cs),
(369,839,o),
(104,728,o),
(104,460,c),
(31,460,l),
(16,460,o),
(16,400,o),
(31,400,c)
);
},
{
closed = 1;
nodes = (
(431,330,l),
(31,330,l),
(16,330,o),
(16,270,o),
(31,270,c),
(131,270,l),
(138,201,o),
(140,139,o),
(40,25,cs),
(32,16,o),
(68,-20,o),
(76,-12,cs),
(223,150,o),
(405,-166,o),
(564,102,cs),
(570,111,o),
(531,141,o),
(524,132,cs),
(423,4,o),
(316,171,o),
(172,115,c),
(201,173,o),
(212,223,o),
(214,270,c),
(431,270,l),
(446,270,o),
(446,330,o),
(431,330,c)
);
}
);
width = 605;
},
{
layerId = "ABF9DA73-21AD-4AF2-B0FF-D1BE084ED1D5";
shapes = (
{
closed = 1;
nodes = (
(31,400,l),
(431,400,l),
(446,400,o),
(446,460,o),
(431,460,c),
(197,460,l),
(177,653,o),
(288,760,o),
(469,631,cs),
(496,611,o),
(530,714,o),
(508,731,cs),
(369,839,o),
(104,728,o),
(104,460,c),
(31,460,l),
(16,460,o),
(16,400,o),
(31,400,c)
);
},
{
closed = 1;
nodes = (
(431,330,l),
(31,330,l),
(16,330,o),
(16,270,o),
(31,270,c),
(131,270,l),
(138,201,o),
(140,139,o),
(40,25,cs),
(32,16,o),
(68,-20,o),
(76,-12,cs),
(223,150,o),
(405,-166,o),
(564,102,cs),
(570,111,o),
(531,141,o),
(524,132,cs),
(423,4,o),
(316,171,o),
(172,115,c),
(201,173,o),
(212,223,o),
(214,270,c),
(431,270,l),
(446,270,o),
(446,330,o),
(431,330,c)
);
}
);
width = 605;
}
);
unicode = 163;
}
{
glyphname = yen;
layers = (
{
layerId = m01;
shapes = (
{
closed = 1;
nodes = (
(141,350,l),
(551,350,l),
(566,350,o),
(566,410,o),
(551,410,c),
(427,410,l),
(563,595,ls),
(649,712,o),
(670,701,o),
(712,729,cs),
(720,734,o),
(716,761,o),
(705,761,cs),
(665,760,o),
(580,760,o),
(500,761,cs),
(490,761,o),
(485,734,o),
(494,729,cs),
(541,703,o),
(543,693,o),
(474,587,cs),
(371,429,l),
(262,587,ls),
(189,693,o),
(177,708,o),
(232,729,cs),
(242,733,o),
(236,761,o),
(226,761,cs),
(146,760,o),
(61,760,o),
(1,761,cs),
(-10,761,o),
(-14,734,o),
(-6,729,cs),
(46,701,o),
(50,714,o),
(133,595,cs),
(263,410,l),
(141,410,l),
(126,410,o),
(126,350,o),
(141,350,c)
);
},
{
closed = 1;
nodes = (
(551,280,l),
(141,280,l),
(126,280,o),
(126,220,o),
(141,220,c),
(294,220,l),
(294,138,l),
(294,66,o),
(287,69,o),
(216,31,c),
(207,26,o),
(212,-1,o),
(222,-1,c),
(286,-1,o),
(302,0,o),
(322,0,c),
(366,0,l),
(386,0,o),
(402,-1,o),
(466,-1,c),
(476,-1,o),
(481,26,o),
(472,31,c),
(401,69,o),
(394,66,o),
(394,138,c),
(394,220,l),
(551,220,l),
(566,220,o),
(566,280,o),
(551,280,c)
);
}
);
width = 706;
},
{
layerId = "6BC31736-8C9F-4B37-B5D4-AA29B85DBE0C";
shapes = (
{
closed = 1;
nodes = (
(141,350,l),
(551,350,l),
(566,350,o),
(566,410,o),
(551,410,c),
(427,410,l),
(563,595,ls),
(649,712,o),
(670,701,o),
(712,729,cs),
(720,734,o),
(716,761,o),
(705,761,cs),
(665,760,o),
(580,760,o),
(500,761,cs),
(490,761,o),
(485,734,o),
(494,729,cs),
(541,703,o),
(543,693,o),
(474,587,cs),
(371,429,l),
(262,587,ls),
(189,693,o),
(177,708,o),
(232,729,cs),
(242,733,o),
(236,761,o),
(226,761,cs),
(146,760,o),
(61,760,o),
(1,761,cs),
(-10,761,o),
(-14,734,o),
(-6,729,cs),
(46,701,o),
(50,714,o),
(133,595,cs),
(263,410,l),
(141,410,l),
(126,410,o),
(126,350,o),
(141,350,c)
);
},
{
closed = 1;
nodes = (
(551,280,l),
(141,280,l),
(126,280,o),
(126,220,o),
(141,220,c),
(294,220,l),
(294,138,l),
(294,66,o),
(287,69,o),
(216,31,c),
(207,26,o),
(212,-1,o),
(222,-1,c),
(286,-1,o),
(302,0,o),
(322,0,c),
(366,0,l),
(386,0,o),
(402,-1,o),
(466,-1,c),
(476,-1,o),
(481,26,o),
(472,31,c),
(401,69,o),
(394,66,o),
(394,138,c),
(394,220,l),
(551,220,l),
(566,220,o),
(566,280,o),
(551,280,c)
);
}
);
width = 706;
}
);
unicode = 165;
}
{
glyphname = section;
layers = (
{
background = {
shapes = (
{
closed = 1;
nodes = (
(221,231,l),
(303,231,o),
(405,276,o),
(405,377,cs),
(405,455,o),
(360,488,o),
(267,537,cs),
(175,585,o),
(129,605,o),
(129,652,cs),
(129,691,o),
(163,714,o),
(199,714,cs),
(240,714,o),
(289,686,o),
(318,620,cs),
(321,610,o),
(360,616,o),
(358,627,cs),
(340,750,l),
(312,760,o),
(271,770,o),
(228,770,cs),
(136,770,o),
(44,718,o),
(44,618,cs),
(44,553,o),
(95,535,o),
(138,509,cs),
(266,432,o),
(314,420,o),
(314,365,cs),
(314,324,o),
(277,284,o),
(232,284,c)
);
},
{
closed = 1;
nodes = (
(273,-9,o),
(375,36,o),
(375,137,cs),
(375,215,o),
(321,239,o),
(267,267,cs),
(143,331,o),
(99,365,o),
(99,412,cs),
(99,451,o),
(133,494,o),
(169,494,c),
(198,550,l),
(106,550,o),
(14,488,o),
(14,388,cs),
(14,323,o),
(66,283,o),
(138,239,cs),
(229,184,o),
(284,170,o),
(284,115,cs),
(284,74,o),
(247,44,o),
(202,44,cs),
(158,44,o),
(105,72,o),
(70,148,cs),
(65,157,o),
(31,149,o),
(33,135,cs),
(52,15,l),
(93,0,o),
(138,-9,o),
(182,-9,cs)
);
}
);
};
layerId = m01;
shapes = (
{
closed = 1;
nodes = (
(70,47,o),
(57,124,o),
(32,124,cs),
(10,124,o),
(-25,99,o),
(-25,62,cs),
(-25,12,o),
(43,-12,o),
(95,-12,cs),
(203,-12,o),
(294,58,o),
(294,162,cs),
(294,189,o),
(284,213,o),
(269,234,c),
(352,253,o),
(414,316,o),
(414,402,cs),
(414,503,o),
(275,556,o),
(275,633,cs),
(275,655,o),
(293,679,o),
(324,681,cs),
(377,684,o),
(401,626,o),
(418,626,cs),
(442,626,o),
(473,664,o),
(473,694,cs),
(473,731,o),
(414,753,o),
(373,750,cs),
(264,743,o),
(196,659,o),
(196,575,cs),
(196,551,o),
(207,528,o),
(223,506,c),
(132,487,o),
(76,411,o),
(76,335,cs),
(76,253,o),
(211,180,o),
(211,119,cs),
(211,83,o),
(188,55,o),
(143,53,cs)
);
},
{
closed = 1;
nodes = (
(155,425,o),
(193,449,o),
(224,451,cs),
(290,455,o),
(331,388,o),
(331,359,cs),
(331,323,o),
(308,295,o),
(263,293,cs),
(199,288,o),
(155,337,o),
(155,393,cs)
);
}
);
width = 401;
},
{
background = {
shapes = (
{
closed = 1;
nodes = (
(221,231,l),
(303,231,o),
(405,276,o),
(405,377,cs),
(405,455,o),
(360,488,o),
(267,537,cs),
(175,585,o),
(129,605,o),
(129,652,cs),
(129,691,o),
(163,714,o),
(199,714,cs),
(240,714,o),
(289,686,o),
(318,620,cs),
(321,610,o),
(360,616,o),
(358,627,cs),
(340,750,l),
(312,760,o),
(271,770,o),
(228,770,cs),
(136,770,o),
(44,718,o),
(44,618,cs),
(44,553,o),
(95,535,o),
(138,509,cs),
(266,432,o),
(314,420,o),
(314,365,cs),
(314,324,o),
(277,284,o),
(232,284,c)
);
},
{
closed = 1;
nodes = (
(273,-9,o),
(375,36,o),
(375,137,cs),
(375,215,o),
(321,239,o),
(267,267,cs),
(143,331,o),
(99,365,o),
(99,412,cs),
(99,451,o),
(133,494,o),
(169,494,c),
(198,550,l),
(106,550,o),
(14,488,o),
(14,388,cs),
(14,323,o),
(66,283,o),
(138,239,cs),
(229,184,o),
(284,170,o),
(284,115,cs),
(284,74,o),
(247,44,o),
(202,44,cs),
(158,44,o),
(105,72,o),
(70,148,cs),
(65,157,o),
(31,149,o),
(33,135,cs),
(52,15,l),
(93,0,o),
(138,-9,o),
(182,-9,cs)
);
}
);
};
layerId = m002;
shapes = (
{
closed = 1;
nodes = (
(70,47,o),
(57,124,o),
(32,124,cs),
(10,124,o),
(-25,99,o),
(-25,62,cs),
(-25,12,o),
(43,-12,o),
(95,-12,cs),
(203,-12,o),
(294,58,o),
(294,162,cs),
(294,189,o),
(284,213,o),
(269,234,c),
(352,253,o),
(414,316,o),
(414,402,cs),
(414,503,o),
(275,556,o),
(275,633,cs),
(275,655,o),
(293,679,o),
(324,681,cs),
(377,684,o),
(401,626,o),
(418,626,cs),
(442,626,o),
(473,664,o),
(473,694,cs),
(473,731,o),
(414,753,o),
(373,750,cs),
(264,743,o),
(196,659,o),
(196,575,cs),
(196,551,o),
(207,528,o),
(223,506,c),
(132,487,o),
(76,411,o),
(76,335,cs),
(76,253,o),
(211,180,o),
(211,119,cs),
(211,83,o),
(188,55,o),
(143,53,cs)
);
},
{
closed = 1;
nodes = (
(155,425,o),
(193,449,o),
(224,451,cs),
(290,455,o),
(331,388,o),
(331,359,cs),
(331,323,o),
(308,295,o),
(263,293,cs),
(199,288,o),
(155,337,o),
(155,393,cs)
);
}
);
width = 401;
},
{
layerId = "6BC31736-8C9F-4B37-B5D4-AA29B85DBE0C";
shapes = (
{
closed = 1;
nodes = (
(70,47,o),
(57,124,o),
(32,124,cs),
(10,124,o),
(-25,99,o),
(-25,62,cs),
(-25,12,o),
(43,-12,o),
(95,-12,cs),
(203,-12,o),
(294,58,o),
(294,162,cs),
(294,189,o),
(284,213,o),
(269,234,c),
(352,253,o),
(414,316,o),
(414,402,cs),
(414,503,o),
(275,556,o),
(275,633,cs),
(275,655,o),
(293,679,o),
(324,681,cs),
(377,684,o),
(401,626,o),
(418,626,cs),
(442,626,o),
(473,664,o),
(473,694,cs),
(473,731,o),
(414,753,o),
(373,750,cs),
(264,743,o),
(196,659,o),
(196,575,cs),
(196,551,o),
(207,528,o),
(223,506,c),
(132,487,o),
(76,411,o),
(76,335,cs),
(76,253,o),
(211,180,o),
(211,119,cs),
(211,83,o),
(188,55,o),
(143,53,cs)
);
},
{
closed = 1;
nodes = (
(155,425,o),
(193,449,o),
(224,451,cs),
(290,455,o),
(331,388,o),
(331,359,cs),
(331,323,o),
(308,295,o),
(263,293,cs),
(199,288,o),
(155,337,o),
(155,393,cs)
);
}
);
width = 401;
}
);
unicode = 167;
}
{
glyphname = copyright;
layers = (
{
layerId = m01;
shapes = (
{
closed = 1;
nodes = (
(563,35,o),
(628,57,o),
(702,115,c),
(715.143,122.229,o),
(693.143,162.229,o),
(680,155,c),
(628,129,o),
(580,116,o),
(539,116,cs),
(444,116,o),
(385,186,o),
(382,284,cs),
(378,379,o),
(416,445,o),
(496,445,cs),
(554,445,o),
(595,412,o),
(638,375,cs),
(666,351,o),
(697,454,o),
(675,475,cs),
(654,495,o),
(599,516,o),
(534,516,cs),
(411,516,o),
(283,388,o),
(287,257,cs),
(292,132,o),
(385,35,o),
(508,35,cs)
);
},
{
closed = 1;
nodes = (
(302,-124,o),
(125,53,o),
(125,271,cs),
(125,489,o),
(302,666,o),
(520,666,cs),
(738,666,o),
(915,489,o),
(915,271,cs),
(915,53,o),
(738,-124,o),
(520,-124,cs)
);
},
{
closed = 1;
nodes = (
(779,-199,o),
(990,12,o),
(990,271,cs),
(990,530,o),
(779,741,o),
(520,741,cs),
(261,741,o),
(50,530,o),
(50,271,cs),
(50,12,o),
(261,-199,o),
(520,-199,cs)
);
}
);
width = 1040;
},
{
layerId = m002;
shapes = (
{
closed = 1;
nodes = (
(563,35,o),
(628,57,o),
(702,115,c),
(715.143,122.229,o),
(693.143,162.229,o),
(680,155,c),
(628,129,o),
(580,116,o),
(539,116,cs),
(444,116,o),
(385,186,o),
(382,284,cs),
(378,379,o),
(416,445,o),
(496,445,cs),
(554,445,o),
(595,412,o),
(638,375,cs),
(666,351,o),
(697,454,o),
(675,475,cs),
(654,495,o),
(599,516,o),
(534,516,cs),
(411,516,o),
(283,388,o),
(287,257,cs),
(292,132,o),
(385,35,o),
(508,35,cs)
);
},
{
closed = 1;
nodes = (
(302,-124,o),
(125,53,o),
(125,271,cs),
(125,489,o),
(302,666,o),
(520,666,cs),
(738,666,o),
(915,489,o),
(915,271,cs),
(915,53,o),
(738,-124,o),
(520,-124,cs)
);
},
{
closed = 1;
nodes = (
(779,-199,o),
(990,12,o),
(990,271,cs),
(990,530,o),
(779,741,o),
(520,741,cs),
(261,741,o),
(50,530,o),
(50,271,cs),
(50,12,o),
(261,-199,o),
(520,-199,cs)
);
}
);
width = 1040;
},
{
layerId = "6BC31736-8C9F-4B37-B5D4-AA29B85DBE0C";
shapes = (
{
closed = 1;
nodes = (
(563,35,o),
(628,57,o),
(702,115,c),
(715,122,o),
(693,162,o),
(680,155,c),
(628,129,o),
(580,116,o),
(539,116,cs),
(444,116,o),
(385,186,o),
(382,284,cs),
(378,379,o),
(416,445,o),
(496,445,cs),
(554,445,o),
(595,412,o),
(638,375,cs),
(666,351,o),
(697,454,o),
(675,475,cs),
(654,495,o),
(599,516,o),
(534,516,cs),
(411,516,o),
(283,388,o),
(287,257,cs),
(292,132,o),
(385,35,o),
(508,35,cs)
);
},
{
closed = 1;
nodes = (
(302,-124,o),
(125,53,o),
(125,271,cs),
(125,489,o),
(302,666,o),
(520,666,cs),
(738,666,o),
(915,489,o),
(915,271,cs),
(915,53,o),
(738,-124,o),
(520,-124,cs)
);
},
{
closed = 1;
nodes = (
(779,-199,o),
(990,12,o),
(990,271,cs),
(990,530,o),
(779,741,o),
(520,741,cs),
(261,741,o),
(50,530,o),
(50,271,cs),
(50,12,o),
(261,-199,o),
(520,-199,cs)
);
}
);
width = 1040;
}
);
unicode = 169;
}
{
glyphname = ordfeminine;
layers = (
{
layerId = m01;
shapes = (
{
closed = 1;
nodes = (
(200,653,l),
(198,558,l),
(205,497,o),
(257,503,o),
(299,533,cs),
(312,543,o),
(306,561,o),
(292,556,cs),
(264,545,o),
(244,549,o),
(245,576,cs),
(248,686,ls),
(251,783,o),
(162,797,o),
(78,731,c),
(64.27,724.959,o),
(75.27,699.959,o),
(89,706,c),
(139,740,o),
(196,743,o),
(199,677,cs)
);
},
{
closed = 1;
nodes = (
(213,594,l),
(194,574,o),
(174,558,o),
(152,558,cs),
(107,558,o),
(97,607,o),
(151,620,cs),
(212,635,l),
(213,667,l),
(123,651,ls),
(29,634,o),
(52,511,o),
(128,511,cs),
(156,511,o),
(187,530,o),
(213,554,c)
);
},
{
closed = 1;
nodes = (
(313,426,o),
(313,469,o),
(303,469,cs),
(180,464,l),
(57,469,ls),
(47,469,o),
(47,426,o),
(57,426,cs),
(180,431,l),
(303,426,l)
);
}
);
width = 360;
},
{
layerId = m002;
shapes = (
{
closed = 1;
nodes = (
(200,653,l),
(198,558,l),
(205,497,o),
(257,503,o),
(299,533,cs),
(312,543,o),
(306,561,o),
(292,556,cs),
(264,545,o),
(244,549,o),
(245,576,cs),
(248,686,ls),
(251,783,o),
(162,797,o),
(78,731,c),
(64.27,724.959,o),
(75.27,699.959,o),
(89,706,c),
(139,740,o),
(196,743,o),
(199,677,cs)
);
},
{
closed = 1;
nodes = (
(213,594,l),
(194,574,o),
(174,558,o),
(152,558,cs),
(107,558,o),
(97,607,o),
(151,620,cs),
(212,635,l),
(213,667,l),
(123,651,ls),
(29,634,o),
(52,511,o),
(128,511,cs),
(156,511,o),
(187,530,o),
(213,554,c)
);
},
{
closed = 1;
nodes = (
(313,426,o),
(313,469,o),
(303,469,cs),
(180,464,l),
(57,469,ls),
(47,469,o),
(47,426,o),
(57,426,cs),
(180,431,l),
(303,426,l)
);
}
);
width = 360;
},
{
layerId = "6BC31736-8C9F-4B37-B5D4-AA29B85DBE0C";
shapes = (
{
closed = 1;
nodes = (
(200,653,l),
(198,558,l),
(205,497,o),
(257,503,o),
(299,533,cs),
(312,543,o),
(306,561,o),
(292,556,cs),
(264,545,o),
(244,549,o),
(245,576,cs),
(248,686,ls),
(251,783,o),
(162,797,o),
(78,731,c),
(64,725,o),
(75,700,o),
(89,706,c),
(139,740,o),
(196,743,o),
(199,677,cs)
);
},
{
closed = 1;
nodes = (
(213,594,l),
(194,574,o),
(174,558,o),
(152,558,cs),
(107,558,o),
(97,607,o),
(151,620,cs),
(212,635,l),
(213,667,l),
(123,651,ls),
(29,634,o),
(52,511,o),
(128,511,cs),
(156,511,o),
(187,530,o),
(213,554,c)
);
},
{
closed = 1;
nodes = (
(313,426,o),
(313,469,o),
(303,469,cs),
(180,464,l),
(57,469,ls),
(47,469,o),
(47,426,o),
(57,426,cs),
(180,431,l),
(303,426,l)
);
}
);
width = 360;
}
);
unicode = 170;
}
{
glyphname = degree;
layers = (
{
layerId = m01;
shapes = (
{
closed = 1;
nodes = (
(267,510,o),
(337,570,o),
(340,660,cs),
(343,750,o),
(278,810,o),
(195,810,cs),
(113,810,o),
(43,750,o),
(40,660,cs),
(37,570,o),
(102,510,o),
(185,510,cs)
);
},
{
closed = 1;
nodes = (
(148,566,o),
(106,601,o),
(100,660,cs),
(94,719,o),
(129,754,o),
(180,754,cs),
(232,754,o),
(274,719,o),
(280,660,cs),
(286,601,o),
(251,566,o),
(200,566,cs)
);
}
);
width = 380;
},
{
layerId = "6BC31736-8C9F-4B37-B5D4-AA29B85DBE0C";
shapes = (
{
closed = 1;
nodes = (
(267,510,o),
(337,570,o),
(340,660,cs),
(343,750,o),
(278,810,o),
(195,810,cs),
(113,810,o),
(43,750,o),
(40,660,cs),
(37,570,o),
(102,510,o),
(185,510,cs)
);
},
{
closed = 1;
nodes = (
(148,566,o),
(106,601,o),
(100,660,cs),
(94,719,o),
(129,754,o),
(180,754,cs),
(232,754,o),
(274,719,o),
(280,660,cs),
(286,601,o),
(251,566,o),
(200,566,cs)
);
}
);
width = 380;
},
{
layerId = "ABF9DA73-21AD-4AF2-B0FF-D1BE084ED1D5";
shapes = (
{
closed = 1;
nodes = (
(267,510,o),
(337,570,o),
(340,660,cs),
(343,750,o),
(278,810,o),
(195,810,cs),
(113,810,o),
(43,750,o),
(40,660,cs),
(37,570,o),
(102,510,o),
(185,510,cs)
);
},
{
closed = 1;
nodes = (
(148,566,o),
(106,601,o),
(100,660,cs),
(94,719,o),
(129,754,o),
(180,754,cs),
(232,754,o),
(274,719,o),
(280,660,cs),
(286,601,o),
(251,566,o),
(200,566,cs)
);
}
);
width = 380;
}
);
unicode = 176;
}
{
glyphname = paragraph;
layers = (
{
layerId = m01;
shapes = (
{
closed = 1;
nodes = (
(401,-250,l),
(433,-250,l),
(443,-240,l),
(443,750,l),
(433,760,l),
(327,760,ls),
(197,760,o),
(100,672,o),
(100,551,cs),
(100,431,o),
(197,343,o),
(327,343,cs),
(364,343,l),
(373,334,l),
(373,-112,l),
(373,-184,o),
(366,-181,o),
(295,-219,c),
(286,-224,o),
(291,-251,o),
(301,-251,c),
(365,-251,o),
(381,-250,o),
(401,-250,c)
);
},
{
closed = 1;
nodes = (
(545,-250,l),
(565,-250,o),
(581,-251,o),
(645,-251,c),
(655,-251,o),
(660,-224,o),
(651,-219,c),
(580,-181,o),
(573,-184,o),
(573,-112,c),
(573,623,l),
(573,694,o),
(580,691,o),
(651,729,c),
(660,734,o),
(655,761,o),
(645,761,c),
(581,761,o),
(565,760,o),
(545,760,c),
(513,760,l),
(503,750,l),
(503,-240,l),
(513,-250,l),
(513,-250,l)
);
}
);
width = 756;
},
{
layerId = "6BC31736-8C9F-4B37-B5D4-AA29B85DBE0C";
shapes = (
{
closed = 1;
nodes = (
(401,-250,l),
(433,-250,l),
(443,-240,l),
(443,750,l),
(433,760,l),
(327,760,ls),
(197,760,o),
(100,672,o),
(100,551,cs),
(100,431,o),
(197,343,o),
(327,343,cs),
(364,343,l),
(373,334,l),
(373,-112,l),
(373,-184,o),
(366,-181,o),
(295,-219,c),
(286,-224,o),
(291,-251,o),
(301,-251,c),
(365,-251,o),
(381,-250,o),
(401,-250,c)
);
},
{
closed = 1;
nodes = (
(545,-250,l),
(565,-250,o),
(581,-251,o),
(645,-251,c),
(655,-251,o),
(660,-224,o),
(651,-219,c),
(580,-181,o),
(573,-184,o),
(573,-112,c),
(573,623,l),
(573,694,o),
(580,691,o),
(651,729,c),
(660,734,o),
(655,761,o),
(645,761,c),
(581,761,o),
(565,760,o),
(545,760,c),
(513,760,l),
(503,750,l),
(503,-240,l),
(513,-250,l),
(513,-250,l)
);
}
);
width = 756;
}
);
unicode = 182;
}
{
glyphname = ordmasculine;
layers = (
{
layerId = m01;
shapes = (
{
closed = 1;
nodes = (
(313,426,o),
(313,469,o),
(303,469,cs),
(180,464,l),
(57,469,ls),
(47,469,o),
(47,426,o),
(57,426,cs),
(180,431,l),
(303,426,l)
);
},
{
closed = 1;
nodes = (
(244,510,o),
(303,560,o),
(305,635,cs),
(308,710,o),
(253,760,o),
(184,760,cs),
(116,760,o),
(58,710,o),
(55,635,cs),
(53,560,o),
(107,510,o),
(176,510,cs)
);
},
{
closed = 1;
nodes = (
(145,557,o),
(110,586,o),
(105,635,cs),
(100,684,o),
(129,713,o),
(172,713,cs),
(215,713,o),
(250,684,o),
(255,635,cs),
(260,586,o),
(231,557,o),
(188,557,cs)
);
}
);
width = 360;
},
{
layerId = m002;
shapes = (
{
closed = 1;
nodes = (
(313,426,o),
(313,469,o),
(303,469,cs),
(180,464,l),
(57,469,ls),
(47,469,o),
(47,426,o),
(57,426,cs),
(180,431,l),
(303,426,l)
);
},
{
closed = 1;
nodes = (
(244,510,o),
(303,560,o),
(305,635,cs),
(308,710,o),
(253,760,o),
(184,760,cs),
(116,760,o),
(58,710,o),
(55,635,cs),
(53,560,o),
(107,510,o),
(176,510,cs)
);
},
{
closed = 1;
nodes = (
(145,557,o),
(110,586,o),
(105,635,cs),
(100,684,o),
(129,713,o),
(172,713,cs),
(215,713,o),
(250,684,o),
(255,635,cs),
(260,586,o),
(231,557,o),
(188,557,cs)
);
}
);
width = 360;
},
{
layerId = "6BC31736-8C9F-4B37-B5D4-AA29B85DBE0C";
shapes = (
{
closed = 1;
nodes = (
(313,426,o),
(313,469,o),
(303,469,cs),
(180,464,l),
(57,469,ls),
(47,469,o),
(47,426,o),
(57,426,cs),
(180,431,l),
(303,426,l)
);
},
{
closed = 1;
nodes = (
(244,510,o),
(303,560,o),
(305,635,cs),
(308,710,o),
(253,760,o),
(184,760,cs),
(116,760,o),
(58,710,o),
(55,635,cs),
(53,560,o),
(107,510,o),
(176,510,cs)
);
},
{
closed = 1;
nodes = (
(145,557,o),
(110,586,o),
(105,635,cs),
(100,684,o),
(129,713,o),
(172,713,cs),
(215,713,o),
(250,684,o),
(255,635,cs),
(260,586,o),
(231,557,o),
(188,557,cs)
);
}
);
width = 360;
}
);
unicode = 186;
}
{
glyphname = AE;
layers = (
{
anchors = (
{
name = bottom;
pos = (533,0);
},
{
name = top;
pos = (722,760);
}
);
background = {
shapes = (
{
closed = 0;
nodes = (
(160,0,l),
(245,0,l)
);
},
{
closed = 1;
nodes = (
(535,760,l),
(475,750,l),
(160,0,l),
(160,0,l),
(245,0,l),
(245,0,l)
);
},
{
closed = 1;
nodes = (
(310,265,l),
(700,265,l),
(700,320,l),
(310,320,l)
);
},
{
closed = 0;
nodes = (
(625,760,l),
(625,-1,l)
);
},
{
closed = 1;
nodes = (
(1090,-1,l),
(1090,-1,l),
(1126,179,l),
(1093,193,l),
(1026,83,o),
(1012,55,o),
(870,55,cs),
(743,55,o),
(725,60,o),
(725,119,cs),
(725,365,l),
(859,365,l),
(924,365,o),
(921,359,o),
(956,296,c),
(960,289,o),
(985,293,o),
(985,302,c),
(985,358,o),
(984,372,o),
(984,393,cs),
(984,413,o),
(985,427,o),
(985,483,c),
(985,492,o),
(960,496,o),
(956,489,c),
(921,426,o),
(924,420,o),
(859,420,c),
(725,420,l),
(725,640,ls),
(725,699,o),
(743,704,o),
(870,704,cs),
(992,704,o),
(996,686,o),
(1063,576,c),
(1096,590,l),
(1070,770,l),
(1070,770,l),
(920,760,l),
(625,760,l),
(625,760,l),
(625,-1,l),
(625,-1,l)
);
}
);
};
layerId = m01;
shapes = (
{
closed = 1;
nodes = (
(984,-1,l),
(998,9,l),
(1075,179,l),
(1080,193,o),
(1041,207,o),
(1036,193,c),
(941,83,o),
(930,55,o),
(788,55,cs),
(661,55,o),
(644,61,o),
(659,119,cs),
(725,371,l),
(859,371,ls),
(924,371,o),
(923,365,o),
(942,302,cs),
(944,295,o),
(967,293,o),
(970,302,cs),
(984,358,o),
(986,378,o),
(991,399,cs),
(996,419,o),
(1001,433,o),
(1015,489,cs),
(1017,498,o),
(991,503,o),
(985,496,cs),
(935,433,o),
(938,426,o),
(873,426,cs),
(739,426,l),
(789,640,ls),
(803,700,o),
(793,704,o),
(920,704,cs),
(1022,704,o),
(1021,686,o),
(1081,576,c),
(1083,561,o),
(1119,565,o),
(1117,580,c),
(1107,750,l),
(1096,760,l),
(683,760,l),
(663,760,o),
(647,761,o),
(583,761,c),
(572,761,o),
(567,736,o),
(576,732,c),
(647,697,o),
(641,705,o),
(599,656,c),
(133,115,l),
(86,61,o),
(65,69,o),
(-6,31,c),
(-15,26,o),
(-10,-1,o),
(0,-1,c),
(64,-1,o),
(80,0,o),
(100,0,c),
(125,0,l),
(148,0,o),
(166,-1,o),
(238,-1,c),
(249,-1,o),
(255,26,o),
(245,31,c),
(165,69,o),
(171,61,o),
(217,115,c),
(694,673,l),
(699,671,l),
(563,134,l),
(546,64,o),
(533,68,o),
(462,30,c),
(453,25,o),
(458,-2,o),
(468,-2,c),
(532,-2,o),
(548,-1,o),
(568,-1,c)
);
},
{
closed = 1;
nodes = (
(399,370,l),
(680,375,l),
(694,430,l),
(425,435,l)
);
}
);
width = 1157;
},
{
anchors = (
{
name = bottom;
pos = (521,0);
},
{
name = top;
pos = (710,760);
}
);
background = {
shapes = (
{
closed = 1;
nodes = (
(153,69,o),
(159,61,o),
(205,115,c),
(682,673,l),
(687,671,l),
(551,134,l),
(534,64,o),
(521,68,o),
(450,30,c),
(441,25,o),
(446,-2,o),
(456,-2,c),
(520,-2,o),
(536,-1,o),
(556,-1,c),
(972,-1,l),
(986,9,l),
(1063,179,l),
(1068,193,o),
(1029,207,o),
(1024,193,c),
(929,83,o),
(918,55,o),
(776,55,cs),
(649,55,o),
(632,61,o),
(647,119,cs),
(713,371,l),
(847,371,ls),
(912,371,o),
(911,365,o),
(930,302,cs),
(932,295,o),
(955,293,o),
(958,302,cs),
(972,358,o),
(974,378,o),
(979,399,cs),
(984,419,o),
(989,433,o),
(1003,489,cs),
(1005,498,o),
(979,503,o),
(973,496,cs),
(923,433,o),
(926,426,o),
(861,426,cs),
(727,426,l),
(777,640,ls),
(791,700,o),
(781,704,o),
(908,704,cs),
(1010,704,o),
(1009,686,o),
(1069,576,c),
(1071,561,o),
(1107,565,o),
(1105,580,c),
(1095,750,l),
(1084,760,l),
(671,760,l),
(651,760,o),
(635,761,o),
(571,761,c),
(560,761,o),
(555,736,o),
(564,732,c),
(635,697,o),
(629,705,o),
(587,656,c),
(121,115,l),
(74,61,o),
(53,69,o),
(-18,31,c),
(-27,26,o),
(-22,-1,o),
(-12,-1,c),
(52,-1,o),
(68,0,o),
(88,0,c),
(113,0,l),
(136,0,o),
(154,-1,o),
(226,-1,c),
(237,-1,o),
(243,26,o),
(233,31,c)
);
},
{
closed = 1;
nodes = (
(387,370,l),
(668,375,l),
(682,430,l),
(413,435,l)
);
}
);
};
layerId = m002;
shapes = (
{
closed = 1;
nodes = (
(1047,-1,l),
(1061,9,l),
(1138,179,l),
(1143,193,o),
(1084,217,o),
(1079,203,c),
(984,93,o),
(923,85,o),
(831,85,cs),
(704,85,o),
(712,78,o),
(729,146,cs),
(781,355,l),
(867,355,ls),
(925,355,o),
(954,359,o),
(980,282,c),
(984,275,o),
(1027,278,o),
(1029,284,c),
(1040,346,o),
(1035,330,o),
(1049,391,cs),
(1059,436,o),
(1067,458,o),
(1075,485,cs),
(1076,491,o),
(1033,500,o),
(1025,493,c),
(971,428,o),
(944,430,o),
(886,430,cs),
(800,430,l),
(845,612,ls),
(862,682,o),
(866,679,o),
(993,679,cs),
(1035,679,o),
(1104,686,o),
(1144,576,cs),
(1149,562,o),
(1205,576,o),
(1200,590,c),
(1199,750,l),
(1189,760,l),
(712,760,ls),
(692,760,o),
(615,761,o),
(541,761,cs),
(530,761,o),
(525,716,o),
(534,713,cs),
(591,691,o),
(594,688,o),
(537,622,cs),
(111,135,ls),
(64,82,o),
(43,89,o),
(-28,51,cs),
(-37,46,o),
(-32,-1,o),
(-22,-1,cs),
(42,-1,o),
(58,0,o),
(78,0,cs),
(143,0,ls),
(166,0,o),
(184,-1,o),
(256,-1,cs),
(267,-1,o),
(273,46,o),
(263,51,cs),
(183,89,o),
(190,83,o),
(235,135,cs),
(676,644,l),
(683,639,l),
(561,154,ls),
(543,84,o),
(531,88,o),
(460,50,cs),
(451,45,o),
(451,-2,o),
(461,-2,cs),
(525,-2,o),
(541,-1,o),
(561,-1,cs)
);
},
{
closed = 1;
nodes = (
(387,350,l),
(668,355,l),
(682,430,l),
(413,435,l)
);
}
);
width = 1220;
}
);
metricLeft = "=A";
metricRight = "=E";
unicode = 198;
}
{
glyphname = Eth;
layers = (
{
layerId = m01;
shapes = (
{
ref = D;
},
{
closed = 1;
nodes = (
(51,420,l),
(36,420,o),
(36,360,o),
(51,360,c),
(371,360,l),
(386,360,o),
(386,420,o),
(371,420,c)
);
}
);
width = 743;
},
{
layerId = "6BC31736-8C9F-4B37-B5D4-AA29B85DBE0C";
shapes = (
{
alignment = -1;
ref = D;
},
{
closed = 1;
nodes = (
(63,432,l),
(48,432,o),
(36,360,o),
(51,360,c),
(371,360,l),
(386,360,o),
(398,432,o),
(383,432,c)
);
}
);
width = 773;
}
);
metricRight = "=D";
unicode = 208;
}
{
glyphname = multiply;
layers = (
{
layerId = m01;
shapes = (
{
closed = 1;
nodes = (
(424.607,406.607,o),
(388.607,442.607,o),
(378,432,c),
(233,305,l),
(88,432,l),
(77.393,442.607,o),
(41.393,406.607,o),
(52,396,c),
(180,252,l),
(53,107,l),
(42.393,96.393,o),
(78.393,60.393,o),
(89,71,c),
(233,199,l),
(377,71,l),
(387.46,60.249,o),
(424.46,96.249,o),
(414,107,c),
(286,252,l),
(414,396,l)
);
}
);
width = 466;
},
{
layerId = "6BC31736-8C9F-4B37-B5D4-AA29B85DBE0C";
shapes = (
{
closed = 1;
nodes = (
(425,407,o),
(389,443,o),
(378,432,c),
(233,305,l),
(88,432,l),
(77,443,o),
(41,407,o),
(52,396,c),
(180,252,l),
(53,107,l),
(42,96,o),
(78,60,o),
(89,71,c),
(233,199,l),
(377,71,l),
(387,60,o),
(424,96,o),
(414,107,c),
(286,252,l),
(414,396,l)
);
}
);
width = 466;
}
);
unicode = 215;
}
{
glyphname = Thorn;
layers = (
{
anchors = (
{
name = bottom;
pos = (253,0);
},
{
name = top;
pos = (442,760);
}
);
background = {
shapes = (
{
closed = 0;
nodes = (
(169,620,l),
(14,0,l)
);
},
{
closed = 1;
nodes = (
(114,0,l),
(114,0,l),
(154,160,l),
(349,147,o),
(547,207,o),
(595,399,cs),
(622,510,o),
(578,620,o),
(376,620,cs),
(169,620,l),
(14,0,l),
(14,0,l)
);
},
{
closed = 1;
nodes = (
(253,555,l),
(398,580,o),
(523,533,o),
(485,380,cs),
(448,232,o),
(293,195,o),
(172,230,c)
);
}
);
};
layerId = m01;
shapes = (
{
closed = 1;
nodes = (
(53,0,l),
(97,0,l),
(117,0,o),
(133,-1,o),
(197,-1,c),
(207,-1,o),
(212,26,o),
(203,31,c),
(132,69,o),
(130,65,o),
(148,135,c),
(154,160,l),
(390,119,o),
(593,240,o),
(593,417,cs),
(593,507,o),
(534,620,o),
(346,620,cs),
(169,620,l),
(48,135,l),
(30,65,o),
(18,69,o),
(-53,31,c),
(-62,26,o),
(-57,-1,o),
(-47,-1,c),
(17,-1,o),
(33,0,o),
(53,0,c)
);
},
{
closed = 1;
nodes = (
(253,555,l),
(372,586,o),
(485,524,o),
(485,405,cs),
(485,257,o),
(333,168,o),
(172,230,c)
);
},
{
closed = 1;
nodes = (
(270,625,l),
(288,695,o),
(300,691,o),
(371,729,c),
(380,734,o),
(375,761,o),
(365,761,c),
(301,761,o),
(285,760,o),
(265,760,c),
(221,760,l),
(201,760,o),
(185,761,o),
(121,761,c),
(111,761,o),
(106,734,o),
(115,729,c),
(186,691,o),
(188,695,o),
(170,625,c),
(164,600,l),
(264,600,l)
);
}
);
width = 630;
}
);
metricRight = "=P";
unicode = 222;
}
{
glyphname = germandbls;
layers = (
{
anchors = (
{
name = bottom;
pos = (226,0);
},
{
name = top;
pos = (425,800);
}
);
background = {
shapes = (
{
closed = 1;
nodes = (
(570,710,o),
(510,771,o),
(435,771,cs),
(258,771,o),
(176,586,o),
(137,430,cs),
(51,84,ls),
(1,-118,o),
(-19,-184,o),
(-121,-135,cs),
(-191,-102,o),
(-217,-234,o),
(-136,-237,cs),
(-20,-241,o),
(93,-87,o),
(149,138,cs),
(264,599,ls),
(283,677,o),
(333,696,o),
(378,696,cs),
(463,696,o),
(502,609,o),
(396,514,cs),
(221,356,o),
(256,286,o),
(323,239,cs),
(400,184,o),
(431,170,o),
(418,115,cs),
(398,35,o),
(278,4,o),
(234,118,c),
(232,127,o),
(196,119,o),
(195,105,cs),
(191,15,l),
(283,-36,o),
(478,-8,o),
(514,137,cs),
(529,195,o),
(500,237,o),
(461,264,cs),
(322,363,o),
(333,395,o),
(464,508,cs),
(510,548,o),
(539,585,o),
(549,627,cs)
);
}
);
};
layerId = m01;
shapes = (
{
closed = 1;
nodes = (
(300,273,o),
(435,180,o),
(435,119,cs),
(435,83,o),
(412,55,o),
(367,53,cs),
(294,47,o),
(281,124,o),
(256,124,cs),
(234,124,o),
(199,99,o),
(199,62,cs),
(199,12,o),
(267,-12,o),
(319,-12,cs),
(427,-12,o),
(518,58,o),
(518,162,cs),
(518,263,o),
(389,316,o),
(389,393,cs),
(389,428,o),
(397,450,o),
(464,508,cs),
(510,548,o),
(539,585,o),
(549,627,cs),
(570,710,o),
(510,771,o),
(435,771,cs),
(258,771,o),
(166,586,o),
(127,430,cs),
(36,62,ls),
(-14,-140,o),
(-24,-206,o),
(-126,-157,cs),
(-196,-124,o),
(-222,-256,o),
(-141,-259,cs),
(-25,-263,o),
(88,-109,o),
(144,116,cs),
(264,599,ls),
(283,677,o),
(333,696,o),
(378,696,cs),
(463,696,o),
(502,609,o),
(396,514,cs),
(318,444,o),
(300,406,o),
(300,355,cs)
);
}
);
width = 575;
},
{
anchors = (
{
name = bottom;
pos = (226,0);
},
{
name = top;
pos = (425,800);
}
);
background = {
shapes = (
{
closed = 1;
nodes = (
(570,710,o),
(510,771,o),
(435,771,cs),
(258,771,o),
(176,586,o),
(137,430,cs),
(51,84,ls),
(1,-118,o),
(-19,-184,o),
(-121,-135,cs),
(-191,-102,o),
(-217,-234,o),
(-136,-237,cs),
(-20,-241,o),
(93,-87,o),
(149,138,cs),
(264,599,ls),
(283,677,o),
(333,696,o),
(378,696,cs),
(463,696,o),
(502,609,o),
(396,514,cs),
(221,356,o),
(256,286,o),
(323,239,cs),
(400,184,o),
(431,170,o),
(418,115,cs),
(398,35,o),
(278,4,o),
(234,118,c),
(232,127,o),
(196,119,o),
(195,105,cs),
(191,15,l),
(283,-36,o),
(478,-8,o),
(514,137,cs),
(529,195,o),
(500,237,o),
(461,264,cs),
(322,363,o),
(333,395,o),
(464,508,cs),
(510,548,o),
(539,585,o),
(549,627,cs)
);
}
);
};
layerId = m002;
shapes = (
{
closed = 1;
nodes = (
(300,273,o),
(435,180,o),
(435,119,cs),
(435,83,o),
(412,55,o),
(367,53,cs),
(294,47,o),
(281,124,o),
(256,124,cs),
(234,124,o),
(199,99,o),
(199,62,cs),
(199,12,o),
(267,-12,o),
(319,-12,cs),
(427,-12,o),
(518,58,o),
(518,162,cs),
(518,263,o),
(389,316,o),
(389,393,cs),
(389,428,o),
(397,450,o),
(464,508,cs),
(510,548,o),
(539,585,o),
(549,627,cs),
(570,710,o),
(510,771,o),
(435,771,cs),
(258,771,o),
(166,586,o),
(127,430,cs),
(36,62,ls),
(-14,-140,o),
(-24,-206,o),
(-126,-157,cs),
(-196,-124,o),
(-222,-256,o),
(-141,-259,cs),
(-25,-263,o),
(88,-109,o),
(144,116,cs),
(264,599,ls),
(283,677,o),
(333,696,o),
(378,696,cs),
(463,696,o),
(502,609,o),
(396,514,cs),
(318,444,o),
(300,406,o),
(300,355,cs)
);
}
);
width = 575;
}
);
metricRight = "=s";
unicode = 223;
}
{
glyphname = ae;
layers = (
{
anchors = (
{
name = bottom;
pos = (291,0);
},
{
name = top;
pos = (415,500);
}
);
background = {
shapes = (
{
closed = 1;
nodes = (
(-16,78,o),
(10,-12,o),
(94,-12,cs),
(155,-12,o),
(239,45,o),
(351,200,c),
(315,220,l),
(262,128,o),
(193,88,o),
(154,88,cs),
(99,88,o),
(88,127,o),
(126,279,cs),
(169,451,o),
(288,453,o),
(357,390,c),
(407,475,l),
(303,572,o),
(73,436,o),
(22,232,cs)
);
},
{
closed = 1;
nodes = (
(469,-10,o),
(522,22,o),
(636,140,c),
(616,170,l),
(433,24,o),
(358,80,o),
(411,279,cs),
(473,513,o),
(582,429,o),
(571,366,cs),
(559,300,o),
(418,265,o),
(360,256,c),
(370,219,l),
(505,233,o),
(645,300,o),
(667,387,cs),
(680,438,o),
(648,509,o),
(572,509,cs),
(484,509,o),
(363,417,o),
(310,232,cs),
(272,97,o),
(321,-10,o),
(414,-10,cs)
);
}
);
};
layerId = m01;
shapes = (
{
closed = 1;
nodes = (
(123,509,o),
(-74,-12,o),
(124,-12,cs),
(185,-12,o),
(249,55,o),
(361,140,c),
(325,160,l),
(262,118,o),
(223,88,o),
(184,88,cs),
(55,88,o),
(236,451,o),
(407,444,c),
(290,282,o),
(262,-10,o),
(414,-10,cs),
(469,-10,o),
(522,22,o),
(636,140,c),
(648.481,148.321,o),
(628.481,178.321,o),
(616,170,c),
(546,114,o),
(492,88,o),
(454,88,cs),
(375,88,o),
(392,215,o),
(401,279,cs),
(433,513,o),
(572,429,o),
(561,366,cs),
(549,300,o),
(418,225,o),
(360,176,c),
(370,139,l),
(505,223,o),
(620,300,o),
(637,369,cs),
(655,438,o),
(618,509,o),
(492,509,cs)
);
}
);
width = 696;
},
{
anchors = (
{
name = bottom;
pos = (291,0);
},
{
name = top;
pos = (415,500);
}
);
background = {
shapes = (
{
closed = 1;
nodes = (
(-16,78,o),
(10,-12,o),
(94,-12,cs),
(155,-12,o),
(239,45,o),
(351,200,c),
(315,220,l),
(262,128,o),
(193,88,o),
(154,88,cs),
(99,88,o),
(88,127,o),
(126,279,cs),
(169,451,o),
(288,453,o),
(357,390,c),
(407,475,l),
(303,572,o),
(73,436,o),
(22,232,cs)
);
},
{
closed = 1;
nodes = (
(469,-10,o),
(522,22,o),
(636,140,c),
(616,170,l),
(433,24,o),
(358,80,o),
(411,279,cs),
(473,513,o),
(582,429,o),
(571,366,cs),
(559,300,o),
(418,265,o),
(360,256,c),
(370,219,l),
(505,233,o),
(645,300,o),
(667,387,cs),
(680,438,o),
(648,509,o),
(572,509,cs),
(484,509,o),
(363,417,o),
(310,232,cs),
(272,97,o),
(321,-10,o),
(414,-10,cs)
);
}
);
};
layerId = m002;
shapes = (
{
closed = 1;
nodes = (
(123,509,o),
(-74,-12,o),
(124,-12,cs),
(185,-12,o),
(249,55,o),
(361,140,c),
(325,160,l),
(262,118,o),
(223,88,o),
(184,88,cs),
(55,88,o),
(236,451,o),
(407,444,c),
(290,282,o),
(262,-10,o),
(414,-10,cs),
(469,-10,o),
(522,22,o),
(636,140,c),
(648.481,148.321,o),
(628.481,178.321,o),
(616,170,c),
(546,114,o),
(492,88,o),
(454,88,cs),
(375,88,o),
(392,215,o),
(401,279,cs),
(433,513,o),
(572,429,o),
(561,366,cs),
(549,300,o),
(418,225,o),
(360,176,c),
(370,139,l),
(505,223,o),
(620,300,o),
(637,369,cs),
(655,438,o),
(618,509,o),
(492,509,cs)
);
}
);
width = 696;
},
{
anchors = (
{
name = bottom;
pos = (291,0);
},
{
name = top;
pos = (415,500);
}
);
layerId = "6BC31736-8C9F-4B37-B5D4-AA29B85DBE0C";
shapes = (
{
closed = 1;
nodes = (
(123,509,o),
(-74,-12,o),
(124,-12,cs),
(185,-12,o),
(249,55,o),
(361,140,c),
(325,160,l),
(262,118,o),
(223,88,o),
(184,88,cs),
(55,88,o),
(236,451,o),
(407,444,c),
(290,282,o),
(262,-10,o),
(414,-10,cs),
(469,-10,o),
(522,22,o),
(636,140,c),
(648,148,o),
(628,178,o),
(616,170,c),
(546,114,o),
(492,88,o),
(454,88,cs),
(375,88,o),
(392,215,o),
(401,279,cs),
(433,513,o),
(572,429,o),
(561,366,cs),
(549,300,o),
(418,225,o),
(360,176,c),
(370,139,l),
(505,223,o),
(620,300,o),
(637,369,cs),
(655,438,o),
(618,509,o),
(492,509,cs)
);
}
);
width = 696;
}
);
metricLeft = "=a";
metricRight = "=e";
unicode = 230;
}
{
glyphname = eth;
layers = (
{
anchors = (
{
name = bottom;
pos = (217,0);
},
{
name = top;
pos = (416,800);
}
);
background = {
shapes = (
{
closed = 1;
nodes = (
(320,-8,o),
(443,102,o),
(483,260,cs),
(533,461,o),
(396,663,o),
(189,793,c),
(154,749,l),
(327,605,o),
(428,438,o),
(379,242,cs),
(348,118,o),
(283,51,o),
(245,51,cs),
(157,51,o),
(101,122,o),
(122,252,cs),
(143,383,o),
(272,511,o),
(410,393,c),
(433,433,l),
(272,596,o),
(58,412,o),
(22,266,cs),
(-15,116,o),
(68,-8,o),
(174,-8,cs)
);
},
{
closed = 1;
nodes = (
(158,536,l),
(465,691,l),
(439,736,l),
(132,581,l)
);
}
);
};
layerId = m01;
shapes = (
{
closed = 1;
nodes = (
(320,-8,o),
(450,102,o),
(483,260,cs),
(533,501,o),
(396,663,o),
(189,793,c),
(177.261,802.338,o),
(142.261,758.338,o),
(154,749,c),
(327,605,o),
(428,478,o),
(379,242,cs),
(353,118,o),
(283,51,o),
(245,51,cs),
(172,51,o),
(142,149,o),
(171,266,cs),
(193,355,o),
(264,462,o),
(410,463,c),
(413,513,l),
(252,506,o),
(98,412,o),
(60,258,cs),
(25,116,o),
(98,-8,o),
(194,-8,cs)
);
},
{
closed = 1;
nodes = (
(144,625,l),
(131.613,616.541,o),
(159.613,575.541,o),
(172,584,c),
(411,758,l),
(423.387,766.459,o),
(395.387,807.459,o),
(383,799,c)
);
}
);
width = 557;
},
{
anchors = (
{
name = bottom;
pos = (217,0);
},
{
name = top;
pos = (416,800);
}
);
background = {
shapes = (
{
closed = 1;
nodes = (
(320,-8,o),
(443,102,o),
(483,260,cs),
(533,461,o),
(396,663,o),
(189,793,c),
(154,749,l),
(327,605,o),
(428,438,o),
(379,242,cs),
(348,118,o),
(283,51,o),
(245,51,cs),
(157,51,o),
(101,122,o),
(122,252,cs),
(143,383,o),
(272,511,o),
(410,393,c),
(433,433,l),
(272,596,o),
(58,412,o),
(22,266,cs),
(-15,116,o),
(68,-8,o),
(174,-8,cs)
);
},
{
closed = 1;
nodes = (
(158,536,l),
(465,691,l),
(439,736,l),
(132,581,l)
);
}
);
};
layerId = m002;
shapes = (
{
closed = 1;
nodes = (
(320,-8,o),
(450,102,o),
(483,260,cs),
(533,501,o),
(396,663,o),
(189,793,c),
(177.261,802.338,o),
(142.261,758.338,o),
(154,749,c),
(327,605,o),
(428,478,o),
(379,242,cs),
(353,118,o),
(283,51,o),
(245,51,cs),
(172,51,o),
(142,149,o),
(171,266,cs),
(193,355,o),
(264,462,o),
(410,463,c),
(413,513,l),
(252,506,o),
(98,412,o),
(60,258,cs),
(25,116,o),
(98,-8,o),
(194,-8,cs)
);
},
{
closed = 1;
nodes = (
(144,625,l),
(131.613,616.541,o),
(159.613,575.541,o),
(172,584,c),
(411,758,l),
(423.387,766.459,o),
(395.387,807.459,o),
(383,799,c)
);
}
);
width = 557;
}
);
unicode = 240;
}
{
glyphname = divide;
layers = (
{
layerId = m01;
shapes = (
{
closed = 1;
nodes = (
(46,295,o),
(46,225,o),
(61,225,c),
(310,230,l),
(561,225,l),
(576,225,o),
(576,295,o),
(561,295,c),
(310,290,l),
(61,295,l)
);
},
{
pos = (230,31);
ref = period;
scale = (0.8,0.8);
},
{
pos = (230,391);
ref = period;
scale = (0.8,0.8);
}
);
width = 622;
}
);
unicode = 247;
}
{
glyphname = thorn;
layers = (
{
anchors = (
{
name = bottom;
pos = (205,0);
},
{
name = top;
pos = (329,500);
}
);
background = {
shapes = (
{
closed = 0;
nodes = (
(75,770,l)
);
},
{
closed = 1;
nodes = (
(90,697,o),
(111,610,o),
(111,435,cs),
(111,-250,l),
(111,-250,l),
(196,-250,l),
(196,-250,l),
(196,530,ls),
(206,815,l),
(196,625,o),
(201,720,o),
(206,815,c),
(75,770,l),
(160,798,o),
(121,781,o),
(75,770,c)
);
},
{
closed = 1;
nodes = (
(545,400,o),
(485,510,o),
(351,510,cs),
(280,510,o),
(199,467,o),
(120,360,c),
(159,350,l),
(209,405,o),
(262,431,o),
(310,431,cs),
(414,431,o),
(455,353,o),
(455,221,cs),
(455,100,o),
(384,57,o),
(308,57,cs),
(254,57,o),
(199,78,o),
(165,110,c),
(140,25,l),
(165,10,o),
(219,-11,o),
(294,-11,cs),
(407,-11,o),
(545,107,o),
(545,268,cs)
);
}
);
};
layerId = m01;
shapes = (
{
closed = 1;
nodes = (
(223,690,o),
(211,603,o),
(171,436,cs),
(35,-127,l),
(19,-191,o),
(8,-187,o),
(-54,-222,c),
(-62,-226,o),
(-57,-251,o),
(-48,-251,c),
(8,-251,o),
(22,-250,o),
(39,-250,c),
(66,-250,l),
(91,-250,o),
(111,-251,o),
(191,-251,c),
(204,-251,o),
(210,-224,o),
(199,-219,c),
(110,-181,o),
(106,-185,o),
(123,-115,c),
(280,531,ls),
(302,621,o),
(337,746,o),
(356,806,c),
(349,813,l),
(308,798,o),
(278,784,o),
(237,773,c),
(227,761,l)
);
},
{
closed = 1;
nodes = (
(568,604,o),
(282,554,o),
(72,337,c),
(57.082,335.43,o),
(61.082,297.43,o),
(76,299,c),
(338,504,o),
(468,486,o),
(375,192,cs),
(340,82,o),
(242,65,o),
(146,81,c),
(91,-7,l),
(220,-55,o),
(428,84,o),
(472,247,cs)
);
}
);
width = 533;
},
{
anchors = (
{
name = bottom;
pos = (205,0);
},
{
name = top;
pos = (329,500);
}
);
background = {
shapes = (
{
closed = 0;
nodes = (
(75,770,l)
);
},
{
closed = 1;
nodes = (
(90,697,o),
(111,610,o),
(111,435,cs),
(111,-250,l),
(111,-250,l),
(196,-250,l),
(196,-250,l),
(196,530,ls),
(206,815,l),
(196,625,o),
(201,720,o),
(206,815,c),
(75,770,l),
(160,798,o),
(121,781,o),
(75,770,c)
);
},
{
closed = 1;
nodes = (
(545,400,o),
(485,510,o),
(351,510,cs),
(280,510,o),
(199,467,o),
(120,360,c),
(159,350,l),
(209,405,o),
(262,431,o),
(310,431,cs),
(414,431,o),
(455,353,o),
(455,221,cs),
(455,100,o),
(384,57,o),
(308,57,cs),
(254,57,o),
(199,78,o),
(165,110,c),
(140,25,l),
(165,10,o),
(219,-11,o),
(294,-11,cs),
(407,-11,o),
(545,107,o),
(545,268,cs)
);
}
);
};
layerId = m002;
shapes = (
{
closed = 1;
nodes = (
(223,690,o),
(211,603,o),
(171,436,cs),
(35,-127,l),
(19,-191,o),
(8,-187,o),
(-54,-222,c),
(-62,-226,o),
(-57,-251,o),
(-48,-251,c),
(8,-251,o),
(22,-250,o),
(39,-250,c),
(66,-250,l),
(91,-250,o),
(111,-251,o),
(191,-251,c),
(204,-251,o),
(210,-224,o),
(199,-219,c),
(110,-181,o),
(106,-185,o),
(123,-115,c),
(280,531,ls),
(302,621,o),
(337,746,o),
(356,806,c),
(349,813,l),
(308,798,o),
(278,784,o),
(237,773,c),
(227,761,l)
);
},
{
closed = 1;
nodes = (
(568,604,o),
(282,554,o),
(72,337,c),
(57.082,335.43,o),
(61.082,297.43,o),
(76,299,c),
(338,504,o),
(468,486,o),
(375,192,cs),
(340,82,o),
(242,65,o),
(146,81,c),
(91,-7,l),
(220,-55,o),
(428,84,o),
(472,247,cs)
);
}
);
width = 533;
}
);
metricLeft = "=p";
metricRight = "=p";
unicode = 254;
}
{
glyphname = idotless;
layers = (
{
anchors = (
{
name = bottom;
pos = (69,0);
},
{
name = ogonek;
pos = (176,10);
},
{
name = top;
pos = (193,500);
}
);
layerId = m01;
shapes = (
{
closed = 1;
nodes = (
(23,368,o),
(44,341,o),
(60,356,cs),
(151,439,o),
(134,374,o),
(117,336,cs),
(55,194,ls),
(1,70,o),
(21,-7,o),
(57,-7,cs),
(108,-7,o),
(173,78,o),
(238,163,cs),
(254,183,o),
(228,204,o),
(214,188,cs),
(101,66,o),
(117,131,o),
(134,169,cs),
(196,311,ls),
(250,435,o),
(231,512,o),
(195,512,cs),
(144,512,o),
(79,427,o),
(34,381,cs)
);
}
);
width = 262;
}
);
metricLeft = "=i";
metricRight = "=i";
unicode = 305;
}
{
glyphname = OE;
layers = (
{
anchors = (
{
name = bottom;
pos = (473,0);
},
{
name = top;
pos = (662,760);
}
);
background = {
shapes = (
{
closed = 1;
nodes = (
(908,0,l),
(908,0,l),
(989,179,l),
(959,193,l),
(865,83,o),
(844,55,o),
(702,55,cs),
(575,55,o),
(558,60,o),
(573,119,cs),
(634,365,l),
(768,365,l),
(833,365,o),
(829,359,o),
(848,296,c),
(850,289,o),
(876,293,o),
(878,302,c),
(892,358,o),
(895,372,o),
(900,393,cs),
(905,413,o),
(910,427,o),
(924,483,c),
(926,492,o),
(902,496,o),
(896,489,c),
(845,426,o),
(847,420,o),
(782,420,c),
(648,420,l),
(703,640,ls),
(717,699,o),
(737,704,o),
(864,704,cs),
(986,704,o),
(985,686,o),
(1025,576,c),
(1061,590,l),
(1080,770,l),
(1080,770,l),
(928,760,l),
(633,760,l),
(443,0,l)
);
},
{
closed = 1;
nodes = (
(301,760,o),
(81,597,o),
(23,365,cs),
(-31,147,o),
(103,0,o),
(328,0,cs),
(543,0,l),
(733,760,l),
(546,760,l)
);
},
{
closed = 0;
nodes = (
(616,695,l)
);
},
{
closed = 1;
nodes = (
(459,65,l),
(459,65,l),
(326,41,o),
(56,67,o),
(140,406,cs),
(616,695,l),
(207,675,o),
(449,729,o),
(616,695,c)
);
}
);
};
layerId = m01;
shapes = (
{
closed = 1;
nodes = (
(241,760,o),
(59,600,o),
(59,334,cs),
(59,170,o),
(172,0,o),
(397,0,cs),
(542,0,l),
(732,760,l),
(565,760,l)
);
},
{
closed = 1;
nodes = (
(448,63,l),
(347,47,o),
(169,90,o),
(169,349,cs),
(169,652,o),
(410,727,o),
(606,697,c),
(614,685,l),
(461,76,l)
);
},
{
closed = 1;
nodes = (
(635,430,l),
(621,375,l),
(772,375,ls),
(830,375,o),
(829,379,o),
(855,302,c),
(859,295,o),
(882,298,o),
(884,304,c),
(889,331,o),
(894,369,o),
(898,386,cs),
(903,409,ls),
(909,436,o),
(917,458,o),
(925,485,c),
(926,491,o),
(903,500,o),
(895,493,c),
(841,428,o),
(844,430,o),
(786,430,cs)
);
},
{
closed = 1;
nodes = (
(702,640,l),
(716,700,o),
(736,704,o),
(863,704,cs),
(945,704,o),
(974,686,o),
(1014,576,c),
(1019,562,o),
(1055,576,o),
(1050,590,c),
(1049,750,l),
(1039,760,l),
(632,760,l),
(442,-1,l),
(897,-1,l),
(911,9,l),
(988,179,l),
(993,193,o),
(954,207,o),
(949,193,c),
(854,83,o),
(843,60,o),
(701,60,cs),
(574,60,o),
(557,60,o),
(572,119,c)
);
}
);
width = 1070;
},
{
anchors = (
{
name = bottom;
pos = (563,0);
},
{
name = top;
pos = (752,760);
}
);
background = {
shapes = (
{
closed = 1;
nodes = (
(331,760,o),
(149,600,o),
(149,334,cs),
(149,170,o),
(262,0,o),
(487,0,cs),
(632,0,l),
(822,760,l),
(655,760,l)
);
},
{
closed = 1;
nodes = (
(538,63,l),
(437,47,o),
(259,90,o),
(259,349,cs),
(259,652,o),
(500,727,o),
(696,697,c),
(704,685,l),
(551,76,l)
);
},
{
closed = 1;
nodes = (
(725,430,l),
(711,375,l),
(862,375,ls),
(920,375,o),
(919,379,o),
(945,302,c),
(949,295,o),
(972,298,o),
(974,304,c),
(979,331,o),
(984,369,o),
(988,386,cs),
(993,409,ls),
(999,436,o),
(1007,458,o),
(1015,485,c),
(1016,491,o),
(993,500,o),
(985,493,c),
(931,428,o),
(934,430,o),
(876,430,cs)
);
},
{
closed = 1;
nodes = (
(792,640,l),
(806,700,o),
(826,704,o),
(953,704,cs),
(1035,704,o),
(1064,686,o),
(1104,576,c),
(1109,562,o),
(1145,576,o),
(1140,590,c),
(1139,750,l),
(1129,760,l),
(722,760,l),
(532,-1,l),
(987,-1,l),
(1001,9,l),
(1078,179,l),
(1083,193,o),
(1044,207,o),
(1039,193,c),
(944,83,o),
(933,60,o),
(791,60,cs),
(664,60,o),
(647,60,o),
(662,119,c)
);
}
);
};
layerId = m002;
shapes = (
{
closed = 1;
nodes = (
(265,760,o),
(53,570,o),
(53,324,cs),
(53,140,o),
(156,0,o),
(401,0,cs),
(619,0,l),
(807,760,l),
(569,760,l)
);
},
{
closed = 1;
nodes = (
(452,73,l),
(216,53,o),
(212,299,o),
(247,441,cs),
(297,640,o),
(448,685,o),
(610,677,c),
(618,665,l),
(465,86,l)
);
},
{
closed = 1;
nodes = (
(711,430,l),
(692,355,l),
(763,355,ls),
(821,355,o),
(850,359,o),
(876,282,c),
(880,275,o),
(923,278,o),
(925,284,c),
(930,311,o),
(935,349,o),
(939,366,cs),
(949,409,ls),
(955,436,o),
(963,458,o),
(971,485,c),
(972,491,o),
(929,500,o),
(921,493,c),
(867,428,o),
(840,430,o),
(782,430,cs)
);
},
{
closed = 1;
nodes = (
(771,612,ls),
(788,682,o),
(792,679,o),
(889,679,cs),
(931,679,o),
(1000,686,o),
(1040,576,c),
(1045,562,o),
(1101,576,o),
(1096,590,c),
(1095,750,l),
(1085,760,l),
(695,760,l),
(487,0,l),
(943,0,l),
(957,9,l),
(1034,179,l),
(1039,193,o),
(980,217,o),
(975,203,c),
(880,93,o),
(819,85,o),
(727,85,cs),
(630,85,o),
(638,78,o),
(655,146,cs)
);
}
);
width = 1116;
},
{
anchors = (
{
name = bottom;
pos = (527,0);
},
{
name = top;
pos = (716,760);
}
);
layerId = "6BC31736-8C9F-4B37-B5D4-AA29B85DBE0C";
shapes = (
{
closed = 1;
nodes = (
(255,760,o),
(55,582,o),
(55,328,cs),
(55,152,o),
(162,0,o),
(399,0,cs),
(588,0,l),
(777,760,l),
(567,760,l)
);
},
{
closed = 1;
nodes = (
(450,69,l),
(268,51,o),
(195,215,o),
(216,404,cs),
(246,645,o),
(433,702,o),
(608,685,c),
(616,673,l),
(463,82,l)
);
},
{
closed = 1;
nodes = (
(681,430,l),
(664,363,l),
(767,363,ls),
(825,363,o),
(842,367,o),
(868,290,c),
(872,283,o),
(907,286,o),
(909,292,c),
(914,319,o),
(919,357,o),
(923,374,cs),
(931,409,ls),
(937,436,o),
(945,458,o),
(953,485,c),
(954,491,o),
(919,500,o),
(911,493,c),
(857,428,o),
(842,430,o),
(784,430,cs)
);
},
{
closed = 1;
nodes = (
(743,623,l),
(759,689,o),
(770,689,o),
(879,689,cs),
(937,689,o),
(990,686,o),
(1030,576,c),
(1035,562,o),
(1083,576,o),
(1078,590,c),
(1077,750,l),
(1067,760,l),
(670,760,l),
(469,0,l),
(925,0,l),
(939,9,l),
(1016,179,l),
(1021,193,o),
(970,213,o),
(965,199,c),
(870,89,o),
(829,75,o),
(717,75,cs),
(608,75,o),
(606,71,o),
(622,135,c)
);
}
);
width = 1097.6;
}
);
metricLeft = "=O";
metricRight = "=E";
unicode = 338;
}
{
glyphname = oe;
layers = (
{
anchors = (
{
name = bottom;
pos = (320,0);
},
{
name = top;
pos = (444,500);
}
);
layerId = m01;
shapes = (
{
closed = 1;
nodes = (
(204,518,o),
(89,346,o),
(65,236,cs),
(38,111,o),
(88,-4,o),
(189,-10,cs),
(328,-17,o),
(472,142,o),
(482,315,cs),
(488,412,o),
(436,505,o),
(345,510,cs)
);
},
{
closed = 1;
nodes = (
(381,219,o),
(328,46,o),
(233,53,cs),
(193,56,o),
(153,101,o),
(159,219,cs),
(163,283,o),
(206,454,o),
(301,449,cs),
(351,446,o),
(391,401,o),
(386,313,cs)
);
},
{
closed = 1;
nodes = (
(537,-5,o),
(590,22,o),
(704,140,c),
(716.481,148.321,o),
(696.481,178.321,o),
(684,170,c),
(501,24,o),
(426,80,o),
(479,279,cs),
(541,513,o),
(650,429,o),
(639,366,cs),
(627,300,o),
(486,265,o),
(428,256,c),
(438,219,l),
(573,233,o),
(713,300,o),
(735,387,cs),
(748,438,o),
(716,509,o),
(640,509,cs),
(552,509,o),
(431,417,o),
(378,232,cs),
(340,97,o),
(389,-5,o),
(482,-5,cs)
);
}
);
width = 764;
},
{
anchors = (
{
name = bottom;
pos = (320,0);
},
{
name = top;
pos = (444,500);
}
);
layerId = m002;
shapes = (
{
closed = 1;
nodes = (
(204,518,o),
(89,346,o),
(65,236,cs),
(38,111,o),
(88,-4,o),
(189,-10,cs),
(328,-17,o),
(472,142,o),
(482,315,cs),
(488,412,o),
(436,505,o),
(345,510,cs)
);
},
{
closed = 1;
nodes = (
(381,219,o),
(328,46,o),
(233,53,cs),
(193,56,o),
(153,101,o),
(159,219,cs),
(163,283,o),
(206,454,o),
(301,449,cs),
(351,446,o),
(391,401,o),
(386,313,cs)
);
},
{
closed = 1;
nodes = (
(537,-5,o),
(590,22,o),
(704,140,c),
(716.481,148.321,o),
(696.481,178.321,o),
(684,170,c),
(501,24,o),
(426,80,o),
(479,279,cs),
(541,513,o),
(650,429,o),
(639,366,cs),
(627,300,o),
(486,265,o),
(428,256,c),
(438,219,l),
(573,233,o),
(713,300,o),
(735,387,cs),
(748,438,o),
(716,509,o),
(640,509,cs),
(552,509,o),
(431,417,o),
(378,232,cs),
(340,97,o),
(389,-5,o),
(482,-5,cs)
);
}
);
width = 764;
}
);
metricLeft = "=o";
metricRight = "=e";
unicode = 339;
}
{
glyphname = jdotless;
layers = (
{
anchors = (
{
name = bottom;
pos = (18,-250);
},
{
name = top;
pos = (205,500);
}
);
layerId = m01;
shapes = (
{
closed = 1;
nodes = (
(23,368,o),
(46,341,o),
(61,356,cs),
(144,439,o),
(130,374,o),
(120,336,cs),
(-12,-167,o),
(-13,-207,o),
(-126,-153,cs),
(-196,-120,o),
(-219,-234,o),
(-141,-255,cs),
(25,-299,o),
(160,131,o),
(201,311,cs),
(230,439,o),
(217,512,o),
(181,512,cs),
(130,512,o),
(73,427,o),
(33,381,cs)
);
}
);
width = 286;
},
{
anchors = (
{
name = bottom;
pos = (18,-250);
},
{
name = top;
pos = (205,500);
}
);
layerId = m002;
shapes = (
{
closed = 1;
nodes = (
(23,368,o),
(46,341,o),
(61,356,cs),
(144,439,o),
(130,374,o),
(120,336,cs),
(-12,-167,o),
(-13,-207,o),
(-126,-153,cs),
(-196,-120,o),
(-219,-234,o),
(-141,-255,cs),
(25,-299,o),
(160,131,o),
(201,311,cs),
(230,439,o),
(217,512,o),
(181,512,cs),
(130,512,o),
(73,427,o),
(33,381,cs)
);
}
);
width = 286;
},
{
anchors = (
{
name = bottom;
pos = (18,-250);
},
{
name = top;
pos = (205,500);
}
);
layerId = "6BC31736-8C9F-4B37-B5D4-AA29B85DBE0C";
shapes = (
{
closed = 1;
nodes = (
(23,368,o),
(46,341,o),
(61,356,cs),
(144,439,o),
(130,374,o),
(120,336,cs),
(-12,-167,o),
(-13,-207,o),
(-126,-153,cs),
(-196,-120,o),
(-219,-234,o),
(-141,-255,cs),
(25,-299,o),
(160,131,o),
(201,311,cs),
(230,439,o),
(217,512,o),
(181,512,cs),
(130,512,o),
(73,427,o),
(33,381,cs)
);
}
);
width = 286;
}
);
metricLeft = "=j";
unicode = 567;
}
{
glyphname = acutecomb;
layers = (
{
anchors = (
{
name = _top;
pos = (201,500);
},
{
name = top;
pos = (269,774);
}
);
layerId = m01;
shapes = (
{
closed = 1;
nodes = (
(261,645,o),
(326,689,o),
(340,702,c),
(344,724,o),
(294,777,o),
(270,774,c),
(257,761,o),
(206,701,o),
(141,613,c),
(133,604,o),
(159,578,o),
(168,584,c)
);
}
);
width = 277;
},
{
anchors = (
{
name = _top;
pos = (201,500);
},
{
name = top;
pos = (269,774);
}
);
layerId = m002;
shapes = (
{
closed = 1;
nodes = (
(261,645,o),
(326,689,o),
(340,702,c),
(344,724,o),
(294,777,o),
(270,774,c),
(257,761,o),
(206,701,o),
(141,613,c),
(133,604,o),
(159,578,o),
(168,584,c)
);
}
);
width = 277;
},
{
anchors = (
{
name = _top;
pos = (201,500);
},
{
name = top;
pos = (269,774);
}
);
layerId = "6BC31736-8C9F-4B37-B5D4-AA29B85DBE0C";
shapes = (
{
closed = 1;
nodes = (
(261,645,o),
(326,689,o),
(340,702,c),
(344,724,o),
(294,777,o),
(270,774,c),
(257,761,o),
(206,701,o),
(141,613,c),
(133,604,o),
(159,578,o),
(168,584,c)
);
}
);
width = 277;
}
);
unicode = 769;
}
{
glyphname = circumflexcomb;
layers = (
{
anchors = (
{
name = _top;
pos = (255,500);
},
{
name = top;
pos = (320,760);
}
);
layerId = m01;
shapes = (
{
closed = 1;
nodes = (
(254,741,ls),
(277,766,o),
(288,767,o),
(312,741,cs),
(423,619,ls),
(435,605,o),
(407,579,o),
(399,584,cs),
(283,654,l),
(167,584,ls),
(159,579,o),
(131,605,o),
(143,619,cs)
);
}
);
width = 0;
}
);
unicode = 770;
}
{
glyphname = tildecomb;
layers = (
{
anchors = (
{
name = _top;
pos = (285,500);
},
{
name = top;
pos = (337,711);
}
);
background = {
shapes = (
{
closed = 1;
nodes = (
(511,694,o),
(467,715,o),
(461,706,cs),
(392,601,o),
(258,824,o),
(153,628,cs),
(144,612,o),
(189,591,o),
(195,600,cs),
(269,712,o),
(402,484,o),
(503,678,cs)
);
}
);
};
layerId = m01;
shapes = (
{
closed = 1;
nodes = (
(509,690,o),
(467,715,o),
(461,706,cs),
(382,601,o),
(254,822,o),
(144,628,cs),
(137,616,o),
(179,591,o),
(185,600,cs),
(264,705,o),
(392,484,o),
(502,678,cs)
);
}
);
width = 446;
},
{
anchors = (
{
name = _top;
pos = (285,500);
},
{
name = top;
pos = (337,711);
}
);
layerId = "6BC31736-8C9F-4B37-B5D4-AA29B85DBE0C";
shapes = (
{
closed = 1;
nodes = (
(509,690,o),
(467,715,o),
(461,706,cs),
(382,601,o),
(254,822,o),
(144,628,cs),
(137,616,o),
(179,591,o),
(185,600,cs),
(264,705,o),
(392,484,o),
(502,678,cs)
);
}
);
width = 446;
}
);
unicode = 771;
}
{
glyphname = macroncomb;
layers = (
{
anchors = (
{
name = _top;
pos = (277,500);
},
{
name = top;
pos = (327,700);
}
);
layerId = m01;
shapes = (
{
closed = 1;
nodes = (
(483,630,o),
(483,700,o),
(468,700,c),
(168,700,l),
(153,700,o),
(153,630,o),
(168,630,c),
(318,635,l),
(468,630,l)
);
}
);
width = 429;
},
{
anchors = (
{
name = _top;
pos = (277,500);
},
{
name = top;
pos = (327,700);
}
);
layerId = "6BC31736-8C9F-4B37-B5D4-AA29B85DBE0C";
shapes = (
{
closed = 1;
nodes = (
(483,630,o),
(483,700,o),
(468,700,c),
(168,700,l),
(153,700,o),
(153,630,o),
(168,630,c),
(318,635,l),
(468,630,l)
);
}
);
width = 429;
},
{
anchors = (
{
name = _top;
pos = (277,500);
},
{
name = top;
pos = (327,700);
}
);
layerId = "ABF9DA73-21AD-4AF2-B0FF-D1BE084ED1D5";
shapes = (
{
closed = 1;
nodes = (
(483,630,o),
(483,700,o),
(468,700,c),
(168,700,l),
(153,700,o),
(153,630,o),
(168,630,c),
(318,635,l),
(468,630,l)
);
}
);
width = 429;
}
);
unicode = 772;
}
{
glyphname = brevecomb;
layers = (
{
anchors = (
{
name = _top;
pos = (268,500);
},
{
name = top;
pos = (333,760);
}
);
layerId = m01;
shapes = (
{
closed = 1;
nodes = (
(169,754,o),
(203,769,o),
(213,754,cs),
(286,650,o),
(370,650,o),
(443,754,cs),
(453,769,o),
(487,754,o),
(483,739,cs),
(436,550,o),
(220,550,o),
(173,739,cs)
);
}
);
width = 0;
}
);
unicode = 774;
}
{
glyphname = dotaccentcomb;
layers = (
{
anchors = (
{
name = _top;
pos = (174,500);
},
{
name = top;
pos = (232,732);
}
);
layerId = m01;
shapes = (
{
closed = 1;
nodes = (
(250,612,o),
(277,639,o),
(277,672,cs),
(277,705,o),
(250,732,o),
(217,732,cs),
(184,732,o),
(157,705,o),
(157,672,cs),
(157,639,o),
(184,612,o),
(217,612,cs)
);
}
);
width = 224;
},
{
anchors = (
{
name = _top;
pos = (174,500);
},
{
name = top;
pos = (232,732);
}
);
layerId = "6BC31736-8C9F-4B37-B5D4-AA29B85DBE0C";
shapes = (
{
closed = 1;
nodes = (
(250,612,o),
(277,639,o),
(277,672,cs),
(277,705,o),
(250,732,o),
(217,732,cs),
(184,732,o),
(157,705,o),
(157,672,cs),
(157,639,o),
(184,612,o),
(217,612,cs)
);
}
);
width = 224;
},
{
anchors = (
{
name = _top;
pos = (174,500);
},
{
name = top;
pos = (232,732);
}
);
layerId = "ABF9DA73-21AD-4AF2-B0FF-D1BE084ED1D5";
shapes = (
{
closed = 1;
nodes = (
(250,612,o),
(277,639,o),
(277,672,cs),
(277,705,o),
(250,732,o),
(217,732,cs),
(184,732,o),
(157,705,o),
(157,672,cs),
(157,639,o),
(184,612,o),
(217,612,cs)
);
}
);
width = 224;
}
);
unicode = 775;
}
